Fira Sans-SemiLight Condensed.ufo
<glyph name="exclam" format="1">
  <advance width="218"/>
  <unicode hex="0021"/>
  <outline>
    <contour>
      <point x="94" y="682" type="line"/>
      <point x="95" y="208" type="line"/>
      <point x="123" y="208" type="line"/>
      <point x="124" y="682" type="line"/>
    </contour>
    <contour>
      <point x="91" y="48"/>
      <point x="80" y="34"/>
      <point x="80" y="19" type="curve" smooth="yes"/>
      <point x="80" y="4"/>
      <point x="91" y="-10"/>
      <point x="109" y="-10" type="curve" smooth="yes"/>
      <point x="127" y="-10"/>
      <point x="138" y="4"/>
      <point x="138" y="19" type="curve" smooth="yes"/>
      <point x="138" y="34"/>
      <point x="127" y="48"/>
      <point x="109" y="48" type="curve" smooth="yes"/>
    </contour>
  </outline>
</glyph>
<glyph name="numbersign" format="1">
  <advance width="404"/>
  <unicode hex="0023"/>
  <outline>
    <contour>
      <point x="327" y="662" type="line"/>
      <point x="239" y="0" type="line"/>
      <point x="268" y="0" type="line"/>
      <point x="356" y="662" type="line"/>
    </contour>
    <contour>
      <point x="12" y="221" type="line"/>
      <point x="12" y="194" type="line"/>
      <point x="362" y="194" type="line"/>
      <point x="362" y="221" type="line"/>
    </contour>
    <contour>
      <point x="136" y="662" type="line"/>
      <point x="48" y="0" type="line"/>
      <point x="77" y="0" type="line"/>
      <point x="165" y="662" type="line"/>
    </contour>
    <contour>
      <point x="42" y="483" type="line"/>
      <point x="42" y="456" type="line"/>
      <point x="392" y="456" type="line"/>
      <point x="392" y="483" type="line"/>
    </contour>
  </outline>
</glyph>
<glyph name="dollar" format="1">
  <advance width="429"/>
  <unicode hex="0024"/>
  <outline>
    <contour>
      <point x="200" y="0" type="line"/>
      <point x="200" y="-147" type="line"/>
      <point x="227" y="-147" type="line"/>
      <point x="227" y="1" type="line"/>
    </contour>
    <contour>
      <point x="200" y="814" type="line"/>
      <point x="200" y="664" type="line"/>
      <point x="227" y="664" type="line"/>
      <point x="227" y="814" type="line"/>
    </contour>
    <contour>
      <point x="123" y="671"/>
      <point x="60" y="599"/>
      <point x="60" y="516" type="curve" smooth="yes"/>
      <point x="60" y="434"/>
      <point x="101" y="386"/>
      <point x="212" y="343" type="curve" smooth="yes"/>
      <point x="312" y="303"/>
      <point x="348" y="264"/>
      <point x="348" y="176" type="curve" smooth="yes"/>
      <point x="348" y="83"/>
      <point x="292" y="17"/>
      <point x="205" y="17" type="curve" smooth="yes"/>
      <point x="139" y="17"/>
      <point x="98" y="47"/>
      <point x="58" y="88" type="curve"/>
      <point x="39" y="70" type="line"/>
      <point x="83" y="21"/>
      <point x="134" y="-11"/>
      <point x="206" y="-11" type="curve" smooth="yes"/>
      <point x="306" y="-11"/>
      <point x="378" y="70"/>
      <point x="378" y="177" type="curve" smooth="yes"/>
      <point x="378" y="280"/>
      <point x="327" y="327"/>
      <point x="223" y="368" type="curve" smooth="yes"/>
      <point x="126" y="405"/>
      <point x="91" y="443"/>
      <point x="91" y="516" type="curve" smooth="yes"/>
      <point x="91" y="588"/>
      <point x="139" y="643"/>
      <point x="213" y="643" type="curve" smooth="yes"/>
      <point x="266" y="643"/>
      <point x="301" y="624"/>
      <point x="342" y="582" type="curve"/>
      <point x="361" y="601" type="line"/>
      <point x="321" y="644"/>
      <point x="281" y="671"/>
      <point x="213" y="671" type="curve" smooth="yes"/>
    </contour>
  </outline>
</glyph>
<glyph name="ampersand" format="1">
  <advance width="587"/>
  <unicode hex="0026"/>
  <outline>
    <contour>
      <point x="174" y="692"/>
      <point x="120" y="632"/>
      <point x="120" y="542" type="curve" smooth="yes"/>
      <point x="120" y="472"/>
      <point x="148" y="433"/>
      <point x="204" y="367" type="curve"/>
      <point x="130" y="313"/>
      <point x="84" y="261"/>
      <point x="84" y="168" type="curve" smooth="yes"/>
      <point x="84" y="57"/>
      <point x="157" y="-10"/>
      <point x="249" y="-10" type="curve" smooth="yes"/>
      <point x="339" y="-10"/>
      <point x="392" y="39"/>
      <point x="434" y="104" type="curve"/>
      <point x="535" y="-10" type="line"/>
      <point x="557" y="7" type="line"/>
      <point x="449" y="130" type="line"/>
      <point x="479" y="194"/>
      <point x="501" y="263"/>
      <point x="516" y="348" type="curve"/>
      <point x="488" y="354" type="line"/>
      <point x="475" y="275"/>
      <point x="456" y="214"/>
      <point x="430" y="149" type="curve"/>
      <point x="247" y="361" type="line"/>
      <point x="335" y="422"/>
      <point x="379" y="470"/>
      <point x="379" y="547" type="curve" smooth="yes"/>
      <point x="379" y="634"/>
      <point x="329" y="692"/>
      <point x="252" y="692" type="curve" smooth="yes"/>
    </contour>
    <contour>
      <point x="414" y="123" type="line"/>
      <point x="374" y="59"/>
      <point x="328" y="18"/>
      <point x="249" y="18" type="curve" smooth="yes"/>
      <point x="172" y="18"/>
      <point x="115" y="77"/>
      <point x="115" y="168" type="curve" smooth="yes"/>
      <point x="115" y="247"/>
      <point x="154" y="300"/>
      <point x="222" y="348" type="curve"/>
    </contour>
    <contour>
      <point x="308" y="665"/>
      <point x="349" y="625"/>
      <point x="349" y="547" type="curve" smooth="yes"/>
      <point x="349" y="481"/>
      <point x="311" y="435"/>
      <point x="228" y="381" type="curve"/>
      <point x="159" y="466"/>
      <point x="150" y="494"/>
      <point x="150" y="543" type="curve" smooth="yes"/>
      <point x="150" y="614"/>
      <point x="189" y="665"/>
      <point x="252" y="665" type="curve" smooth="yes"/>
    </contour>
  </outline>
</glyph>
<glyph name="quotesingle" format="1">
  <advance width="170"/>
  <unicode hex="0027"/>
  <outline>
    <contour>
      <point x="97" y="439" type="line"/>
      <point x="100" y="682" type="line"/>
      <point x="70" y="682" type="line"/>
      <point x="73" y="439" type="line"/>
    </contour>
  </outline>
</glyph>
<glyph name="parenleft" format="1">
  <advance width="265"/>
  <unicode hex="0028"/>
  <outline>
    <contour>
      <point x="116" y="699"/>
      <point x="51" y="579"/>
      <point x="51" y="350" type="curve"/>
      <point x="51" y="121"/>
      <point x="116" y="1"/>
      <point x="195" y="-131" type="curve"/>
      <point x="215" y="-118" type="line"/>
      <point x="142" y="13"/>
      <point x="81" y="125"/>
      <point x="81" y="350" type="curve"/>
      <point x="81" y="574"/>
      <point x="142" y="687"/>
      <point x="215" y="818" type="curve"/>
      <point x="195" y="831" type="line"/>
    </contour>
  </outline>
</glyph>
<glyph name="parenright" format="1">
  <advance width="265"/>
  <unicode hex="0029"/>
  <outline>
    <contour>
      <point x="50" y="818" type="line"/>
      <point x="123" y="687"/>
      <point x="184" y="575"/>
      <point x="184" y="350" type="curve"/>
      <point x="184" y="126"/>
      <point x="123" y="13"/>
      <point x="50" y="-118" type="curve"/>
      <point x="70" y="-131" type="line"/>
      <point x="149" y="1"/>
      <point x="214" y="121"/>
      <point x="214" y="350" type="curve"/>
      <point x="214" y="579"/>
      <point x="149" y="699"/>
      <point x="70" y="831" type="curve"/>
    </contour>
  </outline>
</glyph>
<glyph name="asterisk" format="1">
  <advance width="366"/>
  <unicode hex="002A"/>
  <outline>
    <contour>
      <point x="181" y="543" type="line"/>
      <point x="256" y="414" type="line"/>
      <point x="280" y="429" type="line"/>
      <point x="199" y="556" type="line"/>
      <point x="183" y="559" type="line"/>
    </contour>
    <contour>
      <point x="169" y="734" type="line"/>
      <point x="171" y="569" type="line"/>
      <point x="183" y="559" type="line"/>
      <point x="195" y="569" type="line"/>
      <point x="197" y="734" type="line"/>
    </contour>
    <contour>
      <point x="191" y="572" type="line"/>
      <point x="183" y="559" type="line"/>
      <point x="197" y="552" type="line"/>
      <point x="326" y="599" type="line"/>
      <point x="315" y="625" type="line"/>
    </contour>
    <contour>
      <point x="40" y="599" type="line"/>
      <point x="169" y="551" type="line"/>
      <point x="183" y="559" type="line"/>
      <point x="175" y="571" type="line"/>
      <point x="51" y="625" type="line"/>
    </contour>
    <contour>
      <point x="168" y="554" type="line"/>
      <point x="86" y="429" type="line"/>
      <point x="110" y="414" type="line"/>
      <point x="186" y="543" type="line"/>
      <point x="183" y="559" type="line"/>
    </contour>
  </outline>
</glyph>
<glyph name="comma" format="1">
  <advance width="174"/>
  <unicode hex="002C"/>
  <outline>
    <contour>
      <point x="74" y="48"/>
      <point x="61" y="36"/>
      <point x="61" y="19" type="curve" smooth="yes"/>
      <point x="61" y="7"/>
      <point x="68" y="-3"/>
      <point x="80" y="-8" type="curve"/>
      <point x="45" y="-139" type="line"/>
      <point x="67" y="-139" type="line"/>
      <point x="108" y="-23" type="line" smooth="yes"/>
      <point x="114" y="-7"/>
      <point x="119" y="5"/>
      <point x="119" y="19" type="curve" smooth="yes"/>
      <point x="119" y="36"/>
      <point x="108" y="48"/>
      <point x="90" y="48" type="curve" smooth="yes"/>
    </contour>
  </outline>
</glyph>
<glyph name="period" format="1">
  <advance width="168"/>
  <unicode hex="002E"/>
  <outline>
    <contour>
      <point x="66" y="48"/>
      <point x="55" y="34"/>
      <point x="55" y="19" type="curve" smooth="yes"/>
      <point x="55" y="4"/>
      <point x="66" y="-10"/>
      <point x="84" y="-10" type="curve" smooth="yes"/>
      <point x="102" y="-10"/>
      <point x="113" y="4"/>
      <point x="113" y="19" type="curve" smooth="yes"/>
      <point x="113" y="34"/>
      <point x="102" y="48"/>
      <point x="84" y="48" type="curve" smooth="yes"/>
    </contour>
  </outline>
</glyph>
<glyph name="one" format="1">
  <advance width="328"/>
  <unicode hex="0031"/>
  <outline>
    <contour>
      <point x="194" y="662" type="line"/>
      <point x="35" y="542" type="line"/>
      <point x="51" y="519" type="line"/>
      <point x="188" y="624" type="line"/>
      <point x="188" y="0" type="line"/>
      <point x="218" y="0" type="line"/>
      <point x="218" y="662" type="line"/>
    </contour>
  </outline>
</glyph>
<glyph name="two" format="1">
  <advance width="373"/>
  <unicode hex="0032"/>
  <outline>
    <contour>
      <point x="110" y="674"/>
      <point x="64" y="646"/>
      <point x="20" y="584" type="curve"/>
      <point x="42" y="568" type="line"/>
      <point x="75" y="617"/>
      <point x="115" y="646"/>
      <point x="171" y="646" type="curve" smooth="yes"/>
      <point x="239" y="646"/>
      <point x="282" y="597"/>
      <point x="282" y="513" type="curve" smooth="yes"/>
      <point x="282" y="392"/>
      <point x="234" y="307"/>
      <point x="26" y="29" type="curve"/>
      <point x="26" y="0" type="line"/>
      <point x="322" y="0" type="line"/>
      <point x="328" y="30" type="line"/>
      <point x="61" y="30" type="line"/>
      <point x="254" y="292"/>
      <point x="312" y="382"/>
      <point x="312" y="513" type="curve" smooth="yes"/>
      <point x="312" y="608"/>
      <point x="259" y="674"/>
      <point x="171" y="674" type="curve" smooth="yes"/>
    </contour>
  </outline>
</glyph>
<glyph name="three" format="1">
  <advance width="393"/>
  <unicode hex="0033"/>
  <outline>
    <contour>
      <point x="121" y="674"/>
      <point x="77" y="650"/>
      <point x="35" y="601" type="curve"/>
      <point x="54" y="585" type="line"/>
      <point x="95" y="629"/>
      <point x="130" y="647"/>
      <point x="178" y="647" type="curve" smooth="yes"/>
      <point x="249" y="647"/>
      <point x="293" y="596"/>
      <point x="293" y="510" type="curve" smooth="yes"/>
      <point x="293" y="408"/>
      <point x="222" y="365"/>
      <point x="162" y="365" type="curve" smooth="yes"/>
      <point x="131" y="365" type="line"/>
      <point x="128" y="338" type="line"/>
      <point x="164" y="338" type="line" smooth="yes"/>
      <point x="245" y="338"/>
      <point x="307" y="295"/>
      <point x="307" y="185" type="curve" smooth="yes"/>
      <point x="307" y="83"/>
      <point x="257" y="17"/>
      <point x="174" y="17" type="curve" smooth="yes"/>
      <point x="119" y="17"/>
      <point x="83" y="36"/>
      <point x="41" y="88" type="curve"/>
      <point x="20" y="73" type="line"/>
      <point x="62" y="18"/>
      <point x="106" y="-10"/>
      <point x="175" y="-10" type="curve" smooth="yes"/>
      <point x="272" y="-10"/>
      <point x="337" y="67"/>
      <point x="337" y="186" type="curve" smooth="yes"/>
      <point x="337" y="297"/>
      <point x="278" y="346"/>
      <point x="205" y="353" type="curve"/>
      <point x="273" y="368"/>
      <point x="322" y="416"/>
      <point x="322" y="510" type="curve" smooth="yes"/>
      <point x="322" y="607"/>
      <point x="268" y="674"/>
      <point x="178" y="674" type="curve" smooth="yes"/>
    </contour>
  </outline>
</glyph>
<glyph name="four" format="1">
  <advance width="418"/>
  <unicode hex="0034"/>
  <outline>
    <contour>
      <point x="40" y="208" type="line"/>
      <point x="40" y="183" type="line"/>
      <point x="386" y="183" type="line"/>
      <point x="386" y="211" type="line"/>
      <point x="71" y="211" type="line"/>
      <point x="233" y="665" type="line"/>
      <point x="207" y="674" type="line"/>
    </contour>
    <contour>
      <point x="286" y="418" type="line"/>
      <point x="282" y="204" type="line"/>
      <point x="282" y="0" type="line"/>
      <point x="311" y="0" type="line"/>
      <point x="311" y="418" type="line"/>
    </contour>
  </outline>
</glyph>
<glyph name="five" format="1">
  <advance width="392"/>
  <unicode hex="0035"/>
  <outline>
    <contour>
      <point x="70" y="662" type="line"/>
      <point x="70" y="351" type="line"/>
      <point x="93" y="351" type="line"/>
      <point x="127" y="377"/>
      <point x="153" y="389"/>
      <point x="194" y="389" type="curve" smooth="yes"/>
      <point x="267" y="389"/>
      <point x="317" y="336"/>
      <point x="317" y="214" type="curve" smooth="yes"/>
      <point x="317" y="91"/>
      <point x="265" y="18"/>
      <point x="182" y="18" type="curve" smooth="yes"/>
      <point x="125" y="18"/>
      <point x="88" y="41"/>
      <point x="54" y="83" type="curve"/>
      <point x="32" y="66" type="line"/>
      <point x="71" y="18"/>
      <point x="117" y="-10"/>
      <point x="181" y="-10" type="curve" smooth="yes"/>
      <point x="284" y="-10"/>
      <point x="348" y="79"/>
      <point x="348" y="214" type="curve" smooth="yes"/>
      <point x="348" y="345"/>
      <point x="289" y="417"/>
      <point x="197" y="417" type="curve" smooth="yes"/>
      <point x="154" y="417"/>
      <point x="122" y="401"/>
      <point x="98" y="382" type="curve"/>
      <point x="98" y="634" type="line"/>
      <point x="325" y="634" type="line"/>
      <point x="331" y="662" type="line"/>
    </contour>
  </outline>
</glyph>
<glyph name="six" format="1">
  <advance width="432"/>
  <unicode hex="0036"/>
  <outline>
    <contour>
      <point x="138" y="674"/>
      <point x="65" y="541"/>
      <point x="65" y="289" type="curve" smooth="yes"/>
      <point x="65" y="117"/>
      <point x="109" y="-10"/>
      <point x="231" y="-10" type="curve" smooth="yes"/>
      <point x="319" y="-10"/>
      <point x="382" y="65"/>
      <point x="382" y="222" type="curve" smooth="yes"/>
      <point x="382" y="366"/>
      <point x="319" y="428"/>
      <point x="240" y="428" type="curve" smooth="yes"/>
      <point x="170" y="428"/>
      <point x="121" y="377"/>
      <point x="89" y="312" type="curve"/>
      <point x="90" y="266" type="line"/>
      <point x="126" y="349"/>
      <point x="175" y="400"/>
      <point x="240" y="400" type="curve" smooth="yes"/>
      <point x="304" y="400"/>
      <point x="352" y="347"/>
      <point x="352" y="221" type="curve" smooth="yes"/>
      <point x="352" y="95"/>
      <point x="311" y="18"/>
      <point x="231" y="18" type="curve" smooth="yes"/>
      <point x="131" y="18"/>
      <point x="95" y="124"/>
      <point x="95" y="293" type="curve"/>
      <point x="95" y="308" type="line"/>
      <point x="96" y="514"/>
      <point x="153" y="646"/>
      <point x="254" y="646" type="curve"/>
      <point x="286" y="646"/>
      <point x="309" y="635"/>
      <point x="333" y="615" type="curve"/>
      <point x="350" y="636" type="line"/>
      <point x="323" y="659"/>
      <point x="295" y="674"/>
      <point x="255" y="674" type="curve"/>
    </contour>
  </outline>
</glyph>
<glyph name="seven" format="1">
  <advance width="355"/>
  <unicode hex="0037"/>
  <outline>
    <contour>
      <point x="28" y="662" type="line"/>
      <point x="28" y="634" type="line"/>
      <point x="292" y="634" type="line"/>
      <point x="74" y="4" type="line"/>
      <point x="102" y="-6" type="line"/>
      <point x="323" y="637" type="line"/>
      <point x="323" y="662" type="line"/>
    </contour>
  </outline>
</glyph>
<glyph name="nine" format="1">
  <advance width="423"/>
  <unicode hex="0039"/>
  <outline>
    <contour>
      <point x="339" y="401" type="line"/>
      <point x="300" y="324"/>
      <point x="258" y="281"/>
      <point x="198" y="281" type="curve" smooth="yes"/>
      <point x="126" y="281"/>
      <point x="80" y="341"/>
      <point x="80" y="457" type="curve" smooth="yes"/>
      <point x="80" y="589"/>
      <point x="130" y="646"/>
      <point x="208" y="646" type="curve" smooth="yes"/>
      <point x="300" y="646"/>
      <point x="335" y="563"/>
      <point x="335" y="390" type="curve"/>
      <point x="335" y="367" type="line"/>
      <point x="330" y="157"/>
      <point x="242" y="67"/>
      <point x="94" y="8" type="curve"/>
      <point x="103" y="-17" type="line"/>
      <point x="270" y="48"/>
      <point x="365" y="148"/>
      <point x="365" y="399" type="curve" smooth="yes"/>
      <point x="365" y="581"/>
      <point x="317" y="674"/>
      <point x="207" y="674" type="curve" smooth="yes"/>
      <point x="114" y="674"/>
      <point x="48" y="601"/>
      <point x="48" y="458" type="curve" smooth="yes"/>
      <point x="48" y="326"/>
      <point x="110" y="253"/>
      <point x="197" y="253" type="curve" smooth="yes"/>
      <point x="258" y="253"/>
      <point x="307" y="294"/>
      <point x="342" y="366" type="curve"/>
    </contour>
  </outline>
</glyph>
<glyph name="less" format="1">
  <advance width="404"/>
  <unicode hex="003C"/>
  <outline>
    <contour>
      <point x="57" y="344" type="line"/>
      <point x="57" y="322" type="line"/>
      <point x="332" y="153" type="line"/>
      <point x="347" y="177" type="line"/>
      <point x="86" y="333" type="line"/>
      <point x="347" y="485" type="line"/>
      <point x="331" y="508" type="line"/>
    </contour>
  </outline>
</glyph>
<glyph name="question" format="1">
  <advance width="372"/>
  <unicode hex="003F"/>
  <outline>
    <contour>
      <point x="132" y="692"/>
      <point x="87" y="664"/>
      <point x="45" y="605" type="curve"/>
      <point x="67" y="588" type="line"/>
      <point x="104" y="640"/>
      <point x="138" y="664"/>
      <point x="193" y="664" type="curve" smooth="yes"/>
      <point x="256" y="664"/>
      <point x="297" y="620"/>
      <point x="297" y="554" type="curve" smooth="yes"/>
      <point x="297" y="418"/>
      <point x="149" y="439"/>
      <point x="149" y="274" type="curve" smooth="yes"/>
      <point x="149" y="208" type="line"/>
      <point x="177" y="208" type="line"/>
      <point x="177" y="271" type="line" smooth="yes"/>
      <point x="177" y="426"/>
      <point x="327" y="407"/>
      <point x="327" y="554" type="curve" smooth="yes"/>
      <point x="327" y="630"/>
      <point x="277" y="692"/>
      <point x="193" y="692" type="curve" smooth="yes"/>
    </contour>
    <contour>
      <point x="145" y="48"/>
      <point x="134" y="34"/>
      <point x="134" y="19" type="curve" smooth="yes"/>
      <point x="134" y="4"/>
      <point x="145" y="-10"/>
      <point x="163" y="-10" type="curve" smooth="yes"/>
      <point x="181" y="-10"/>
      <point x="192" y="4"/>
      <point x="192" y="19" type="curve" smooth="yes"/>
      <point x="192" y="34"/>
      <point x="181" y="48"/>
      <point x="163" y="48" type="curve" smooth="yes"/>
    </contour>
  </outline>
</glyph>
<glyph name="at" format="1">
  <advance width="846"/>
  <unicode hex="0040"/>
  <outline>
    <contour>
      <point x="224" y="692"/>
      <point x="82" y="496"/>
      <point x="82" y="244" type="curve" smooth="yes"/>
      <point x="82" y="-45"/>
      <point x="231" y="-199"/>
      <point x="435" y="-199" type="curve" smooth="yes"/>
      <point x="507" y="-199"/>
      <point x="550" y="-184"/>
      <point x="596" y="-165" type="curve"/>
      <point x="587" y="-139" type="line"/>
      <point x="543" y="-159"/>
      <point x="498" y="-171"/>
      <point x="435" y="-171" type="curve" smooth="yes"/>
      <point x="244" y="-171"/>
      <point x="113" y="-29"/>
      <point x="113" y="244" type="curve" smooth="yes"/>
      <point x="113" y="479"/>
      <point x="243" y="664"/>
      <point x="437" y="664" type="curve" smooth="yes"/>
      <point x="628" y="664"/>
      <point x="733" y="514"/>
      <point x="733" y="307" type="curve" smooth="yes"/>
      <point x="733" y="97"/>
      <point x="682" y="41"/>
      <point x="625" y="41" type="curve" smooth="yes"/>
      <point x="573" y="41"/>
      <point x="548" y="89"/>
      <point x="548" y="187" type="curve"/>
      <point x="524" y="149" type="line"/>
      <point x="531" y="72"/>
      <point x="560" y="15"/>
      <point x="625" y="15" type="curve" smooth="yes"/>
      <point x="696" y="15"/>
      <point x="764" y="80"/>
      <point x="764" y="309" type="curve" smooth="yes"/>
      <point x="764" y="522"/>
      <point x="650" y="692"/>
      <point x="437" y="692" type="curve" smooth="yes"/>
    </contour>
    <contour>
      <point x="343" y="478"/>
      <point x="268" y="402"/>
      <point x="268" y="232" type="curve" smooth="yes"/>
      <point x="268" y="88"/>
      <point x="327" y="17"/>
      <point x="405" y="17" type="curve" smooth="yes"/>
      <point x="466" y="17"/>
      <point x="506" y="61"/>
      <point x="532" y="132" type="curve"/>
      <point x="520" y="173" type="line"/>
      <point x="506" y="104"/>
      <point x="464" y="45"/>
      <point x="406" y="45" type="curve" smooth="yes"/>
      <point x="340" y="45"/>
      <point x="299" y="107"/>
      <point x="299" y="232" type="curve" smooth="yes"/>
      <point x="299" y="370"/>
      <point x="351" y="450"/>
      <point x="436" y="450" type="curve" smooth="yes"/>
      <point x="468" y="450"/>
      <point x="492" y="441"/>
      <point x="519" y="429" type="curve"/>
      <point x="519" y="161" type="line"/>
      <point x="532" y="132" type="line"/>
      <point x="548" y="172" type="line"/>
      <point x="548" y="444" type="line"/>
      <point x="516" y="462"/>
      <point x="477" y="478"/>
      <point x="435" y="478" type="curve" smooth="yes"/>
    </contour>
  </outline>
</glyph>
<glyph name="A" format="1">
  <advance width="471"/>
  <unicode hex="0041"/>
  <outline>
    <contour>
      <point x="216" y="682" type="line"/>
      <point x="25" y="0" type="line"/>
      <point x="54" y="0" type="line"/>
      <point x="235" y="657" type="line"/>
      <point x="415" y="0" type="line"/>
      <point x="446" y="0" type="line"/>
      <point x="255" y="682" type="line"/>
    </contour>
    <contour>
      <point x="110" y="227" type="line"/>
      <point x="100" y="199" type="line"/>
      <point x="369" y="199" type="line"/>
      <point x="360" y="227" type="line"/>
    </contour>
    <contour>
      <point x="454" y="0" type="move" name="ogonek"/>
    </contour>
    <contour>
      <point x="236" y="682" type="move" name="top"/>
    </contour>
    <contour>
      <point x="146" y="682" type="move" name="topleft"/>
    </contour>
    <contour>
      <point x="236" y="0" type="move" name="bottom"/>
    </contour>
  </outline>
</glyph>
<glyph name="B" format="1">
  <advance width="485"/>
  <unicode hex="0042"/>
  <outline>
    <contour>
      <point x="97" y="682" type="line"/>
      <point x="97" y="0" type="line"/>
      <point x="243" y="0" type="line" smooth="yes"/>
      <point x="365" y="0"/>
      <point x="437" y="67"/>
      <point x="437" y="185" type="curve" smooth="yes"/>
      <point x="437" y="304"/>
      <point x="376" y="352"/>
      <point x="293" y="362" type="curve"/>
      <point x="369" y="379"/>
      <point x="410" y="427"/>
      <point x="410" y="513" type="curve" smooth="yes"/>
      <point x="410" y="621"/>
      <point x="339" y="682"/>
      <point x="212" y="682" type="curve" smooth="yes"/>
    </contour>
    <contour>
      <point x="321" y="653"/>
      <point x="378" y="604"/>
      <point x="378" y="512" type="curve" smooth="yes"/>
      <point x="378" y="431"/>
      <point x="330" y="374"/>
      <point x="239" y="374" type="curve" smooth="yes"/>
      <point x="121" y="374" type="line"/>
      <point x="121" y="346" type="line"/>
      <point x="243" y="346" type="line" smooth="yes"/>
      <point x="348" y="346"/>
      <point x="405" y="295"/>
      <point x="405" y="185" type="curve" smooth="yes"/>
      <point x="405" y="81"/>
      <point x="346" y="29"/>
      <point x="244" y="29" type="curve" smooth="yes"/>
      <point x="128" y="29" type="line"/>
      <point x="128" y="653" type="line"/>
      <point x="216" y="653" type="line" smooth="yes"/>
    </contour>
    <contour>
      <point x="240" y="682" type="move" name="top"/>
    </contour>
    <contour>
      <point x="255" y="0" type="move" name="bottom"/>
    </contour>
  </outline>
</glyph>
<glyph name="C" format="1">
  <advance width="446"/>
  <unicode hex="0043"/>
  <outline>
    <contour>
      <point x="160" y="692"/>
      <point x="60" y="589"/>
      <point x="60" y="341" type="curve" smooth="yes"/>
      <point x="60" y="99"/>
      <point x="155" y="-10"/>
      <point x="282" y="-10" type="curve" smooth="yes"/>
      <point x="346" y="-10"/>
      <point x="391" y="17"/>
      <point x="426" y="54" type="curve"/>
      <point x="407" y="75" type="line"/>
      <point x="374" y="44"/>
      <point x="342" y="20"/>
      <point x="282" y="20" type="curve" smooth="yes"/>
      <point x="175" y="20"/>
      <point x="92" y="113"/>
      <point x="92" y="341" type="curve" smooth="yes"/>
      <point x="92" y="578"/>
      <point x="178" y="663"/>
      <point x="285" y="663" type="curve" smooth="yes"/>
      <point x="334" y="663"/>
      <point x="364" y="647"/>
      <point x="402" y="613" type="curve"/>
      <point x="420" y="633" type="line"/>
      <point x="383" y="669"/>
      <point x="344" y="692"/>
      <point x="283" y="692" type="curve" smooth="yes"/>
    </contour>
    <contour>
      <point x="270" y="344" type="move" name="center"/>
    </contour>
    <contour>
      <point x="280" y="0" type="move" name="bottom"/>
    </contour>
    <contour>
      <point x="281" y="682" type="move" name="top"/>
    </contour>
  </outline>
</glyph>
<glyph name="D" format="1">
  <advance width="513"/>
  <unicode hex="0044"/>
  <outline>
    <contour>
      <point x="97" y="682" type="line"/>
      <point x="97" y="0" type="line"/>
      <point x="208" y="0" type="line" smooth="yes"/>
      <point x="321" y="0"/>
      <point x="453" y="63"/>
      <point x="453" y="348" type="curve" smooth="yes"/>
      <point x="453" y="625"/>
      <point x="327" y="682"/>
      <point x="204" y="682" type="curve" smooth="yes"/>
    </contour>
    <contour>
      <point x="306" y="653"/>
      <point x="420" y="614"/>
      <point x="420" y="348" type="curve" smooth="yes"/>
      <point x="420" y="87"/>
      <point x="312" y="29"/>
      <point x="209" y="29" type="curve" smooth="yes"/>
      <point x="128" y="29" type="line"/>
      <point x="128" y="653" type="line"/>
      <point x="204" y="653" type="line" smooth="yes"/>
    </contour>
    <contour>
      <point x="261" y="341" type="move" name="center"/>
    </contour>
    <contour>
      <point x="246" y="0" type="move" name="bottom"/>
    </contour>
    <contour>
      <point x="244" y="682" type="move" name="top"/>
    </contour>
  </outline>
</glyph>
<glyph name="F" format="1">
  <advance width="389"/>
  <unicode hex="0046"/>
  <outline>
    <contour>
      <point x="128" y="0" type="line"/>
      <point x="128" y="331" type="line"/>
      <point x="329" y="331" type="line"/>
      <point x="329" y="359" type="line"/>
      <point x="128" y="359" type="line"/>
      <point x="128" y="653" type="line"/>
      <point x="361" y="653" type="line"/>
      <point x="365" y="682" type="line"/>
      <point x="97" y="682" type="line"/>
      <point x="97" y="0" type="line"/>
    </contour>
    <contour>
      <point x="239" y="682" type="move" name="top"/>
    </contour>
    <contour>
      <point x="113" y="0" type="move" name="bottom"/>
    </contour>
  </outline>
</glyph>
<glyph name="H" format="1">
  <advance width="545"/>
  <unicode hex="0048"/>
  <outline>
    <contour>
      <point x="448" y="0" type="line"/>
      <point x="448" y="682" type="line"/>
      <point x="417" y="682" type="line"/>
      <point x="417" y="373" type="line"/>
      <point x="128" y="373" type="line"/>
      <point x="128" y="682" type="line"/>
      <point x="97" y="682" type="line"/>
      <point x="97" y="0" type="line"/>
      <point x="128" y="0" type="line"/>
      <point x="128" y="345" type="line"/>
      <point x="417" y="345" type="line"/>
      <point x="417" y="0" type="line"/>
    </contour>
    <contour>
      <point x="273" y="0" type="move" name="bottom"/>
    </contour>
    <contour>
      <point x="271" y="682" type="move" name="top"/>
    </contour>
    <contour>
      <point x="74" y="682" type="move" name="topleft"/>
    </contour>
    <contour>
      <point x="456" y="0" type="move" name="bottomright"/>
    </contour>
    <contour>
      <point x="271" y="341" type="move" name="center"/>
    </contour>
  </outline>
</glyph>
<glyph name="I" format="1">
  <advance width="225"/>
  <unicode hex="0049"/>
  <outline>
    <contour>
      <point x="97" y="682" type="line"/>
      <point x="97" y="0" type="line"/>
      <point x="128" y="0" type="line"/>
      <point x="128" y="682" type="line"/>
    </contour>
    <contour>
      <point x="136" y="0" type="move" name="ogonek"/>
    </contour>
    <contour>
      <point x="112" y="682" type="move" name="top"/>
    </contour>
    <contour>
      <point x="74" y="682" type="move" name="topleft"/>
    </contour>
    <contour>
      <point x="113" y="0" type="move" name="bottom"/>
    </contour>
  </outline>
</glyph>
<glyph name="J" format="1">
  <advance width="231"/>
  <unicode hex="004A"/>
  <outline>
    <contour>
      <point x="108" y="682" type="line"/>
      <point x="108" y="90" type="line" smooth="yes"/>
      <point x="108" y="-4"/>
      <point x="90" y="-36"/>
      <point x="15" y="-82" type="curve"/>
      <point x="24" y="-104" type="line"/>
      <point x="116" y="-54"/>
      <point x="139" y="-15"/>
      <point x="139" y="88" type="curve" smooth="yes"/>
      <point x="139" y="682" type="line"/>
    </contour>
    <contour>
      <point x="122" y="682" type="move" name="top"/>
    </contour>
    <contour>
      <point x="115" y="-193" type="move" name="bottom"/>
    </contour>
  </outline>
</glyph>
<glyph name="K" format="1">
  <advance width="438"/>
  <unicode hex="004B"/>
  <outline>
    <contour>
      <point x="380" y="682" type="line"/>
      <point x="131" y="367" type="line"/>
      <point x="393" y="0" type="line"/>
      <point x="428" y="0" type="line"/>
      <point x="167" y="367" type="line"/>
      <point x="414" y="682" type="line"/>
    </contour>
    <contour>
      <point x="97" y="682" type="line"/>
      <point x="97" y="0" type="line"/>
      <point x="128" y="0" type="line"/>
      <point x="128" y="682" type="line"/>
    </contour>
    <contour>
      <point x="241" y="682" type="move" name="top"/>
    </contour>
    <contour>
      <point x="248" y="0" type="move" name="bottom"/>
    </contour>
  </outline>
</glyph>
<glyph name="L" format="1">
  <advance width="380"/>
  <unicode hex="004C"/>
  <outline>
    <contour>
      <point x="97" y="682" type="line"/>
      <point x="97" y="0" type="line"/>
      <point x="359" y="0" type="line"/>
      <point x="364" y="30" type="line"/>
      <point x="128" y="30" type="line"/>
      <point x="128" y="682" type="line"/>
    </contour>
    <contour>
      <point x="231" y="0" type="move" name="bottom"/>
    </contour>
    <contour>
      <point x="113" y="682" type="move" name="top"/>
    </contour>
    <contour>
      <point x="152" y="682" type="move" name="topright"/>
    </contour>
    <contour>
      <point x="292" y="354" type="move" name="center"/>
    </contour>
  </outline>
</glyph>
<glyph name="M" format="1">
  <advance width="631"/>
  <unicode hex="004D"/>
  <outline>
    <contour>
      <point x="465" y="682" type="line"/>
      <point x="316" y="122" type="line"/>
      <point x="164" y="682" type="line"/>
      <point x="119" y="682" type="line"/>
      <point x="62" y="0" type="line"/>
      <point x="91" y="0" type="line"/>
      <point x="118" y="351" type="line"/>
      <point x="127" y="459"/>
      <point x="139" y="596"/>
      <point x="142" y="654" type="curve"/>
      <point x="300" y="83" type="line"/>
      <point x="331" y="83" type="line"/>
      <point x="485" y="654" type="line"/>
      <point x="490" y="587"/>
      <point x="500" y="454"/>
      <point x="510" y="342" type="curve" smooth="yes"/>
      <point x="540" y="0" type="line"/>
      <point x="569" y="0" type="line"/>
      <point x="510" y="682" type="line"/>
    </contour>
    <contour>
      <point x="315" y="682" type="move" name="top"/>
    </contour>
    <contour>
      <point x="316" y="0" type="move" name="bottom"/>
    </contour>
    <contour>
      <point x="577" y="0" type="move" name="bottomright"/>
    </contour>
  </outline>
</glyph>
<glyph name="N" format="1">
  <advance width="547"/>
  <unicode hex="004E"/>
  <outline>
    <contour>
      <point x="420" y="682" type="line"/>
      <point x="420" y="232" type="line"/>
      <point x="420" y="140"/>
      <point x="423" y="76"/>
      <point x="424" y="36" type="curve"/>
      <point x="137" y="682" type="line"/>
      <point x="97" y="682" type="line"/>
      <point x="97" y="0" type="line"/>
      <point x="127" y="0" type="line"/>
      <point x="127" y="438" type="line"/>
      <point x="127" y="557"/>
      <point x="125" y="607"/>
      <point x="123" y="646" type="curve"/>
      <point x="410" y="0" type="line"/>
      <point x="450" y="0" type="line"/>
      <point x="450" y="682" type="line"/>
    </contour>
    <contour>
      <point x="280" y="682" type="move" name="top"/>
    </contour>
    <contour>
      <point x="274" y="0" type="move" name="bottom"/>
    </contour>
  </outline>
</glyph>
<glyph name="Q" format="1">
  <advance width="566"/>
  <unicode hex="0051"/>
  <outline>
    <contour>
      <point x="152" y="692"/>
      <point x="60" y="575"/>
      <point x="60" y="339" type="curve" smooth="yes"/>
      <point x="60" y="104"/>
      <point x="151" y="-8"/>
      <point x="283" y="-8" type="curve" smooth="yes"/>
      <point x="295" y="-8"/>
      <point x="307" y="-7"/>
      <point x="319" y="-5" type="curve"/>
      <point x="356" y="11" type="line"/>
      <point x="440" y="40"/>
      <point x="506" y="126"/>
      <point x="506" y="340" type="curve" smooth="yes"/>
      <point x="506" y="581"/>
      <point x="416" y="692"/>
      <point x="283" y="692" type="curve" smooth="yes"/>
    </contour>
    <contour>
      <point x="283" y="-8" type="line"/>
      <point x="382" y="-8"/>
      <point x="443" y="-22"/>
      <point x="503" y="-84" type="curve"/>
      <point x="525" y="-61" type="line"/>
      <point x="476" y="-7"/>
      <point x="416" y="9"/>
      <point x="356" y="11" type="curve"/>
    </contour>
    <contour>
      <point x="398" y="663"/>
      <point x="474" y="566"/>
      <point x="474" y="340" type="curve" smooth="yes"/>
      <point x="474" y="119"/>
      <point x="402" y="19"/>
      <point x="283" y="19" type="curve" smooth="yes"/>
      <point x="171" y="19"/>
      <point x="92" y="119"/>
      <point x="92" y="339" type="curve" smooth="yes"/>
      <point x="92" y="564"/>
      <point x="170" y="663"/>
      <point x="283" y="663" type="curve"/>
    </contour>
    <contour>
      <point x="277" y="682" type="move" name="top"/>
    </contour>
    <contour>
      <point x="277" y="0" type="move" name="bottom"/>
    </contour>
  </outline>
</glyph>
<glyph name="R" format="1">
  <advance width="475"/>
  <unicode hex="0052"/>
  <outline>
    <contour>
      <point x="97" y="682" type="line"/>
      <point x="97" y="0" type="line"/>
      <point x="128" y="0" type="line"/>
      <point x="128" y="653" type="line"/>
      <point x="203" y="653" type="line" smooth="yes"/>
      <point x="340" y="653"/>
      <point x="383" y="599"/>
      <point x="383" y="503" type="curve" smooth="yes"/>
      <point x="383" y="397"/>
      <point x="327" y="349"/>
      <point x="211" y="349" type="curve" smooth="yes"/>
      <point x="121" y="349" type="line"/>
      <point x="121" y="320" type="line"/>
      <point x="216" y="320" type="line" smooth="yes"/>
      <point x="341" y="320"/>
      <point x="416" y="385"/>
      <point x="416" y="503" type="curve" smooth="yes"/>
      <point x="416" y="615"/>
      <point x="357" y="682"/>
      <point x="206" y="682" type="curve" smooth="yes"/>
    </contour>
    <contour>
      <point x="254" y="327" type="line"/>
      <point x="410" y="0" type="line"/>
      <point x="444" y="0" type="line"/>
      <point x="286" y="332" type="line"/>
    </contour>
    <contour>
      <point x="234" y="682" type="move" name="top"/>
    </contour>
    <contour>
      <point x="251" y="0" type="move" name="bottom"/>
    </contour>
  </outline>
</glyph>
<glyph name="S" format="1">
  <advance width="439"/>
  <unicode hex="0053"/>
  <outline>
    <contour>
      <point x="125" y="692"/>
      <point x="61" y="618"/>
      <point x="61" y="533" type="curve" smooth="yes"/>
      <point x="61" y="448"/>
      <point x="103" y="399"/>
      <point x="217" y="354" type="curve" smooth="yes"/>
      <point x="320" y="313"/>
      <point x="357" y="273"/>
      <point x="357" y="182" type="curve" smooth="yes"/>
      <point x="357" y="87"/>
      <point x="299" y="19"/>
      <point x="210" y="19" type="curve" smooth="yes"/>
      <point x="142" y="19"/>
      <point x="100" y="49"/>
      <point x="59" y="91" type="curve"/>
      <point x="39" y="73" type="line"/>
      <point x="84" y="23"/>
      <point x="137" y="-10"/>
      <point x="211" y="-10" type="curve" smooth="yes"/>
      <point x="314" y="-10"/>
      <point x="388" y="73"/>
      <point x="388" y="183" type="curve" smooth="yes"/>
      <point x="388" y="289"/>
      <point x="336" y="338"/>
      <point x="228" y="380" type="curve" smooth="yes"/>
      <point x="129" y="418"/>
      <point x="92" y="457"/>
      <point x="92" y="533" type="curve" smooth="yes"/>
      <point x="92" y="606"/>
      <point x="142" y="663"/>
      <point x="218" y="663" type="curve" smooth="yes"/>
      <point x="273" y="663"/>
      <point x="309" y="644"/>
      <point x="351" y="601" type="curve"/>
      <point x="371" y="620" type="line"/>
      <point x="329" y="664"/>
      <point x="288" y="692"/>
      <point x="218" y="692" type="curve" smooth="yes"/>
    </contour>
    <contour>
      <point x="221" y="682" type="move" name="top"/>
    </contour>
    <contour>
      <point x="215" y="0" type="move" name="bottom"/>
    </contour>
  </outline>
</glyph>
<glyph name="T" format="1">
  <advance width="394"/>
  <unicode hex="0054"/>
  <outline>
    <contour>
      <point x="12" y="682" type="line"/>
      <point x="12" y="653" type="line"/>
      <point x="182" y="653" type="line"/>
      <point x="182" y="0" type="line"/>
      <point x="213" y="0" type="line"/>
      <point x="213" y="653" type="line"/>
      <point x="382" y="653" type="line"/>
      <point x="386" y="682" type="line"/>
    </contour>
    <contour>
      <point x="197" y="0" type="move" name="bottom"/>
    </contour>
    <contour>
      <point x="197" y="682" type="move" name="top"/>
    </contour>
    <contour>
      <point x="225" y="0" type="move" name="bottomright"/>
    </contour>
    <contour>
      <point x="197" y="348" type="move" name="center"/>
    </contour>
  </outline>
</glyph>
<glyph name="U" format="1">
  <advance width="526"/>
  <unicode hex="0055"/>
  <outline>
    <contour>
      <point x="408" y="682" type="line"/>
      <point x="408" y="176" type="line" smooth="yes"/>
      <point x="408" y="89"/>
      <point x="366" y="19"/>
      <point x="263" y="19" type="curve" smooth="yes"/>
      <point x="161" y="19"/>
      <point x="118" y="86"/>
      <point x="118" y="176" type="curve" smooth="yes"/>
      <point x="118" y="682" type="line"/>
      <point x="87" y="682" type="line"/>
      <point x="87" y="173" type="line" smooth="yes"/>
      <point x="87" y="73"/>
      <point x="141" y="-10"/>
      <point x="263" y="-10" type="curve" smooth="yes"/>
      <point x="385" y="-10"/>
      <point x="439" y="73"/>
      <point x="439" y="173" type="curve" smooth="yes"/>
      <point x="439" y="682" type="line"/>
    </contour>
    <contour>
      <point x="334" y="0" type="move" name="ogonek"/>
    </contour>
    <contour>
      <point x="263" y="682" type="move" name="top"/>
    </contour>
    <contour>
      <point x="447" y="682" type="move" name="topright"/>
    </contour>
    <contour>
      <point x="263" y="0" type="move" name="bottom"/>
    </contour>
  </outline>
</glyph>
<glyph name="V" format="1">
  <advance width="455"/>
  <unicode hex="0056"/>
  <outline>
    <contour>
      <point x="399" y="682" type="line"/>
      <point x="228" y="30" type="line"/>
      <point x="56" y="682" type="line"/>
      <point x="25" y="682" type="line"/>
      <point x="209" y="0" type="line"/>
      <point x="246" y="0" type="line"/>
      <point x="430" y="682" type="line"/>
    </contour>
    <contour>
      <point x="228" y="682" type="move" name="top"/>
    </contour>
    <contour>
      <point x="228" y="0" type="move" name="bottom"/>
    </contour>
  </outline>
</glyph>
<glyph name="W" format="1">
  <advance width="664"/>
  <unicode hex="0057"/>
  <outline>
    <contour>
      <point x="602" y="682" type="line"/>
      <point x="484" y="33" type="line"/>
      <point x="351" y="682" type="line"/>
      <point x="312" y="682" type="line"/>
      <point x="181" y="33" type="line"/>
      <point x="63" y="682" type="line"/>
      <point x="32" y="682" type="line"/>
      <point x="161" y="0" type="line"/>
      <point x="199" y="0" type="line"/>
      <point x="332" y="651" type="line"/>
      <point x="464" y="0" type="line"/>
      <point x="503" y="0" type="line"/>
      <point x="632" y="682" type="line"/>
    </contour>
    <contour>
      <point x="332" y="682" type="move" name="top"/>
    </contour>
    <contour>
      <point x="332" y="0" type="move" name="bottom"/>
    </contour>
  </outline>
</glyph>
<glyph name="X" format="1">
  <advance width="407"/>
  <unicode hex="0058"/>
  <outline>
    <contour>
      <point x="29" y="682" type="line"/>
      <point x="182" y="369" type="line"/>
      <point x="201" y="349" type="line"/>
      <point x="364" y="0" type="line"/>
      <point x="396" y="0" type="line"/>
      <point x="220" y="370" type="line"/>
      <point x="201" y="389" type="line"/>
      <point x="61" y="682" type="line"/>
    </contour>
    <contour>
      <point x="339" y="682" type="line"/>
      <point x="201" y="389" type="line"/>
      <point x="182" y="369" type="line"/>
      <point x="11" y="0" type="line"/>
      <point x="43" y="0" type="line"/>
      <point x="201" y="349" type="line"/>
      <point x="220" y="370" type="line"/>
      <point x="371" y="682" type="line"/>
    </contour>
    <contour>
      <point x="202" y="682" type="move" name="top"/>
    </contour>
    <contour>
      <point x="202" y="0" type="move" name="bottom"/>
    </contour>
    <contour>
      <point x="376" y="0" type="move" name="bottomright"/>
    </contour>
  </outline>
</glyph>
<glyph name="Y" format="1">
  <advance width="414"/>
  <unicode hex="0059"/>
  <outline>
    <contour>
      <point x="367" y="682" type="line"/>
      <point x="209" y="299" type="line"/>
      <point x="48" y="682" type="line"/>
      <point x="15" y="682" type="line"/>
      <point x="193" y="269" type="line"/>
      <point x="193" y="0" type="line"/>
      <point x="224" y="0" type="line"/>
      <point x="224" y="270" type="line"/>
      <point x="399" y="682" type="line"/>
    </contour>
    <contour>
      <point x="207" y="682" type="move" name="top"/>
    </contour>
    <contour>
      <point x="209" y="0" type="move" name="bottom"/>
    </contour>
    <contour>
      <point x="11" y="682" type="move" name="topleft"/>
    </contour>
  </outline>
</glyph>
<glyph name="Z" format="1">
  <advance width="420"/>
  <unicode hex="005A"/>
  <outline>
    <contour>
      <point x="63" y="682" type="line"/>
      <point x="63" y="653" type="line"/>
      <point x="347" y="653" type="line"/>
      <point x="32" y="28" type="line"/>
      <point x="32" y="0" type="line"/>
      <point x="367" y="0" type="line"/>
      <point x="371" y="30" type="line"/>
      <point x="64" y="30" type="line"/>
      <point x="379" y="655" type="line"/>
      <point x="379" y="682" type="line"/>
    </contour>
    <contour>
      <point x="211" y="682" type="move" name="top"/>
    </contour>
    <contour>
      <point x="212" y="0" type="move" name="bottom"/>
    </contour>
  </outline>
</glyph>
<glyph name="bracketright" format="1">
  <advance width="258"/>
  <unicode hex="005D"/>
  <outline>
    <contour>
      <point x="63" y="799" type="line"/>
      <point x="63" y="774" type="line"/>
      <point x="151" y="774" type="line"/>
      <point x="151" y="-84" type="line"/>
      <point x="63" y="-84" type="line"/>
      <point x="63" y="-109" type="line"/>
      <point x="179" y="-109" type="line"/>
      <point x="179" y="799" type="line"/>
    </contour>
  </outline>
</glyph>
<glyph name="asciicircum" format="1">
  <advance width="431"/>
  <unicode hex="005E"/>
  <outline>
    <contour>
      <point x="204" y="826" type="line"/>
      <point x="55" y="527" type="line"/>
      <point x="91" y="527" type="line"/>
      <point x="215" y="788" type="line"/>
      <point x="338" y="527" type="line"/>
      <point x="376" y="527" type="line"/>
      <point x="227" y="826" type="line"/>
    </contour>
  </outline>
</glyph>
<glyph name="a" format="1">
  <advance width="437"/>
  <unicode hex="0061"/>
  <outline>
    <contour>
      <point x="168" y="530"/>
      <point x="126" y="517"/>
      <point x="83" y="496" type="curve"/>
      <point x="94" y="473" type="line"/>
      <point x="135" y="492"/>
      <point x="173" y="503"/>
      <point x="215" y="503" type="curve" smooth="yes"/>
      <point x="288" y="503"/>
      <point x="315" y="458"/>
      <point x="315" y="379" type="curve"/>
      <point x="315" y="112" type="line"/>
      <point x="318" y="88" type="line"/>
      <point x="318" y="31"/>
      <point x="335" y="3"/>
      <point x="374" y="-10" type="curve"/>
      <point x="381" y="11" type="line"/>
      <point x="356" y="23"/>
      <point x="345" y="43"/>
      <point x="345" y="90" type="curve" smooth="yes"/>
      <point x="345" y="382" type="line" smooth="yes"/>
      <point x="345" y="476"/>
      <point x="304" y="530"/>
      <point x="216" y="530" type="curve" smooth="yes"/>
    </contour>
    <contour>
      <point x="232" y="309" type="line" smooth="yes"/>
      <point x="120" y="309"/>
      <point x="52" y="251"/>
      <point x="52" y="144" type="curve" smooth="yes"/>
      <point x="52" y="52"/>
      <point x="101" y="-10"/>
      <point x="183" y="-10" type="curve" smooth="yes"/>
      <point x="248" y="-10"/>
      <point x="292" y="25"/>
      <point x="324" y="92" type="curve"/>
      <point x="318" y="130" type="line"/>
      <point x="291" y="61"/>
      <point x="248" y="18"/>
      <point x="184" y="18" type="curve" smooth="yes"/>
      <point x="123" y="18"/>
      <point x="84" y="61"/>
      <point x="84" y="144" type="curve" smooth="yes"/>
      <point x="84" y="237"/>
      <point x="134" y="282"/>
      <point x="234" y="282" type="curve" smooth="yes"/>
      <point x="321" y="282" type="line"/>
      <point x="321" y="309" type="line"/>
    </contour>
    <contour>
      <point x="382" y="-10" type="move" name="ogonek"/>
    </contour>
    <contour>
      <point x="211" y="0" type="move" name="bottom"/>
    </contour>
    <contour>
      <point x="215" y="520" type="move" name="top"/>
    </contour>
  </outline>
</glyph>
<glyph name="c" format="1">
  <advance width="374"/>
  <unicode hex="0063"/>
  <outline>
    <contour>
      <point x="127" y="530"/>
      <point x="56" y="440"/>
      <point x="56" y="257" type="curve" smooth="yes"/>
      <point x="56" y="75"/>
      <point x="127" y="-10"/>
      <point x="234" y="-10" type="curve" smooth="yes"/>
      <point x="281" y="-10"/>
      <point x="320" y="11"/>
      <point x="352" y="44" type="curve"/>
      <point x="335" y="62" type="line"/>
      <point x="308" y="36"/>
      <point x="275" y="18"/>
      <point x="233" y="18" type="curve" smooth="yes"/>
      <point x="148" y="18"/>
      <point x="88" y="85"/>
      <point x="88" y="257" type="curve" smooth="yes"/>
      <point x="88" y="433"/>
      <point x="150" y="502"/>
      <point x="234" y="502" type="curve" smooth="yes"/>
      <point x="275" y="502"/>
      <point x="303" y="487"/>
      <point x="330" y="460" type="curve"/>
      <point x="347" y="480" type="line"/>
      <point x="313" y="515"/>
      <point x="279" y="530"/>
      <point x="234" y="530" type="curve" smooth="yes"/>
    </contour>
    <contour>
      <point x="232" y="520" type="move" name="top"/>
    </contour>
    <contour>
      <point x="232" y="0" type="move" name="bottom"/>
    </contour>
  </outline>
</glyph>
<glyph name="e" format="1">
  <advance width="434"/>
  <unicode hex="0065"/>
  <outline>
    <contour>
      <point x="124" y="530"/>
      <point x="56" y="440"/>
      <point x="56" y="256" type="curve" smooth="yes"/>
      <point x="56" y="78"/>
      <point x="126" y="-10"/>
      <point x="233" y="-10" type="curve" smooth="yes"/>
      <point x="287" y="-10"/>
      <point x="327" y="13"/>
      <point x="366" y="52" type="curve"/>
      <point x="347" y="70" type="line"/>
      <point x="312" y="38"/>
      <point x="282" y="18"/>
      <point x="232" y="18" type="curve" smooth="yes"/>
      <point x="150" y="18"/>
      <point x="89" y="81"/>
      <point x="87" y="256" type="curve"/>
      <point x="87" y="438"/>
      <point x="149" y="502"/>
      <point x="225" y="502" type="curve" smooth="yes"/>
      <point x="313" y="502"/>
      <point x="353" y="426"/>
      <point x="353" y="294" type="curve" smooth="yes"/>
      <point x="353" y="280"/>
      <point x="353" y="276"/>
      <point x="353" y="270" type="curve"/>
      <point x="82" y="270" type="line"/>
      <point x="82" y="244" type="line"/>
      <point x="381" y="244" type="line"/>
      <point x="382" y="253"/>
      <point x="383" y="268"/>
      <point x="383" y="283" type="curve" smooth="yes"/>
      <point x="383" y="442"/>
      <point x="330" y="530"/>
      <point x="225" y="530" type="curve" smooth="yes"/>
    </contour>
    <contour>
      <point x="309" y="5" type="move" name="ogonek"/>
    </contour>
    <contour>
      <point x="235" y="0" type="move" name="bottom"/>
    </contour>
    <contour>
      <point x="225" y="520" type="move" name="top"/>
    </contour>
  </outline>
</glyph>
<glyph name="f" format="1">
  <advance width="256"/>
  <unicode hex="0066"/>
  <outline>
    <contour>
      <point x="140" y="738"/>
      <point x="96" y="698"/>
      <point x="96" y="627" type="curve" smooth="yes"/>
      <point x="96" y="0" type="line"/>
      <point x="126" y="0" type="line"/>
      <point x="126" y="623" type="line" smooth="yes"/>
      <point x="126" y="687"/>
      <point x="158" y="710"/>
      <point x="207" y="710" type="curve" smooth="yes"/>
      <point x="237" y="710"/>
      <point x="261" y="702"/>
      <point x="289" y="686" type="curve"/>
      <point x="302" y="709" type="line"/>
      <point x="273" y="727"/>
      <point x="240" y="738"/>
      <point x="205" y="738" type="curve" smooth="yes"/>
    </contour>
    <contour>
      <point x="23" y="520" type="line"/>
      <point x="23" y="493" type="line"/>
      <point x="239" y="493" type="line"/>
      <point x="244" y="520" type="line"/>
    </contour>
    <contour>
      <point x="206" y="734" type="move" name="top"/>
    </contour>
    <contour>
      <point x="111" y="0" type="move" name="bottom"/>
    </contour>
  </outline>
</glyph>
<glyph name="h" format="1">
  <advance width="478"/>
  <unicode hex="0068"/>
  <outline>
    <contour>
      <point x="390" y="0" type="line"/>
      <point x="390" y="380" type="line" smooth="yes"/>
      <point x="390" y="472"/>
      <point x="351" y="530"/>
      <point x="274" y="530" type="curve" smooth="yes"/>
      <point x="200" y="530"/>
      <point x="153" y="475"/>
      <point x="115" y="407" type="curve"/>
      <point x="123" y="379" type="line"/>
      <point x="162" y="453"/>
      <point x="209" y="503"/>
      <point x="271" y="503" type="curve" smooth="yes"/>
      <point x="330" y="503"/>
      <point x="360" y="459"/>
      <point x="360" y="376" type="curve" smooth="yes"/>
      <point x="360" y="0" type="line"/>
    </contour>
    <contour>
      <point x="123" y="0" type="line"/>
      <point x="123" y="739" type="line"/>
      <point x="93" y="734" type="line"/>
      <point x="93" y="0" type="line"/>
    </contour>
    <contour>
      <point x="243" y="260" type="move" name="center"/>
    </contour>
    <contour>
      <point x="242" y="0" type="move" name="bottom"/>
    </contour>
    <contour>
      <point x="243" y="734" type="move" name="top"/>
    </contour>
  </outline>
</glyph>
<glyph name="k" format="1">
  <advance width="388"/>
  <unicode hex="006B"/>
  <outline>
    <contour>
      <point x="323" y="520" type="line"/>
      <point x="128" y="284" type="line"/>
      <point x="343" y="0" type="line"/>
      <point x="378" y="0" type="line"/>
      <point x="163" y="285" type="line"/>
      <point x="358" y="520" type="line"/>
    </contour>
    <contour>
      <point x="93" y="734" type="line"/>
      <point x="93" y="0" type="line"/>
      <point x="123" y="0" type="line"/>
      <point x="123" y="738" type="line"/>
    </contour>
    <contour>
      <point x="215" y="734" type="move" name="top"/>
    </contour>
    <contour>
      <point x="219" y="0" type="move" name="bottom"/>
    </contour>
  </outline>
</glyph>
<glyph name="l" format="1">
  <advance width="228"/>
  <unicode hex="006C"/>
  <outline>
    <contour>
      <point x="170" y="-10"/>
      <point x="186" y="-5"/>
      <point x="197" y="1" type="curve"/>
      <point x="188" y="24" type="line"/>
      <point x="178" y="20"/>
      <point x="168" y="17"/>
      <point x="157" y="17" type="curve" smooth="yes"/>
      <point x="131" y="17"/>
      <point x="118" y="34"/>
      <point x="118" y="66" type="curve" smooth="yes"/>
      <point x="118" y="738" type="line"/>
      <point x="88" y="734" type="line"/>
      <point x="88" y="65" type="line" smooth="yes"/>
      <point x="88" y="16"/>
      <point x="116" y="-10"/>
      <point x="155" y="-10" type="curve" smooth="yes"/>
    </contour>
    <contour>
      <point x="146" y="0" type="move" name="bottom"/>
    </contour>
    <contour>
      <point x="103" y="734" type="move" name="top"/>
    </contour>
    <contour>
      <point x="141" y="734" type="move" name="topright"/>
    </contour>
    <contour>
      <point x="217" y="375" type="move" name="center"/>
    </contour>
  </outline>
</glyph>
<glyph name="m" format="1">
  <advance width="697"/>
  <unicode hex="006D"/>
  <outline>
    <contour>
      <point x="195" y="530"/>
      <point x="148" y="480"/>
      <point x="115" y="412" type="curve"/>
      <point x="123" y="383" type="line"/>
      <point x="158" y="453"/>
      <point x="201" y="503"/>
      <point x="255" y="503" type="curve" smooth="yes"/>
      <point x="307" y="503"/>
      <point x="336" y="457"/>
      <point x="336" y="376" type="curve" smooth="yes"/>
      <point x="336" y="0" type="line"/>
      <point x="366" y="0" type="line"/>
      <point x="366" y="393" type="line"/>
      <point x="364" y="410" type="line"/>
      <point x="356" y="484"/>
      <point x="317" y="530"/>
      <point x="256" y="530" type="curve" smooth="yes"/>
    </contour>
    <contour>
      <point x="93" y="520" type="line"/>
      <point x="93" y="0" type="line"/>
      <point x="123" y="0" type="line"/>
      <point x="123" y="389" type="line"/>
      <point x="119" y="520" type="line"/>
    </contour>
    <contour>
      <point x="437" y="530"/>
      <point x="391" y="480"/>
      <point x="358" y="412" type="curve"/>
      <point x="366" y="383" type="line"/>
      <point x="401" y="453"/>
      <point x="444" y="503"/>
      <point x="498" y="503" type="curve" smooth="yes"/>
      <point x="550" y="503"/>
      <point x="579" y="457"/>
      <point x="579" y="376" type="curve" smooth="yes"/>
      <point x="579" y="0" type="line"/>
      <point x="609" y="0" type="line"/>
      <point x="609" y="380" type="line" smooth="yes"/>
      <point x="609" y="470"/>
      <point x="569" y="530"/>
      <point x="499" y="530" type="curve" smooth="yes"/>
    </contour>
    <contour>
      <point x="349" y="520" type="move" name="top"/>
    </contour>
    <contour>
      <point x="349" y="0" type="move" name="bottom"/>
    </contour>
  </outline>
</glyph>
<glyph name="n" format="1">
  <advance width="478"/>
  <unicode hex="006E"/>
  <outline>
    <contour>
      <point x="201" y="530"/>
      <point x="153" y="480"/>
      <point x="115" y="408" type="curve"/>
      <point x="123" y="379" type="line"/>
      <point x="162" y="453"/>
      <point x="210" y="503"/>
      <point x="271" y="503" type="curve" smooth="yes"/>
      <point x="330" y="503"/>
      <point x="360" y="459"/>
      <point x="360" y="376" type="curve" smooth="yes"/>
      <point x="360" y="0" type="line"/>
      <point x="390" y="0" type="line"/>
      <point x="390" y="380" type="line" smooth="yes"/>
      <point x="390" y="472"/>
      <point x="351" y="530"/>
      <point x="274" y="530" type="curve" smooth="yes"/>
    </contour>
    <contour>
      <point x="93" y="520" type="line"/>
      <point x="93" y="0" type="line"/>
      <point x="123" y="0" type="line"/>
      <point x="123" y="389" type="line"/>
      <point x="119" y="520" type="line"/>
    </contour>
    <contour>
      <point x="244" y="520" type="move" name="top"/>
    </contour>
    <contour>
      <point x="238" y="0" type="move" name="bottom"/>
    </contour>
    <contour>
      <point x="85" y="520" type="move" name="topleft"/>
    </contour>
  </outline>
</glyph>
<glyph name="q" format="1">
  <advance width="470"/>
  <unicode hex="0071"/>
  <outline>
    <contour>
      <point x="347" y="-193" type="line"/>
      <point x="377" y="-199" type="line"/>
      <point x="377" y="520" type="line"/>
      <point x="351" y="520" type="line"/>
      <point x="348" y="445" type="line"/>
      <point x="347" y="418" type="line"/>
    </contour>
    <contour>
      <point x="120" y="530"/>
      <point x="56" y="425"/>
      <point x="56" y="258" type="curve" smooth="yes"/>
      <point x="56" y="86"/>
      <point x="120" y="-10"/>
      <point x="220" y="-10" type="curve" smooth="yes"/>
      <point x="288" y="-10"/>
      <point x="328" y="39"/>
      <point x="350" y="84" type="curve"/>
      <point x="352" y="134" type="line"/>
      <point x="321" y="63"/>
      <point x="281" y="18"/>
      <point x="219" y="18" type="curve" smooth="yes"/>
      <point x="139" y="18"/>
      <point x="89" y="101"/>
      <point x="88" y="258" type="curve" smooth="yes"/>
      <point x="87" y="419"/>
      <point x="144" y="502"/>
      <point x="224" y="502" type="curve" smooth="yes"/>
      <point x="290" y="502"/>
      <point x="327" y="455"/>
      <point x="353" y="403" type="curve"/>
      <point x="356" y="443" type="line"/>
      <point x="331" y="487"/>
      <point x="293" y="530"/>
      <point x="224" y="530" type="curve" smooth="yes"/>
    </contour>
    <contour>
      <point x="234" y="520" type="move" name="top"/>
    </contour>
    <contour>
      <point x="234" y="-193" type="move" name="bottom"/>
    </contour>
  </outline>
</glyph>
<glyph name="r" format="1">
  <advance width="300"/>
  <unicode hex="0072"/>
  <outline>
    <contour>
      <point x="176" y="530"/>
      <point x="137" y="480"/>
      <point x="113" y="381" type="curve"/>
      <point x="118" y="321" type="line"/>
      <point x="144" y="439"/>
      <point x="178" y="504"/>
      <point x="246" y="504" type="curve" smooth="yes"/>
      <point x="260" y="504"/>
      <point x="271" y="502"/>
      <point x="282" y="499" type="curve"/>
      <point x="288" y="524" type="line"/>
      <point x="278" y="527"/>
      <point x="265" y="530"/>
      <point x="247" y="530" type="curve" smooth="yes"/>
    </contour>
    <contour>
      <point x="93" y="520" type="line"/>
      <point x="93" y="0" type="line"/>
      <point x="123" y="0" type="line"/>
      <point x="123" y="346" type="line"/>
      <point x="121" y="384" type="line"/>
      <point x="119" y="520" type="line"/>
    </contour>
    <contour>
      <point x="189" y="520" type="move" name="top"/>
    </contour>
    <contour>
      <point x="107" y="0" type="move" name="bottom"/>
    </contour>
  </outline>
</glyph>
<glyph name="s" format="1">
  <advance width="379"/>
  <unicode hex="0073"/>
  <outline>
    <contour>
      <point x="115" y="530"/>
      <point x="55" y="476"/>
      <point x="55" y="400" type="curve" smooth="yes"/>
      <point x="55" y="334"/>
      <point x="91" y="299"/>
      <point x="182" y="265" type="curve" smooth="yes"/>
      <point x="275" y="230"/>
      <point x="302" y="202"/>
      <point x="302" y="135" type="curve" smooth="yes"/>
      <point x="302" y="58"/>
      <point x="252" y="17"/>
      <point x="187" y="17" type="curve" smooth="yes"/>
      <point x="130" y="17"/>
      <point x="95" y="38"/>
      <point x="57" y="74" type="curve"/>
      <point x="39" y="56" type="line"/>
      <point x="76" y="18"/>
      <point x="119" y="-10"/>
      <point x="187" y="-10" type="curve" smooth="yes"/>
      <point x="271" y="-10"/>
      <point x="332" y="49"/>
      <point x="332" y="135" type="curve" smooth="yes"/>
      <point x="332" y="215"/>
      <point x="292" y="251"/>
      <point x="197" y="287" type="curve" smooth="yes"/>
      <point x="115" y="318"/>
      <point x="85" y="345"/>
      <point x="85" y="399" type="curve" smooth="yes"/>
      <point x="85" y="464"/>
      <point x="130" y="503"/>
      <point x="191" y="503" type="curve" smooth="yes"/>
      <point x="237" y="503"/>
      <point x="267" y="487"/>
      <point x="304" y="453" type="curve"/>
      <point x="321" y="473" type="line"/>
      <point x="281" y="512"/>
      <point x="241" y="530"/>
      <point x="190" y="530" type="curve" smooth="yes"/>
    </contour>
    <contour>
      <point x="194" y="520" type="move" name="top"/>
    </contour>
    <contour>
      <point x="189" y="0" type="move" name="bottom"/>
    </contour>
  </outline>
</glyph>
<glyph name="u" format="1">
  <advance width="474"/>
  <unicode hex="0075"/>
  <outline>
    <contour>
      <point x="351" y="520" type="line"/>
      <point x="351" y="138" type="line"/>
      <point x="318" y="68"/>
      <point x="276" y="18"/>
      <point x="212" y="18" type="curve" smooth="yes"/>
      <point x="154" y="18"/>
      <point x="118" y="57"/>
      <point x="118" y="137" type="curve" smooth="yes"/>
      <point x="118" y="520" type="line"/>
      <point x="88" y="520" type="line"/>
      <point x="88" y="135" type="line" smooth="yes"/>
      <point x="88" y="44"/>
      <point x="135" y="-10"/>
      <point x="212" y="-10" type="curve" smooth="yes"/>
      <point x="280" y="-10"/>
      <point x="326" y="41"/>
      <point x="353" y="97" type="curve"/>
      <point x="355" y="0" type="line"/>
      <point x="381" y="0" type="line"/>
      <point x="381" y="520" type="line"/>
    </contour>
    <contour>
      <point x="389" y="0" type="move" name="ogonek"/>
    </contour>
    <contour>
      <point x="234" y="520" type="move" name="top"/>
    </contour>
    <contour>
      <point x="389" y="520" type="move" name="topright"/>
    </contour>
    <contour>
      <point x="234" y="0" type="move" name="bottom"/>
    </contour>
  </outline>
</glyph>
<glyph name="v" format="1">
  <advance width="383"/>
  <unicode hex="0076"/>
  <outline>
    <contour>
      <point x="332" y="520" type="line"/>
      <point x="195" y="26" type="line"/>
      <point x="52" y="520" type="line"/>
      <point x="20" y="520" type="line"/>
      <point x="177" y="0" type="line"/>
      <point x="214" y="0" type="line"/>
      <point x="363" y="520" type="line"/>
    </contour>
    <contour>
      <point x="192" y="520" type="move" name="top"/>
    </contour>
    <contour>
      <point x="195" y="0" type="move" name="bottom"/>
    </contour>
  </outline>
</glyph>
<glyph name="w" format="1">
  <advance width="576"/>
  <unicode hex="0077"/>
  <outline>
    <contour>
      <point x="516" y="520" type="line"/>
      <point x="417" y="30" type="line"/>
      <point x="309" y="520" type="line"/>
      <point x="271" y="520" type="line"/>
      <point x="162" y="31" type="line"/>
      <point x="61" y="520" type="line"/>
      <point x="30" y="520" type="line"/>
      <point x="141" y="0" type="line"/>
      <point x="182" y="0" type="line"/>
      <point x="289" y="490" type="line"/>
      <point x="396" y="0" type="line"/>
      <point x="437" y="0" type="line"/>
      <point x="546" y="520" type="line"/>
    </contour>
    <contour>
      <point x="288" y="520" type="move" name="top"/>
    </contour>
    <contour>
      <point x="289" y="0" type="move" name="bottom"/>
    </contour>
  </outline>
</glyph>
<glyph name="x" format="1">
  <advance width="370"/>
  <unicode hex="0078"/>
  <outline>
    <contour>
      <point x="35" y="520" type="line"/>
      <point x="166" y="278" type="line"/>
      <point x="184" y="261" type="line"/>
      <point x="320" y="0" type="line"/>
      <point x="355" y="0" type="line"/>
      <point x="202" y="279" type="line"/>
      <point x="184" y="296" type="line"/>
      <point x="68" y="520" type="line"/>
    </contour>
    <contour>
      <point x="302" y="520" type="line"/>
      <point x="184" y="296" type="line"/>
      <point x="166" y="278" type="line"/>
      <point x="15" y="0" type="line"/>
      <point x="48" y="0" type="line"/>
      <point x="184" y="261" type="line"/>
      <point x="202" y="279" type="line"/>
      <point x="335" y="520" type="line"/>
    </contour>
    <contour>
      <point x="185" y="520" type="move" name="top"/>
    </contour>
    <contour>
      <point x="184" y="0" type="move" name="bottom"/>
    </contour>
    <contour>
      <point x="332" y="0" type="move" name="bottomright"/>
    </contour>
  </outline>
</glyph>
<glyph name="y" format="1">
  <advance width="379"/>
  <unicode hex="0079"/>
  <outline>
    <contour>
      <point x="328" y="520" type="line"/>
      <point x="192" y="25" type="line"/>
      <point x="51" y="520" type="line"/>
      <point x="20" y="520" type="line"/>
      <point x="172" y="0" type="line"/>
      <point x="183" y="0" type="line"/>
      <point x="153" y="-100"/>
      <point x="134" y="-142"/>
      <point x="48" y="-173" type="curve"/>
      <point x="52" y="-197" type="line"/>
      <point x="147" y="-165"/>
      <point x="178" y="-117"/>
      <point x="210" y="-2" type="curve" smooth="yes"/>
      <point x="359" y="520" type="line"/>
    </contour>
    <contour>
      <point x="192" y="520" type="move" name="top"/>
    </contour>
    <contour>
      <point x="192" y="-193" type="move" name="bottom"/>
    </contour>
  </outline>
</glyph>
<glyph name="z" format="1">
  <advance width="339"/>
  <unicode hex="007A"/>
  <outline>
    <contour>
      <point x="44" y="520" type="line"/>
      <point x="44" y="492" type="line"/>
      <point x="277" y="492" type="line"/>
      <point x="24" y="25" type="line"/>
      <point x="24" y="0" type="line"/>
      <point x="303" y="0" type="line"/>
      <point x="306" y="28" type="line"/>
      <point x="57" y="28" type="line"/>
      <point x="310" y="495" type="line"/>
      <point x="310" y="520" type="line"/>
    </contour>
    <contour>
      <point x="176" y="520" type="move" name="top"/>
    </contour>
    <contour>
      <point x="170" y="0" type="move" name="bottom"/>
    </contour>
  </outline>
</glyph>
<glyph name="braceleft" format="1">
  <advance width="269"/>
  <unicode hex="007B"/>
  <outline>
    <contour>
      <point x="146" y="822"/>
      <point x="111" y="795"/>
      <point x="111" y="717" type="curve" smooth="yes"/>
      <point x="111" y="434" type="line" smooth="yes"/>
      <point x="111" y="381"/>
      <point x="90" y="364"/>
      <point x="46" y="364" type="curve"/>
      <point x="46" y="334" type="line"/>
      <point x="90" y="334"/>
      <point x="111" y="317"/>
      <point x="111" y="264" type="curve" smooth="yes"/>
      <point x="111" y="-18" type="line" smooth="yes"/>
      <point x="111" y="-95"/>
      <point x="146" y="-124"/>
      <point x="206" y="-124" type="curve"/>
      <point x="206" y="-99" type="line"/>
      <point x="157" y="-99"/>
      <point x="139" y="-72"/>
      <point x="139" y="-19" type="curve" smooth="yes"/>
      <point x="139" y="262" type="line" smooth="yes"/>
      <point x="139" y="323"/>
      <point x="118" y="339"/>
      <point x="74" y="349" type="curve"/>
      <point x="117" y="359"/>
      <point x="139" y="375"/>
      <point x="139" y="436" type="curve" smooth="yes"/>
      <point x="139" y="717" type="line" smooth="yes"/>
      <point x="139" y="771"/>
      <point x="156" y="797"/>
      <point x="205" y="797" type="curve"/>
      <point x="206" y="822" type="line"/>
    </contour>
  </outline>
</glyph>
<glyph name="bar" format="1">
  <advance width="335"/>
  <unicode hex="007C"/>
  <outline>
    <contour>
      <point x="153" y="802" type="line"/>
      <point x="153" y="-99" type="line"/>
      <point x="182" y="-99" type="line"/>
      <point x="182" y="802" type="line"/>
    </contour>
  </outline>
</glyph>
<glyph name="braceright" format="1">
  <advance width="269"/>
  <unicode hex="007D"/>
  <outline>
    <contour>
      <point x="64" y="797" type="line"/>
      <point x="113" y="797"/>
      <point x="130" y="771"/>
      <point x="130" y="717" type="curve" smooth="yes"/>
      <point x="130" y="436" type="line" smooth="yes"/>
      <point x="130" y="375"/>
      <point x="152" y="359"/>
      <point x="195" y="349" type="curve"/>
      <point x="151" y="339"/>
      <point x="130" y="323"/>
      <point x="130" y="262" type="curve" smooth="yes"/>
      <point x="130" y="-19" type="line" smooth="yes"/>
      <point x="130" y="-72"/>
      <point x="112" y="-99"/>
      <point x="63" y="-99" type="curve"/>
      <point x="63" y="-124" type="line"/>
      <point x="123" y="-124"/>
      <point x="158" y="-95"/>
      <point x="158" y="-18" type="curve" smooth="yes"/>
      <point x="158" y="264" type="line" smooth="yes"/>
      <point x="158" y="317"/>
      <point x="179" y="334"/>
      <point x="223" y="334" type="curve"/>
      <point x="223" y="364" type="line"/>
      <point x="179" y="364"/>
      <point x="158" y="381"/>
      <point x="158" y="434" type="curve" smooth="yes"/>
      <point x="158" y="717" type="line" smooth="yes"/>
      <point x="158" y="795"/>
      <point x="123" y="822"/>
      <point x="63" y="822" type="curve"/>
    </contour>
  </outline>
</glyph>
<glyph name="asciitilde" format="1">
  <advance width="379"/>
  <unicode hex="007E"/>
  <outline>
    <contour>
      <point x="289" y="277"/>
      <point x="308" y="298"/>
      <point x="328" y="334" type="curve"/>
      <point x="307" y="346" type="line"/>
      <point x="291" y="321"/>
      <point x="278" y="305"/>
      <point x="256" y="305" type="curve" smooth="yes"/>
      <point x="215" y="305"/>
      <point x="176" y="358"/>
      <point x="128" y="358" type="curve" smooth="yes"/>
      <point x="93" y="358"/>
      <point x="71" y="337"/>
      <point x="51" y="301" type="curve"/>
      <point x="73" y="289" type="line"/>
      <point x="89" y="314"/>
      <point x="102" y="330"/>
      <point x="128" y="330" type="curve" smooth="yes"/>
      <point x="165" y="330"/>
      <point x="208" y="277"/>
      <point x="255" y="277" type="curve" smooth="yes"/>
    </contour>
    <contour>
      <point x="300" y="332" type="move" name="_center"/>
    </contour>
  </outline>
</glyph>
<glyph name="exclamdown" format="1">
  <advance width="218"/>
  <unicode hex="00A1"/>
  <outline>
    <contour>
      <point x="95" y="251" type="line"/>
      <point x="94" y="-193" type="line"/>
      <point x="124" y="-193" type="line"/>
      <point x="123" y="251" type="line"/>
    </contour>
    <contour>
      <point x="91" y="458"/>
      <point x="80" y="444"/>
      <point x="80" y="429" type="curve" smooth="yes"/>
      <point x="80" y="414"/>
      <point x="91" y="400"/>
      <point x="109" y="400" type="curve" smooth="yes"/>
      <point x="127" y="400"/>
      <point x="138" y="414"/>
      <point x="138" y="429" type="curve" smooth="yes"/>
      <point x="138" y="444"/>
      <point x="127" y="458"/>
      <point x="109" y="458" type="curve" smooth="yes"/>
    </contour>
  </outline>
</glyph>
<glyph name="cent" format="1">
  <advance width="374"/>
  <unicode hex="00A2"/>
  <outline>
    <contour>
      <point x="220" y="677" type="line"/>
      <point x="220" y="527" type="line"/>
      <point x="246" y="527" type="line"/>
      <point x="246" y="677" type="line"/>
    </contour>
    <contour>
      <point x="219" y="-147" type="line"/>
      <point x="246" y="-147" type="line"/>
      <point x="246" y="-6" type="line"/>
      <point x="219" y="-7" type="line"/>
    </contour>
    <component base="c"/>
  </outline>
</glyph>
<glyph name="sterling" format="1">
  <advance width="415"/>
  <unicode hex="00A3"/>
  <outline>
    <contour>
      <point x="164" y="674"/>
      <point x="116" y="606"/>
      <point x="116" y="515" type="curve" smooth="yes"/>
      <point x="116" y="142" type="line" smooth="yes"/>
      <point x="116" y="81"/>
      <point x="96" y="58"/>
      <point x="47" y="28" type="curve"/>
      <point x="47" y="0" type="line"/>
      <point x="358" y="0" type="line"/>
      <point x="362" y="29" type="line"/>
      <point x="85" y="29" type="line"/>
      <point x="128" y="53"/>
      <point x="146" y="77"/>
      <point x="146" y="144" type="curve" smooth="yes"/>
      <point x="146" y="515" type="line" smooth="yes"/>
      <point x="146" y="594"/>
      <point x="180" y="647"/>
      <point x="248" y="647" type="curve" smooth="yes"/>
      <point x="295" y="647"/>
      <point x="324" y="626"/>
      <point x="352" y="588" type="curve"/>
      <point x="372" y="605" type="line"/>
      <point x="338" y="651"/>
      <point x="300" y="674"/>
      <point x="248" y="674" type="curve" smooth="yes"/>
    </contour>
    <contour>
      <point x="62" y="367" type="line"/>
      <point x="62" y="339" type="line"/>
      <point x="324" y="339" type="line"/>
      <point x="324" y="367" type="line"/>
    </contour>
  </outline>
</glyph>
<glyph name="currency" format="1">
  <advance width="460"/>
  <unicode hex="00A4"/>
  <outline>
    <contour>
      <point x="139" y="524"/>
      <point x="82" y="452"/>
      <point x="82" y="341" type="curve" smooth="yes"/>
      <point x="82" y="229"/>
      <point x="138" y="157"/>
      <point x="229" y="157" type="curve" smooth="yes"/>
      <point x="322" y="157"/>
      <point x="377" y="229"/>
      <point x="377" y="341" type="curve" smooth="yes"/>
      <point x="377" y="452"/>
      <point x="322" y="524"/>
      <point x="229" y="524" type="curve" smooth="yes"/>
    </contour>
    <contour>
      <point x="149" y="210" type="line"/>
      <point x="132" y="230" type="line"/>
      <point x="50" y="132" type="line"/>
      <point x="70" y="115" type="line"/>
    </contour>
    <contour>
      <point x="412" y="132" type="line"/>
      <point x="329" y="230" type="line"/>
      <point x="312" y="210" type="line"/>
      <point x="391" y="115" type="line"/>
    </contour>
    <contour>
      <point x="47" y="549" type="line"/>
      <point x="130" y="451" type="line"/>
      <point x="147" y="471" type="line"/>
      <point x="68" y="566" type="line"/>
    </contour>
    <contour>
      <point x="310" y="471" type="line"/>
      <point x="327" y="451" type="line"/>
      <point x="409" y="549" type="line"/>
      <point x="389" y="566" type="line"/>
    </contour>
    <contour>
      <point x="309" y="498"/>
      <point x="348" y="441"/>
      <point x="348" y="340" type="curve" smooth="yes"/>
      <point x="348" y="241"/>
      <point x="309" y="183"/>
      <point x="229" y="183" type="curve" smooth="yes"/>
      <point x="151" y="183"/>
      <point x="111" y="240"/>
      <point x="111" y="340" type="curve" smooth="yes"/>
      <point x="111" y="441"/>
      <point x="151" y="498"/>
      <point x="229" y="498" type="curve" smooth="yes"/>
    </contour>
  </outline>
</glyph>
<glyph name="yen" format="1">
  <advance width="407"/>
  <unicode hex="00A5"/>
  <outline>
    <contour>
      <point x="360" y="662" type="line"/>
      <point x="205" y="335" type="line"/>
      <point x="48" y="662" type="line"/>
      <point x="15" y="662" type="line"/>
      <point x="189" y="310" type="line"/>
      <point x="189" y="0" type="line"/>
      <point x="220" y="0" type="line"/>
      <point x="220" y="309" type="line"/>
      <point x="392" y="662" type="line"/>
    </contour>
    <contour>
      <point x="80" y="191" type="line"/>
      <point x="80" y="162" type="line"/>
      <point x="330" y="162" type="line"/>
      <point x="330" y="191" type="line"/>
    </contour>
    <contour>
      <point x="80" y="332" type="line"/>
      <point x="80" y="304" type="line"/>
      <point x="330" y="304" type="line"/>
      <point x="330" y="332" type="line"/>
    </contour>
  </outline>
</glyph>
<glyph name="section" format="1">
  <advance width="437"/>
  <unicode hex="00A7"/>
  <outline>
    <contour>
      <point x="151" y="673"/>
      <point x="98" y="622"/>
      <point x="98" y="545" type="curve" smooth="yes"/>
      <point x="98" y="477"/>
      <point x="128" y="448"/>
      <point x="228" y="406" type="curve" smooth="yes"/>
      <point x="313" y="370"/>
      <point x="330" y="334"/>
      <point x="330" y="288" type="curve" smooth="yes"/>
      <point x="330" y="236"/>
      <point x="315" y="202"/>
      <point x="265" y="165" type="curve"/>
      <point x="283" y="150" type="line"/>
      <point x="338" y="190"/>
      <point x="361" y="231"/>
      <point x="361" y="289" type="curve" smooth="yes"/>
      <point x="361" y="353"/>
      <point x="324" y="395"/>
      <point x="238" y="431" type="curve" smooth="yes"/>
      <point x="147" y="469"/>
      <point x="129" y="493"/>
      <point x="129" y="546" type="curve" smooth="yes"/>
      <point x="129" y="605"/>
      <point x="163" y="645"/>
      <point x="228" y="645" type="curve" smooth="yes"/>
      <point x="267" y="645"/>
      <point x="298" y="632"/>
      <point x="332" y="606" type="curve"/>
      <point x="347" y="628" type="line"/>
      <point x="313" y="654"/>
      <point x="279" y="673"/>
      <point x="228" y="673" type="curve" smooth="yes"/>
    </contour>
    <contour>
      <point x="103" y="419"/>
      <point x="76" y="375"/>
      <point x="76" y="322" type="curve" smooth="yes"/>
      <point x="76" y="241"/>
      <point x="119" y="213"/>
      <point x="208" y="175" type="curve" smooth="yes"/>
      <point x="294" y="138"/>
      <point x="311" y="112"/>
      <point x="311" y="61" type="curve" smooth="yes"/>
      <point x="311" y="5"/>
      <point x="274" y="-38"/>
      <point x="207" y="-38" type="curve" smooth="yes"/>
      <point x="163" y="-38"/>
      <point x="127" y="-25"/>
      <point x="95" y="1" type="curve"/>
      <point x="78" y="-21" type="line"/>
      <point x="115" y="-50"/>
      <point x="154" y="-66"/>
      <point x="207" y="-66" type="curve" smooth="yes"/>
      <point x="285" y="-66"/>
      <point x="341" y="-16"/>
      <point x="341" y="63" type="curve" smooth="yes"/>
      <point x="341" y="134"/>
      <point x="304" y="164"/>
      <point x="217" y="201" type="curve" smooth="yes"/>
      <point x="127" y="239"/>
      <point x="106" y="263"/>
      <point x="106" y="323" type="curve" smooth="yes"/>
      <point x="106" y="370"/>
      <point x="126" y="407"/>
      <point x="172" y="444" type="curve"/>
      <point x="154" y="459" type="line"/>
    </contour>
  </outline>
</glyph>
<glyph name="copyright" format="1">
  <advance width="663"/>
  <unicode hex="00A9"/>
  <outline>
    <contour>
      <point x="198" y="726"/>
      <point x="97" y="620"/>
      <point x="97" y="435" type="curve" smooth="yes"/>
      <point x="97" y="248"/>
      <point x="198" y="144"/>
      <point x="332" y="144" type="curve"/>
      <point x="466" y="144"/>
      <point x="566" y="250"/>
      <point x="566" y="435" type="curve" smooth="yes"/>
      <point x="566" y="622"/>
      <point x="466" y="726"/>
      <point x="332" y="726" type="curve"/>
    </contour>
    <contour>
      <point x="277" y="608"/>
      <point x="219" y="562"/>
      <point x="219" y="437" type="curve" smooth="yes"/>
      <point x="219" y="316"/>
      <point x="266" y="262"/>
      <point x="333" y="262" type="curve" smooth="yes"/>
      <point x="369" y="262"/>
      <point x="396" y="278"/>
      <point x="415" y="296" type="curve"/>
      <point x="401" y="317" type="line"/>
      <point x="384" y="303"/>
      <point x="365" y="290"/>
      <point x="334" y="290" type="curve" smooth="yes"/>
      <point x="285" y="290"/>
      <point x="248" y="327"/>
      <point x="248" y="437" type="curve" smooth="yes"/>
      <point x="248" y="549"/>
      <point x="294" y="580"/>
      <point x="331" y="580" type="curve" smooth="yes"/>
      <point x="360" y="580"/>
      <point x="376" y="572"/>
      <point x="393" y="558" type="curve"/>
      <point x="408" y="578" type="line"/>
      <point x="387" y="597"/>
      <point x="365" y="608"/>
      <point x="331" y="608" type="curve" smooth="yes"/>
    </contour>
    <contour>
      <point x="451" y="698"/>
      <point x="538" y="608"/>
      <point x="538" y="435" type="curve" smooth="yes"/>
      <point x="538" y="265"/>
      <point x="451" y="172"/>
      <point x="332" y="172" type="curve"/>
      <point x="212" y="172"/>
      <point x="125" y="262"/>
      <point x="125" y="435" type="curve" smooth="yes"/>
      <point x="125" y="605"/>
      <point x="212" y="698"/>
      <point x="332" y="698" type="curve"/>
    </contour>
  </outline>
</glyph>
<glyph name="ordfeminine" format="1">
  <advance width="422"/>
  <unicode hex="00AA"/>
  <outline>
    <contour>
      <point x="165" y="682"/>
      <point x="133" y="672"/>
      <point x="99" y="657" type="curve"/>
      <point x="107" y="631" type="line"/>
      <point x="140" y="645"/>
      <point x="170" y="654"/>
      <point x="199" y="654" type="curve" smooth="yes"/>
      <point x="261" y="654"/>
      <point x="281" y="624"/>
      <point x="281" y="570" type="curve"/>
      <point x="281" y="369" type="line"/>
      <point x="285" y="345" type="line"/>
      <point x="285" y="306"/>
      <point x="302" y="286"/>
      <point x="332" y="276" type="curve"/>
      <point x="339" y="297" type="line"/>
      <point x="321" y="306"/>
      <point x="311" y="317"/>
      <point x="311" y="347" type="curve" smooth="yes"/>
      <point x="311" y="573" type="line" smooth="yes"/>
      <point x="311" y="643"/>
      <point x="277" y="682"/>
      <point x="201" y="682" type="curve" smooth="yes"/>
    </contour>
    <contour>
      <point x="209" y="518" type="line" smooth="yes"/>
      <point x="127" y="518"/>
      <point x="72" y="474"/>
      <point x="72" y="392" type="curve" smooth="yes"/>
      <point x="72" y="321"/>
      <point x="113" y="276"/>
      <point x="178" y="276" type="curve" smooth="yes"/>
      <point x="228" y="276"/>
      <point x="265" y="302"/>
      <point x="291" y="351" type="curve"/>
      <point x="285" y="387" type="line"/>
      <point x="263" y="337"/>
      <point x="230" y="304"/>
      <point x="180" y="304" type="curve" smooth="yes"/>
      <point x="134" y="304"/>
      <point x="104" y="334"/>
      <point x="104" y="392" type="curve" smooth="yes"/>
      <point x="104" y="460"/>
      <point x="140" y="490"/>
      <point x="209" y="490" type="curve" smooth="yes"/>
      <point x="287" y="490" type="line"/>
      <point x="287" y="518" type="line"/>
    </contour>
    <component base="minus" xOffset="11" yOffset="-316"/>
  </outline>
</glyph>
<glyph name="registered" format="1">
  <advance width="524"/>
  <unicode hex="00AE"/>
  <outline>
    <contour>
      <point x="156" y="726"/>
      <point x="72" y="638"/>
      <point x="72" y="497" type="curve" smooth="yes"/>
      <point x="72" y="352"/>
      <point x="156" y="272"/>
      <point x="262" y="272" type="curve"/>
      <point x="368" y="272"/>
      <point x="452" y="360"/>
      <point x="452" y="501" type="curve" smooth="yes"/>
      <point x="452" y="646"/>
      <point x="368" y="726"/>
      <point x="262" y="726" type="curve"/>
    </contour>
    <contour>
      <point x="256" y="492" type="line"/>
      <point x="317" y="368" type="line"/>
      <point x="348" y="368" type="line"/>
      <point x="284" y="494" type="line"/>
    </contour>
    <contour>
      <point x="355" y="701"/>
      <point x="427" y="633"/>
      <point x="427" y="501" type="curve" smooth="yes"/>
      <point x="427" y="371"/>
      <point x="353" y="297"/>
      <point x="262" y="297" type="curve"/>
      <point x="171" y="297"/>
      <point x="97" y="365"/>
      <point x="97" y="497" type="curve" smooth="yes"/>
      <point x="97" y="627"/>
      <point x="171" y="701"/>
      <point x="262" y="701" type="curve"/>
    </contour>
    <contour>
      <point x="198" y="637" type="line"/>
      <point x="198" y="368" type="line"/>
      <point x="225" y="368" type="line"/>
      <point x="225" y="611" type="line"/>
      <point x="255" y="611" type="line" smooth="yes"/>
      <point x="291" y="611"/>
      <point x="312" y="594"/>
      <point x="312" y="561" type="curve" smooth="yes"/>
      <point x="312" y="522"/>
      <point x="292" y="509"/>
      <point x="261" y="509" type="curve" smooth="yes"/>
      <point x="219" y="509" type="line"/>
      <point x="219" y="484" type="line"/>
      <point x="260" y="484" type="line"/>
      <point x="272" y="484" type="line"/>
      <point x="312" y="490"/>
      <point x="339" y="512"/>
      <point x="339" y="561" type="curve" smooth="yes"/>
      <point x="339" y="608"/>
      <point x="308" y="637"/>
      <point x="250" y="637" type="curve" smooth="yes"/>
    </contour>
  </outline>
</glyph>
<glyph name="degree" format="1">
  <advance width="409"/>
  <unicode hex="00B0"/>
  <outline>
    <contour>
      <point x="131" y="434"/>
      <point x="92" y="475"/>
      <point x="92" y="550" type="curve" smooth="yes"/>
      <point x="92" y="626"/>
      <point x="131" y="665"/>
      <point x="179" y="665" type="curve" smooth="yes"/>
      <point x="233" y="665"/>
      <point x="267" y="626"/>
      <point x="267" y="549" type="curve" smooth="yes"/>
      <point x="267" y="475"/>
      <point x="233" y="434"/>
      <point x="179" y="434" type="curve" smooth="yes"/>
    </contour>
    <contour>
      <point x="247" y="407"/>
      <point x="298" y="460"/>
      <point x="298" y="549" type="curve" smooth="yes"/>
      <point x="298" y="641"/>
      <point x="247" y="692"/>
      <point x="179" y="692" type="curve" smooth="yes"/>
      <point x="117" y="692"/>
      <point x="61" y="640"/>
      <point x="61" y="550" type="curve" smooth="yes"/>
      <point x="61" y="456"/>
      <point x="117" y="407"/>
      <point x="179" y="407" type="curve" smooth="yes"/>
    </contour>
  </outline>
</glyph>
<glyph name="paragraph" format="1">
  <advance width="567"/>
  <unicode hex="00B6"/>
  <outline>
    <contour>
      <point x="271" y="681" type="line"/>
      <point x="267" y="648" type="line"/>
      <point x="267" y="-199" type="line"/>
      <point x="296" y="-193" type="line"/>
      <point x="296" y="654" type="line"/>
      <point x="408" y="654" type="line"/>
      <point x="408" y="-199" type="line"/>
      <point x="438" y="-193" type="line"/>
      <point x="438" y="682" type="line"/>
    </contour>
    <contour>
      <point x="154" y="681"/>
      <point x="88" y="613"/>
      <point x="88" y="493" type="curve" smooth="yes"/>
      <point x="88" y="390"/>
      <point x="135" y="304"/>
      <point x="279" y="304" type="curve"/>
      <point x="271" y="681" type="line"/>
    </contour>
  </outline>
</glyph>
<glyph name="ordmasculine" format="1">
  <advance width="414"/>
  <unicode hex="00BA"/>
  <outline>
    <contour>
      <point x="121" y="682"/>
      <point x="65" y="617"/>
      <point x="65" y="479" type="curve" smooth="yes"/>
      <point x="65" y="342"/>
      <point x="119" y="276"/>
      <point x="206" y="276" type="curve" smooth="yes"/>
      <point x="293" y="276"/>
      <point x="349" y="341"/>
      <point x="349" y="481" type="curve" smooth="yes"/>
      <point x="349" y="623"/>
      <point x="295" y="682"/>
      <point x="207" y="682" type="curve" smooth="yes"/>
    </contour>
    <contour>
      <point x="279" y="655"/>
      <point x="319" y="605"/>
      <point x="319" y="481" type="curve" smooth="yes"/>
      <point x="319" y="354"/>
      <point x="276" y="303"/>
      <point x="206" y="303" type="curve" smooth="yes"/>
      <point x="137" y="303"/>
      <point x="95" y="356"/>
      <point x="95" y="479" type="curve" smooth="yes"/>
      <point x="95" y="606"/>
      <point x="139" y="655"/>
      <point x="208" y="655" type="curve" smooth="yes"/>
    </contour>
    <component base="minus" xOffset="7" yOffset="-317"/>
  </outline>
</glyph>
<glyph name="questiondown" format="1">
  <advance width="372"/>
  <unicode hex="00BF"/>
  <outline>
    <contour>
      <point x="240" y="-199"/>
      <point x="285" y="-171"/>
      <point x="327" y="-112" type="curve"/>
      <point x="305" y="-95" type="line"/>
      <point x="268" y="-147"/>
      <point x="234" y="-171"/>
      <point x="179" y="-171" type="curve" smooth="yes"/>
      <point x="116" y="-171"/>
      <point x="75" y="-127"/>
      <point x="75" y="-61" type="curve" smooth="yes"/>
      <point x="75" y="75"/>
      <point x="223" y="54"/>
      <point x="223" y="219" type="curve" smooth="yes"/>
      <point x="223" y="251" type="line"/>
      <point x="195" y="251" type="line"/>
      <point x="195" y="222" type="line" smooth="yes"/>
      <point x="195" y="67"/>
      <point x="45" y="86"/>
      <point x="45" y="-61" type="curve" smooth="yes"/>
      <point x="45" y="-137"/>
      <point x="95" y="-199"/>
      <point x="179" y="-199" type="curve" smooth="yes"/>
    </contour>
    <contour>
      <point x="227" y="400"/>
      <point x="238" y="414"/>
      <point x="238" y="429" type="curve" smooth="yes"/>
      <point x="238" y="444"/>
      <point x="227" y="458"/>
      <point x="209" y="458" type="curve" smooth="yes"/>
      <point x="191" y="458"/>
      <point x="180" y="444"/>
      <point x="180" y="429" type="curve" smooth="yes"/>
      <point x="180" y="414"/>
      <point x="191" y="400"/>
      <point x="209" y="400" type="curve" smooth="yes"/>
    </contour>
  </outline>
</glyph>
<glyph name="AE" format="1">
  <advance width="626"/>
  <unicode hex="00C6"/>
  <outline>
    <contour>
      <point x="223" y="682" type="line"/>
      <point x="6" y="0" type="line"/>
      <point x="37" y="0" type="line"/>
      <point x="241" y="657" type="line"/>
      <point x="380" y="0" type="line"/>
      <point x="592" y="0" type="line"/>
      <point x="592" y="29" type="line"/>
      <point x="404" y="29" type="line"/>
      <point x="272" y="653" type="line"/>
      <point x="546" y="653" type="line"/>
      <point x="550" y="682" type="line"/>
    </contour>
    <contour>
      <point x="102" y="222" type="line"/>
      <point x="90" y="193" type="line"/>
      <point x="346" y="193" type="line"/>
      <point x="339" y="222" type="line"/>
    </contour>
    <contour>
      <point x="323" y="373" type="line"/>
      <point x="331" y="345" type="line"/>
      <point x="544" y="345" type="line"/>
      <point x="544" y="373" type="line"/>
    </contour>
    <contour>
      <point x="366" y="682" type="move" name="top"/>
    </contour>
    <contour>
      <point x="313" y="0" type="move" name="bottom"/>
    </contour>
  </outline>
</glyph>
<glyph name="Eth" format="1">
  <advance width="513"/>
  <unicode hex="00D0"/>
  <outline>
    <contour>
      <point x="97" y="367" type="line"/>
      <point x="20" y="367" type="line"/>
      <point x="20" y="337" type="line"/>
      <point x="281" y="337" type="line"/>
      <point x="281" y="367" type="line"/>
    </contour>
    <component base="D"/>
  </outline>
</glyph>
<glyph name="multiply" format="1">
  <advance width="401"/>
  <unicode hex="00D7"/>
  <outline>
    <contour>
      <point x="200" y="325" type="line"/>
      <point x="97" y="459" type="line"/>
      <point x="74" y="442" type="line"/>
      <point x="180" y="307" type="line"/>
      <point x="74" y="173" type="line"/>
      <point x="96" y="156" type="line"/>
      <point x="200" y="289" type="line"/>
      <point x="304" y="156" type="line"/>
      <point x="327" y="173" type="line"/>
      <point x="220" y="307" type="line"/>
      <point x="327" y="442" type="line"/>
      <point x="305" y="459" type="line"/>
    </contour>
  </outline>
</glyph>
<glyph name="Oslash" format="1">
  <advance width="566"/>
  <unicode hex="00D8"/>
  <outline>
    <contour>
      <point x="152" y="692"/>
      <point x="60" y="574"/>
      <point x="60" y="339" type="curve" smooth="yes"/>
      <point x="60" y="105"/>
      <point x="151" y="-10"/>
      <point x="283" y="-10" type="curve" smooth="yes"/>
      <point x="420" y="-10"/>
      <point x="506" y="109"/>
      <point x="506" y="340" type="curve" smooth="yes"/>
      <point x="506" y="580"/>
      <point x="416" y="692"/>
      <point x="283" y="692" type="curve" smooth="yes"/>
    </contour>
    <contour>
      <point x="398" y="663"/>
      <point x="474" y="569"/>
      <point x="474" y="340" type="curve" smooth="yes"/>
      <point x="474" y="119"/>
      <point x="402" y="19"/>
      <point x="283" y="19" type="curve" smooth="yes"/>
      <point x="171" y="19"/>
      <point x="92" y="115"/>
      <point x="92" y="339" type="curve" smooth="yes"/>
      <point x="92" y="564"/>
      <point x="170" y="663"/>
      <point x="283" y="663" type="curve"/>
    </contour>
    <contour>
      <point x="351" y="678" type="line"/>
      <point x="346" y="654" type="line"/>
      <point x="198" y="38" type="line"/>
      <point x="189" y="18" type="line"/>
      <point x="155" y="-105" type="line"/>
      <point x="185" y="-114" type="line"/>
      <point x="214" y="7" type="line"/>
      <point x="220" y="27" type="line"/>
      <point x="369" y="647" type="line"/>
      <point x="376" y="667" type="line"/>
      <point x="411" y="794" type="line"/>
      <point x="381" y="803" type="line"/>
    </contour>
    <contour>
      <point x="277" y="692" type="move" name="top"/>
    </contour>
    <contour>
      <point x="283" y="0" type="move" name="bottom"/>
    </contour>
  </outline>
</glyph>
<glyph name="Thorn" format="1">
  <advance width="457"/>
  <unicode hex="00DE"/>
  <outline>
    <contour>
      <point x="111" y="556" type="line"/>
      <point x="128" y="527" type="line"/>
      <point x="193" y="527" type="line" smooth="yes"/>
      <point x="326" y="527"/>
      <point x="387" y="480"/>
      <point x="387" y="356" type="curve" smooth="yes"/>
      <point x="387" y="217"/>
      <point x="316" y="173"/>
      <point x="190" y="173" type="curve" smooth="yes"/>
      <point x="121" y="173" type="line"/>
      <point x="121" y="144" type="line"/>
      <point x="190" y="144" type="line" smooth="yes"/>
      <point x="334" y="144"/>
      <point x="419" y="203"/>
      <point x="419" y="357" type="curve" smooth="yes"/>
      <point x="419" y="494"/>
      <point x="346" y="556"/>
      <point x="193" y="556" type="curve" smooth="yes"/>
    </contour>
    <contour>
      <point x="97" y="682" type="line"/>
      <point x="97" y="0" type="line"/>
      <point x="128" y="0" type="line"/>
      <point x="128" y="682" type="line"/>
    </contour>
    <contour>
      <point x="231" y="682" type="move" name="top"/>
    </contour>
    <contour>
      <point x="231" y="0" type="move" name="bottom"/>
    </contour>
  </outline>
</glyph>
<glyph name="germandbls" format="1">
  <advance width="472"/>
  <unicode hex="00DF"/>
  <outline>
    <contour>
      <point x="155" y="738"/>
      <point x="93" y="674"/>
      <point x="93" y="571" type="curve" smooth="yes"/>
      <point x="93" y="0" type="line"/>
      <point x="123" y="0" type="line"/>
      <point x="123" y="567" type="line" smooth="yes"/>
      <point x="123" y="662"/>
      <point x="173" y="710"/>
      <point x="240" y="710" type="curve" smooth="yes"/>
      <point x="297" y="710"/>
      <point x="336" y="676"/>
      <point x="336" y="610" type="curve" smooth="yes"/>
      <point x="336" y="510"/>
      <point x="239" y="499"/>
      <point x="239" y="421" type="curve" smooth="yes"/>
      <point x="239" y="314"/>
      <point x="397" y="317"/>
      <point x="397" y="150" type="curve" smooth="yes"/>
      <point x="397" y="65"/>
      <point x="359" y="18"/>
      <point x="301" y="18" type="curve" smooth="yes"/>
      <point x="271" y="18"/>
      <point x="253" y="25"/>
      <point x="238" y="33" type="curve"/>
      <point x="227" y="10" type="line"/>
      <point x="246" y="-1"/>
      <point x="268" y="-10"/>
      <point x="303" y="-10" type="curve" smooth="yes"/>
      <point x="380" y="-10"/>
      <point x="428" y="56"/>
      <point x="428" y="150" type="curve" smooth="yes"/>
      <point x="428" y="326"/>
      <point x="268" y="334"/>
      <point x="268" y="421" type="curve" smooth="yes"/>
      <point x="268" y="489"/>
      <point x="367" y="505"/>
      <point x="367" y="610" type="curve" smooth="yes"/>
      <point x="367" y="689"/>
      <point x="314" y="738"/>
      <point x="240" y="738" type="curve" smooth="yes"/>
    </contour>
  </outline>
</glyph>
<glyph name="ae" format="1">
  <advance width="693"/>
  <unicode hex="00E6"/>
  <outline>
    <contour>
      <point x="392" y="530"/>
      <point x="335" y="449"/>
      <point x="319" y="295" type="curve"/>
      <point x="315" y="256" type="line"/>
      <point x="315" y="88"/>
      <point x="383" y="-10"/>
      <point x="490" y="-10" type="curve" smooth="yes"/>
      <point x="546" y="-10"/>
      <point x="586" y="13"/>
      <point x="624" y="52" type="curve"/>
      <point x="607" y="71" type="line"/>
      <point x="572" y="38"/>
      <point x="540" y="18"/>
      <point x="491" y="18" type="curve" smooth="yes"/>
      <point x="408" y="18"/>
      <point x="348" y="91"/>
      <point x="346" y="256" type="curve"/>
      <point x="346" y="428"/>
      <point x="407" y="502"/>
      <point x="485" y="502" type="curve" smooth="yes"/>
      <point x="571" y="502"/>
      <point x="612" y="426"/>
      <point x="612" y="294" type="curve" smooth="yes"/>
      <point x="612" y="280"/>
      <point x="612" y="276"/>
      <point x="612" y="270" type="curve"/>
      <point x="341" y="270" type="line"/>
      <point x="341" y="244" type="line"/>
      <point x="640" y="244" type="line"/>
      <point x="641" y="253"/>
      <point x="642" y="268"/>
      <point x="642" y="283" type="curve" smooth="yes"/>
      <point x="642" y="441"/>
      <point x="589" y="530"/>
      <point x="484" y="530" type="curve" smooth="yes"/>
    </contour>
    <contour>
      <point x="229" y="309" type="line" smooth="yes"/>
      <point x="121" y="309"/>
      <point x="52" y="251"/>
      <point x="52" y="144" type="curve" smooth="yes"/>
      <point x="52" y="51"/>
      <point x="101" y="-10"/>
      <point x="183" y="-10" type="curve" smooth="yes"/>
      <point x="249" y="-10"/>
      <point x="298" y="26"/>
      <point x="351" y="122" type="curve"/>
      <point x="342" y="160" type="line"/>
      <point x="293" y="61"/>
      <point x="249" y="18"/>
      <point x="185" y="18" type="curve" smooth="yes"/>
      <point x="123" y="18"/>
      <point x="83" y="64"/>
      <point x="83" y="144" type="curve" smooth="yes"/>
      <point x="83" y="237"/>
      <point x="138" y="282"/>
      <point x="227" y="282" type="curve" smooth="yes"/>
      <point x="321" y="282" type="line"/>
      <point x="321" y="309" type="line"/>
    </contour>
    <contour>
      <point x="168" y="530"/>
      <point x="129" y="517"/>
      <point x="85" y="496" type="curve"/>
      <point x="94" y="472" type="line"/>
      <point x="135" y="490"/>
      <point x="173" y="502"/>
      <point x="210" y="502" type="curve" smooth="yes"/>
      <point x="287" y="502"/>
      <point x="315" y="457"/>
      <point x="315" y="369" type="curve"/>
      <point x="315" y="256" type="line"/>
      <point x="345" y="256" type="line"/>
      <point x="343" y="372" type="line"/>
      <point x="341" y="476"/>
      <point x="305" y="530"/>
      <point x="211" y="530" type="curve" smooth="yes"/>
    </contour>
    <contour>
      <point x="348" y="520" type="move" name="top"/>
    </contour>
    <contour>
      <point x="342" y="0" type="move" name="bottom"/>
    </contour>
  </outline>
</glyph>
<glyph name="eth" format="1">
  <advance width="449"/>
  <unicode hex="00F0"/>
  <outline>
    <contour>
      <point x="113" y="713" type="line"/>
      <point x="155" y="703"/>
      <point x="200" y="676"/>
      <point x="230" y="651" type="curve"/>
      <point x="316" y="570"/>
      <point x="348" y="478"/>
      <point x="355" y="350" type="curve"/>
      <point x="356" y="340" type="line"/>
      <point x="357" y="328"/>
      <point x="357" y="317"/>
      <point x="357" y="295" type="curve" smooth="yes"/>
      <point x="357" y="113"/>
      <point x="306" y="18"/>
      <point x="221" y="18" type="curve" smooth="yes"/>
      <point x="136" y="18"/>
      <point x="88" y="97"/>
      <point x="88" y="229" type="curve" smooth="yes"/>
      <point x="88" y="345"/>
      <point x="133" y="435"/>
      <point x="216" y="435" type="curve" smooth="yes"/>
      <point x="275" y="435"/>
      <point x="321" y="394"/>
      <point x="361" y="328" type="curve"/>
      <point x="364" y="361" type="line"/>
      <point x="322" y="425"/>
      <point x="278" y="463"/>
      <point x="215" y="463" type="curve" smooth="yes"/>
      <point x="112" y="463"/>
      <point x="56" y="353"/>
      <point x="56" y="231" type="curve" smooth="yes"/>
      <point x="56" y="85"/>
      <point x="116" y="-10"/>
      <point x="221" y="-10" type="curve" smooth="yes"/>
      <point x="320" y="-10"/>
      <point x="388" y="86"/>
      <point x="388" y="292" type="curve" smooth="yes"/>
      <point x="388" y="482"/>
      <point x="339" y="588"/>
      <point x="253" y="665" type="curve"/>
      <point x="211" y="702"/>
      <point x="165" y="728"/>
      <point x="120" y="739" type="curve"/>
    </contour>
    <contour>
      <point x="229" y="670" type="line"/>
      <point x="220" y="660" type="line"/>
      <point x="148" y="571" type="line"/>
      <point x="171" y="562" type="line"/>
      <point x="239" y="645" type="line"/>
      <point x="249" y="655" type="line"/>
      <point x="313" y="735" type="line"/>
      <point x="293" y="750" type="line"/>
    </contour>
    <contour>
      <point x="238" y="734" type="move" name="top"/>
    </contour>
    <contour>
      <point x="221" y="0" type="move" name="bottom"/>
    </contour>
  </outline>
</glyph>
<glyph name="oslash" format="1">
  <advance width="461"/>
  <unicode hex="00F8"/>
  <outline>
    <contour>
      <point x="125" y="530"/>
      <point x="56" y="440"/>
      <point x="56" y="259" type="curve" smooth="yes"/>
      <point x="56" y="82"/>
      <point x="122" y="-10"/>
      <point x="230" y="-10" type="curve" smooth="yes"/>
      <point x="337" y="-10"/>
      <point x="405" y="80"/>
      <point x="405" y="262" type="curve" smooth="yes"/>
      <point x="405" y="445"/>
      <point x="339" y="530"/>
      <point x="231" y="530" type="curve" smooth="yes"/>
    </contour>
    <contour>
      <point x="321" y="502"/>
      <point x="374" y="433"/>
      <point x="374" y="262" type="curve" smooth="yes"/>
      <point x="374" y="93"/>
      <point x="319" y="18"/>
      <point x="230" y="18" type="curve" smooth="yes"/>
      <point x="141" y="18"/>
      <point x="87" y="90"/>
      <point x="87" y="259" type="curve" smooth="yes"/>
      <point x="87" y="429"/>
      <point x="144" y="502"/>
      <point x="231" y="502" type="curve" smooth="yes"/>
    </contour>
    <contour>
      <point x="288" y="518" type="line"/>
      <point x="281" y="494" type="line"/>
      <point x="158" y="32" type="line"/>
      <point x="153" y="22" type="line"/>
      <point x="112" y="-114" type="line"/>
      <point x="139" y="-121" type="line"/>
      <point x="177" y="11" type="line"/>
      <point x="181" y="24" type="line"/>
      <point x="304" y="486" type="line"/>
      <point x="313" y="507" type="line"/>
      <point x="349" y="635" type="line"/>
      <point x="323" y="642" type="line"/>
    </contour>
    <contour>
      <point x="231" y="520" type="move" name="top"/>
    </contour>
    <contour>
      <point x="230" y="0" type="move" name="bottom"/>
    </contour>
  </outline>
</glyph>
<glyph name="thorn" format="1">
  <advance width="466"/>
  <unicode hex="00FE"/>
  <outline>
    <contour>
      <point x="193" y="530"/>
      <point x="148" y="490"/>
      <point x="116" y="433" type="curve"/>
      <point x="118" y="398" type="line"/>
      <point x="154" y="460"/>
      <point x="194" y="502"/>
      <point x="255" y="502" type="curve" smooth="yes"/>
      <point x="334" y="502"/>
      <point x="378" y="429"/>
      <point x="378" y="264" type="curve" smooth="yes"/>
      <point x="378" y="96"/>
      <point x="331" y="18"/>
      <point x="248" y="18" type="curve" smooth="yes"/>
      <point x="193" y="18"/>
      <point x="152" y="58"/>
      <point x="118" y="117" type="curve"/>
      <point x="116" y="81" type="line"/>
      <point x="142" y="35"/>
      <point x="186" y="-10"/>
      <point x="250" y="-10" type="curve" smooth="yes"/>
      <point x="349" y="-10"/>
      <point x="410" y="83"/>
      <point x="410" y="264" type="curve" smooth="yes"/>
      <point x="410" y="447"/>
      <point x="353" y="530"/>
      <point x="255" y="530" type="curve" smooth="yes"/>
    </contour>
    <contour>
      <point x="93" y="734" type="line"/>
      <point x="93" y="-199" type="line"/>
      <point x="123" y="-193" type="line"/>
      <point x="123" y="738" type="line"/>
    </contour>
    <contour>
      <point x="235" y="734" type="move" name="top"/>
    </contour>
    <contour>
      <point x="235" y="-193" type="move" name="bottom"/>
    </contour>
  </outline>
</glyph>
<glyph name="dcroat" format="1">
  <advance width="474"/>
  <unicode hex="0111"/>
  <outline>
    <contour>
      <point x="209" y="652" type="line"/>
      <point x="209" y="625" type="line"/>
      <point x="377" y="625" type="line"/>
      <point x="439" y="625" type="line"/>
      <point x="439" y="652" type="line"/>
    </contour>
    <component base="d"/>
  </outline>
</glyph>
<glyph name="kgreenlandic" format="1">
  <advance width="388"/>
  <unicode hex="0138"/>
  <outline>
    <contour>
      <point x="323" y="520" type="line"/>
      <point x="128" y="274" type="line"/>
      <point x="343" y="0" type="line"/>
      <point x="378" y="0" type="line"/>
      <point x="163" y="275" type="line"/>
      <point x="358" y="520" type="line"/>
    </contour>
    <contour>
      <point x="93" y="520" type="line"/>
      <point x="93" y="0" type="line"/>
      <point x="123" y="0" type="line"/>
      <point x="123" y="520" type="line"/>
    </contour>
    <contour>
      <point x="194" y="520" type="move" name="top"/>
    </contour>
    <contour>
      <point x="194" y="0" type="move" name="bottom"/>
    </contour>
  </outline>
</glyph>
<glyph name="Lslash" format="1">
  <advance width="386"/>
  <unicode hex="0141"/>
  <outline>
    <contour>
      <point x="103" y="331" type="line"/>
      <point x="33" y="279" type="line"/>
      <point x="46" y="257" type="line"/>
      <point x="306" y="453" type="line"/>
      <point x="293" y="475" type="line"/>
    </contour>
    <component base="L" xOffset="6"/>
  </outline>
</glyph>
<glyph name="lslash" format="1">
  <advance width="239"/>
  <unicode hex="0142"/>
  <outline>
    <contour>
      <point x="220" y="432" type="line"/>
      <point x="207" y="452" type="line"/>
      <point x="94" y="370" type="line"/>
      <point x="30" y="322" type="line"/>
      <point x="43" y="303" type="line"/>
    </contour>
    <component base="l" xOffset="6"/>
  </outline>
</glyph>
<glyph name="napostrophe" format="1">
  <advance width="538"/>
  <unicode hex="0149"/>
  <outline>
    <contour>
      <point x="63" y="738"/>
      <point x="52" y="724"/>
      <point x="52" y="707" type="curve" smooth="yes"/>
      <point x="52" y="691"/>
      <point x="61" y="682"/>
      <point x="73" y="677" type="curve"/>
      <point x="49" y="558" type="line"/>
      <point x="69" y="558" type="line"/>
      <point x="98" y="650" type="line" smooth="yes"/>
      <point x="108" y="681"/>
      <point x="113" y="692"/>
      <point x="113" y="707" type="curve" smooth="yes"/>
      <point x="113" y="725"/>
      <point x="102" y="738"/>
      <point x="83" y="738" type="curve" smooth="yes"/>
    </contour>
    <component base="n" xOffset="60"/>
  </outline>
</glyph>
<glyph name="OE" format="1">
  <advance width="700"/>
  <unicode hex="0152"/>
  <outline>
    <contour>
      <point x="152" y="692"/>
      <point x="60" y="565"/>
      <point x="60" y="339" type="curve" smooth="yes"/>
      <point x="60" y="114"/>
      <point x="151" y="-10"/>
      <point x="275" y="-10" type="curve" smooth="yes"/>
      <point x="307" y="-10"/>
      <point x="339" y="-1"/>
      <point x="363" y="20" type="curve"/>
      <point x="443" y="61"/>
      <point x="490" y="172"/>
      <point x="490" y="349" type="curve" smooth="yes"/>
      <point x="490" y="513"/>
      <point x="444" y="619"/>
      <point x="365" y="664" type="curve"/>
      <point x="342" y="683"/>
      <point x="309" y="692"/>
      <point x="275" y="692" type="curve" smooth="yes"/>
    </contour>
    <contour>
      <point x="366" y="29" type="line"/>
      <point x="326" y="0" type="line"/>
      <point x="666" y="0" type="line"/>
      <point x="666" y="29" type="line"/>
    </contour>
    <contour>
      <point x="476" y="373" type="line"/>
      <point x="476" y="344" type="line"/>
      <point x="625" y="344" type="line"/>
      <point x="625" y="373" type="line"/>
    </contour>
    <contour>
      <point x="328" y="682" type="line"/>
      <point x="360" y="653" type="line"/>
      <point x="657" y="653" type="line"/>
      <point x="661" y="682" type="line"/>
    </contour>
    <contour>
      <point x="382" y="663"/>
      <point x="458" y="556"/>
      <point x="458" y="349" type="curve" smooth="yes"/>
      <point x="458" y="129"/>
      <point x="385" y="19"/>
      <point x="275" y="19" type="curve" smooth="yes"/>
      <point x="171" y="19"/>
      <point x="92" y="129"/>
      <point x="92" y="339" type="curve" smooth="yes"/>
      <point x="92" y="554"/>
      <point x="170" y="663"/>
      <point x="275" y="663" type="curve"/>
    </contour>
    <contour>
      <point x="351" y="682" type="move" name="top"/>
    </contour>
    <contour>
      <point x="351" y="0" type="move" name="bottom"/>
    </contour>
  </outline>
</glyph>
<glyph name="oe" format="1">
  <advance width="752"/>
  <unicode hex="0153"/>
  <outline>
    <contour>
      <point x="125" y="530"/>
      <point x="56" y="439"/>
      <point x="56" y="259" type="curve" smooth="yes"/>
      <point x="56" y="84"/>
      <point x="122" y="-10"/>
      <point x="230" y="-10" type="curve" smooth="yes"/>
      <point x="338" y="-10"/>
      <point x="401" y="99"/>
      <point x="405" y="262" type="curve"/>
      <point x="401" y="426"/>
      <point x="340" y="530"/>
      <point x="231" y="530" type="curve" smooth="yes"/>
    </contour>
    <contour>
      <point x="321" y="502"/>
      <point x="374" y="418"/>
      <point x="374" y="262" type="curve" smooth="yes"/>
      <point x="374" y="103"/>
      <point x="319" y="18"/>
      <point x="230" y="18" type="curve" smooth="yes"/>
      <point x="141" y="18"/>
      <point x="87" y="95"/>
      <point x="87" y="259" type="curve" smooth="yes"/>
      <point x="87" y="429"/>
      <point x="144" y="502"/>
      <point x="231" y="502" type="curve" smooth="yes"/>
    </contour>
    <contour>
      <point x="438" y="530"/>
      <point x="379" y="416"/>
      <point x="374" y="256" type="curve"/>
      <point x="379" y="98"/>
      <point x="440" y="-10"/>
      <point x="550" y="-10" type="curve"/>
      <point x="604" y="-10"/>
      <point x="644" y="13"/>
      <point x="683" y="52" type="curve"/>
      <point x="666" y="71" type="line"/>
      <point x="630" y="38"/>
      <point x="599" y="18"/>
      <point x="550" y="18" type="curve" smooth="yes"/>
      <point x="467" y="18"/>
      <point x="408" y="91"/>
      <point x="405" y="256" type="curve"/>
      <point x="405" y="428"/>
      <point x="467" y="503"/>
      <point x="544" y="503" type="curve" smooth="yes"/>
      <point x="631" y="503"/>
      <point x="671" y="421"/>
      <point x="671" y="294" type="curve" smooth="yes"/>
      <point x="671" y="280"/>
      <point x="671" y="276"/>
      <point x="671" y="270" type="curve"/>
      <point x="400" y="270" type="line"/>
      <point x="400" y="244" type="line"/>
      <point x="699" y="244" type="line"/>
      <point x="700" y="253"/>
      <point x="701" y="268"/>
      <point x="701" y="283" type="curve" smooth="yes"/>
      <point x="701" y="436"/>
      <point x="648" y="530"/>
      <point x="545" y="530" type="curve" smooth="yes"/>
    </contour>
    <contour>
      <point x="390" y="520" type="move" name="top"/>
    </contour>
    <contour>
      <point x="393" y="0" type="move" name="bottom"/>
    </contour>
  </outline>
</glyph>
<glyph name="Tbar" format="1">
  <advance width="394"/>
  <unicode hex="0166"/>
  <outline>
    <contour>
      <point x="80" y="382" type="line"/>
      <point x="80" y="354" type="line"/>
      <point x="182" y="354" type="line"/>
      <point x="315" y="354" type="line"/>
      <point x="315" y="382" type="line"/>
    </contour>
    <component base="T"/>
  </outline>
</glyph>
<glyph name="tbar" format="1">
  <advance width="269"/>
  <unicode hex="0167"/>
  <outline>
    <contour>
      <point x="89" y="344" type="line"/>
      <point x="20" y="344" type="line"/>
      <point x="20" y="317" type="line"/>
      <point x="228" y="317" type="line"/>
      <point x="228" y="344" type="line"/>
    </contour>
    <component base="t"/>
  </outline>
</glyph>
<glyph name="longs" format="1">
  <advance width="256"/>
  <unicode hex="017F"/>
  <outline>
    <contour>
      <point x="140" y="738"/>
      <point x="96" y="698"/>
      <point x="96" y="627" type="curve" smooth="yes"/>
      <point x="96" y="0" type="line"/>
      <point x="126" y="0" type="line"/>
      <point x="126" y="623" type="line" smooth="yes"/>
      <point x="126" y="687"/>
      <point x="158" y="710"/>
      <point x="207" y="710" type="curve" smooth="yes"/>
      <point x="237" y="710"/>
      <point x="261" y="702"/>
      <point x="289" y="686" type="curve"/>
      <point x="302" y="709" type="line"/>
      <point x="273" y="727"/>
      <point x="240" y="738"/>
      <point x="205" y="738" type="curve" smooth="yes"/>
    </contour>
    <contour>
      <point x="23" y="520" type="line"/>
      <point x="23" y="493" type="line"/>
      <point x="109" y="493" type="line"/>
      <point x="114" y="520" type="line"/>
    </contour>
  </outline>
</glyph>
<glyph name="uni0180" format="1">
  <advance width="470"/>
  <unicode hex="0180"/>
  <outline>
    <contour>
      <point x="35" y="652" type="line"/>
      <point x="35" y="625" type="line"/>
      <point x="97" y="625" type="line"/>
      <point x="271" y="625" type="line"/>
      <point x="271" y="652" type="line"/>
    </contour>
    <component base="b" xOffset="4"/>
  </outline>
</glyph>
<glyph name="uni0183" format="1">
  <advance width="466"/>
  <unicode hex="0183"/>
  <outline>
    <contour>
      <point x="352" y="-10"/>
      <point x="410" y="84"/>
      <point x="410" y="264" type="curve" smooth="yes"/>
      <point x="410" y="446"/>
      <point x="354" y="530"/>
      <point x="257" y="530" type="curve" smooth="yes"/>
      <point x="191" y="530"/>
      <point x="147" y="488"/>
      <point x="117" y="434" type="curve"/>
      <point x="118" y="398" type="line"/>
      <point x="154" y="460"/>
      <point x="192" y="502"/>
      <point x="255" y="502" type="curve" smooth="yes"/>
      <point x="334" y="502"/>
      <point x="378" y="432"/>
      <point x="378" y="264" type="curve" smooth="yes"/>
      <point x="378" y="95"/>
      <point x="332" y="18"/>
      <point x="248" y="18" type="curve" smooth="yes"/>
      <point x="192" y="18"/>
      <point x="151" y="60"/>
      <point x="118" y="119" type="curve"/>
      <point x="116" y="83" type="line"/>
      <point x="141" y="36"/>
      <point x="187" y="-10"/>
      <point x="249" y="-10" type="curve" smooth="yes"/>
    </contour>
    <contour>
      <point x="119" y="0" type="line"/>
      <point x="123" y="96" type="line"/>
      <point x="123" y="734" type="line"/>
      <point x="93" y="734" type="line"/>
      <point x="93" y="0" type="line"/>
    </contour>
    <contour>
      <point x="317" y="706" type="line"/>
      <point x="323" y="734" type="line"/>
      <point x="101" y="734" type="line"/>
      <point x="123" y="706" type="line"/>
    </contour>
    <contour>
      <point x="243" y="734" type="move" name="top"/>
    </contour>
    <contour>
      <point x="246" y="0" type="move" name="bottom"/>
    </contour>
  </outline>
</glyph>
<glyph name="uni0184" format="1">
  <advance width="454"/>
  <unicode hex="0184"/>
  <outline>
    <contour>
      <point x="128" y="682" type="line"/>
      <point x="101" y="682" type="line"/>
      <point x="97" y="622" type="line"/>
      <point x="97" y="0" type="line"/>
      <point x="212" y="0" type="line" smooth="yes"/>
      <point x="340" y="0"/>
      <point x="419" y="64"/>
      <point x="419" y="213" type="curve" smooth="yes"/>
      <point x="419" y="348"/>
      <point x="347" y="412"/>
      <point x="213" y="412" type="curve" smooth="yes"/>
      <point x="121" y="412" type="line"/>
      <point x="121" y="383" type="line"/>
      <point x="215" y="383" type="line" smooth="yes"/>
      <point x="328" y="383"/>
      <point x="387" y="331"/>
      <point x="387" y="214" type="curve" smooth="yes"/>
      <point x="387" y="83"/>
      <point x="326" y="29"/>
      <point x="219" y="29" type="curve" smooth="yes"/>
      <point x="128" y="29" type="line"/>
    </contour>
    <contour>
      <point x="101" y="682" type="line"/>
      <point x="93" y="645"/>
      <point x="78" y="618"/>
      <point x="62" y="599" type="curve"/>
      <point x="97" y="570" type="line"/>
    </contour>
    <contour>
      <point x="227" y="682" type="move" name="top"/>
    </contour>
    <contour>
      <point x="227" y="0" type="move" name="bottom"/>
    </contour>
  </outline>
</glyph>
<glyph name="uni0185" format="1">
  <advance width="407"/>
  <unicode hex="0185"/>
  <outline>
    <contour>
      <point x="208" y="0" type="line"/>
      <point x="309" y="0"/>
      <point x="375" y="56"/>
      <point x="375" y="175" type="curve" smooth="yes"/>
      <point x="375" y="274"/>
      <point x="328" y="338"/>
      <point x="202" y="338" type="curve" smooth="yes"/>
      <point x="118" y="338" type="line"/>
      <point x="118" y="310" type="line"/>
      <point x="203" y="310" type="line" smooth="yes"/>
      <point x="309" y="310"/>
      <point x="344" y="258"/>
      <point x="344" y="175" type="curve" smooth="yes"/>
      <point x="344" y="71"/>
      <point x="295" y="28"/>
      <point x="205" y="28" type="curve" smooth="yes"/>
      <point x="125" y="28" type="line"/>
      <point x="125" y="520" type="line"/>
      <point x="99" y="520" type="line"/>
      <point x="95" y="462" type="line"/>
      <point x="95" y="0" type="line"/>
    </contour>
    <contour>
      <point x="99" y="520" type="line"/>
      <point x="88" y="485"/>
      <point x="77" y="466"/>
      <point x="60" y="447" type="curve"/>
      <point x="95" y="418" type="line"/>
    </contour>
    <contour>
      <point x="204" y="520" type="move" name="top"/>
    </contour>
    <contour>
      <point x="204" y="0" type="move" name="bottom"/>
    </contour>
  </outline>
</glyph>
<glyph name="uni0186" format="1">
  <advance width="446"/>
  <unicode hex="0186"/>
  <outline>
    <contour>
      <point x="114" y="692"/>
      <point x="66" y="668"/>
      <point x="27" y="633" type="curve"/>
      <point x="43" y="612" type="line"/>
      <point x="84" y="646"/>
      <point x="124" y="663"/>
      <point x="176" y="663" type="curve" smooth="yes"/>
      <point x="278" y="663"/>
      <point x="354" y="578"/>
      <point x="354" y="341" type="curve" smooth="yes"/>
      <point x="354" y="116"/>
      <point x="270" y="20"/>
      <point x="167" y="20" type="curve" smooth="yes"/>
      <point x="109" y="20"/>
      <point x="75" y="43"/>
      <point x="39" y="75" type="curve"/>
      <point x="20" y="55" type="line"/>
      <point x="55" y="19"/>
      <point x="100" y="-10"/>
      <point x="168" y="-10" type="curve" smooth="yes"/>
      <point x="291" y="-10"/>
      <point x="386" y="102"/>
      <point x="386" y="341" type="curve" smooth="yes"/>
      <point x="386" y="587"/>
      <point x="300" y="692"/>
      <point x="177" y="692" type="curve" smooth="yes"/>
    </contour>
    <contour>
      <point x="176" y="344" type="move" name="center"/>
    </contour>
    <contour>
      <point x="178" y="0" type="move" name="bottom"/>
    </contour>
    <contour>
      <point x="178" y="682" type="move" name="top"/>
    </contour>
  </outline>
</glyph>
<glyph name="uni0187" format="1">
  <advance width="446"/>
  <unicode hex="0187"/>
  <outline>
    <contour>
      <point x="160" y="692"/>
      <point x="60" y="589"/>
      <point x="60" y="341" type="curve" smooth="yes"/>
      <point x="60" y="99"/>
      <point x="155" y="-10"/>
      <point x="282" y="-10" type="curve" smooth="yes"/>
      <point x="346" y="-10"/>
      <point x="391" y="17"/>
      <point x="426" y="54" type="curve"/>
      <point x="407" y="75" type="line"/>
      <point x="374" y="44"/>
      <point x="342" y="20"/>
      <point x="282" y="20" type="curve" smooth="yes"/>
      <point x="175" y="20"/>
      <point x="92" y="113"/>
      <point x="92" y="341" type="curve" smooth="yes"/>
      <point x="92" y="578"/>
      <point x="178" y="663"/>
      <point x="285" y="663" type="curve" smooth="yes"/>
      <point x="334" y="663"/>
      <point x="364" y="647"/>
      <point x="400" y="615" type="curve"/>
      <point x="420" y="633" type="line"/>
      <point x="413" y="640"/>
      <point x="406" y="646"/>
      <point x="399" y="648" type="curve"/>
      <point x="368" y="677"/>
      <point x="333" y="692"/>
      <point x="283" y="692" type="curve" smooth="yes"/>
    </contour>
    <contour>
      <point x="426" y="818"/>
      <point x="390" y="782"/>
      <point x="390" y="711" type="curve" smooth="yes"/>
      <point x="390" y="638" type="line"/>
      <point x="420" y="633" type="line"/>
      <point x="420" y="710" type="line" smooth="yes"/>
      <point x="420" y="772"/>
      <point x="446" y="791"/>
      <point x="479" y="791" type="curve" smooth="yes"/>
      <point x="504" y="791"/>
      <point x="522" y="781"/>
      <point x="540" y="767" type="curve"/>
      <point x="556" y="787" type="line"/>
      <point x="539" y="802"/>
      <point x="514" y="818"/>
      <point x="479" y="818" type="curve" smooth="yes"/>
    </contour>
    <contour>
      <point x="223" y="682" type="move" name="top"/>
    </contour>
    <contour>
      <point x="223" y="0" type="move" name="bottom"/>
    </contour>
  </outline>
</glyph>
<glyph name="uni0188" format="1">
  <advance width="374"/>
  <unicode hex="0188"/>
  <outline>
    <contour>
      <point x="127" y="530"/>
      <point x="56" y="440"/>
      <point x="56" y="257" type="curve" smooth="yes"/>
      <point x="56" y="75"/>
      <point x="127" y="-10"/>
      <point x="234" y="-10" type="curve" smooth="yes"/>
      <point x="281" y="-10"/>
      <point x="320" y="11"/>
      <point x="352" y="44" type="curve"/>
      <point x="335" y="62" type="line"/>
      <point x="308" y="36"/>
      <point x="275" y="18"/>
      <point x="233" y="18" type="curve" smooth="yes"/>
      <point x="148" y="18"/>
      <point x="88" y="85"/>
      <point x="88" y="257" type="curve" smooth="yes"/>
      <point x="88" y="433"/>
      <point x="150" y="502"/>
      <point x="234" y="502" type="curve" smooth="yes"/>
      <point x="275" y="502"/>
      <point x="303" y="487"/>
      <point x="332" y="463" type="curve"/>
      <point x="347" y="480" type="line"/>
      <point x="339" y="488"/>
      <point x="332" y="495"/>
      <point x="325" y="499" type="curve"/>
      <point x="298" y="520"/>
      <point x="269" y="530"/>
      <point x="234" y="530" type="curve" smooth="yes"/>
    </contour>
    <contour>
      <point x="353" y="738"/>
      <point x="317" y="702"/>
      <point x="317" y="631" type="curve" smooth="yes"/>
      <point x="317" y="496" type="line"/>
      <point x="347" y="481" type="line"/>
      <point x="347" y="630" type="line" smooth="yes"/>
      <point x="347" y="692"/>
      <point x="373" y="711"/>
      <point x="406" y="711" type="curve" smooth="yes"/>
      <point x="431" y="711"/>
      <point x="449" y="701"/>
      <point x="467" y="687" type="curve"/>
      <point x="483" y="707" type="line"/>
      <point x="466" y="722"/>
      <point x="441" y="738"/>
      <point x="406" y="738" type="curve" smooth="yes"/>
    </contour>
    <contour>
      <point x="190" y="734" type="move" name="top"/>
    </contour>
    <contour>
      <point x="190" y="0" type="move" name="bottom"/>
    </contour>
  </outline>
</glyph>
<glyph name="uni018B" format="1">
  <advance width="464"/>
  <unicode hex="018B"/>
  <outline>
    <contour>
      <point x="100" y="653" type="line"/>
      <point x="345" y="653" type="line"/>
      <point x="367" y="682" type="line"/>
      <point x="100" y="682" type="line"/>
    </contour>
    <component base="uni0500" xOffset="10"/>
    <contour>
      <point x="233" y="682" type="move" name="top"/>
    </contour>
    <contour>
      <point x="233" y="0" type="move" name="bottom"/>
    </contour>
  </outline>
</glyph>
<glyph name="uni018C" format="1">
  <advance width="470"/>
  <unicode hex="018C"/>
  <outline>
    <contour>
      <point x="287" y="-10"/>
      <point x="327" y="37"/>
      <point x="351" y="91" type="curve"/>
      <point x="351" y="141" type="line"/>
      <point x="321" y="63"/>
      <point x="282" y="18"/>
      <point x="217" y="18" type="curve" smooth="yes"/>
      <point x="138" y="18"/>
      <point x="89" y="99"/>
      <point x="88" y="258" type="curve" smooth="yes"/>
      <point x="87" y="420"/>
      <point x="144" y="502"/>
      <point x="225" y="502" type="curve" smooth="yes"/>
      <point x="289" y="502"/>
      <point x="327" y="454"/>
      <point x="352" y="403" type="curve"/>
      <point x="353" y="446" type="line"/>
      <point x="330" y="486"/>
      <point x="292" y="530"/>
      <point x="225" y="530" type="curve" smooth="yes"/>
      <point x="121" y="530"/>
      <point x="56" y="426"/>
      <point x="56" y="258" type="curve" smooth="yes"/>
      <point x="56" y="84"/>
      <point x="119" y="-10"/>
      <point x="217" y="-10" type="curve" smooth="yes"/>
    </contour>
    <contour>
      <point x="377" y="0" type="line"/>
      <point x="377" y="734" type="line"/>
      <point x="347" y="734" type="line"/>
      <point x="347" y="117" type="line"/>
      <point x="347" y="96" type="line"/>
      <point x="350" y="0" type="line"/>
    </contour>
    <contour>
      <point x="347" y="706" type="line"/>
      <point x="368" y="734" type="line"/>
      <point x="149" y="734" type="line"/>
      <point x="149" y="706" type="line"/>
    </contour>
    <contour>
      <point x="232" y="734" type="move" name="top"/>
    </contour>
    <contour>
      <point x="232" y="0" type="move" name="bottom"/>
    </contour>
  </outline>
</glyph>
<glyph name="uni018D" format="1">
  <advance width="459"/>
  <unicode hex="018D"/>
  <outline>
    <contour>
      <point x="359" y="-13"/>
      <point x="323" y="23"/>
      <point x="244" y="58" type="curve" smooth="yes"/>
      <point x="124" y="111"/>
      <point x="87" y="169"/>
      <point x="87" y="300" type="curve" smooth="yes"/>
      <point x="87" y="429"/>
      <point x="138" y="502"/>
      <point x="232" y="502" type="curve" smooth="yes"/>
      <point x="319" y="502"/>
      <point x="372" y="431"/>
      <point x="372" y="300" type="curve" smooth="yes"/>
      <point x="372" y="161"/>
      <point x="310" y="87"/>
      <point x="226" y="54" type="curve"/>
      <point x="255" y="43" type="line"/>
      <point x="345" y="83"/>
      <point x="403" y="166"/>
      <point x="403" y="300" type="curve" smooth="yes"/>
      <point x="403" y="447"/>
      <point x="338" y="530"/>
      <point x="232" y="530" type="curve" smooth="yes"/>
      <point x="120" y="530"/>
      <point x="56" y="445"/>
      <point x="56" y="300" type="curve" smooth="yes"/>
      <point x="56" y="160"/>
      <point x="104" y="94"/>
      <point x="213" y="45" type="curve" smooth="yes"/>
      <point x="306" y="3"/>
      <point x="328" y="-25"/>
      <point x="328" y="-78" type="curve" smooth="yes"/>
      <point x="328" y="-138"/>
      <point x="290" y="-177"/>
      <point x="225" y="-177" type="curve" smooth="yes"/>
      <point x="181" y="-177"/>
      <point x="153" y="-165"/>
      <point x="118" y="-139" type="curve"/>
      <point x="101" y="-160" type="line"/>
      <point x="138" y="-189"/>
      <point x="174" y="-205"/>
      <point x="225" y="-205" type="curve" smooth="yes"/>
      <point x="307" y="-205"/>
      <point x="359" y="-150"/>
      <point x="359" y="-79" type="curve" smooth="yes"/>
    </contour>
    <contour>
      <point x="229" y="520" type="move" name="top"/>
    </contour>
    <contour>
      <point x="229" y="-193" type="move" name="bottom"/>
    </contour>
  </outline>
</glyph>
<glyph name="uni018E" format="1">
  <advance width="408"/>
  <unicode hex="018E"/>
  <outline>
    <contour>
      <point x="40" y="653" type="line"/>
      <point x="280" y="653" type="line"/>
      <point x="280" y="373" type="line"/>
      <point x="75" y="373" type="line"/>
      <point x="75" y="345" type="line"/>
      <point x="280" y="345" type="line"/>
      <point x="280" y="29" type="line"/>
      <point x="34" y="29" type="line"/>
      <point x="34" y="0" type="line"/>
      <point x="311" y="0" type="line"/>
      <point x="311" y="682" type="line"/>
      <point x="40" y="682" type="line"/>
    </contour>
    <contour>
      <point x="175" y="682" type="move" name="top"/>
    </contour>
    <contour>
      <point x="173" y="0" type="move" name="bottom"/>
    </contour>
  </outline>
</glyph>
<glyph name="uni0190" format="1">
  <advance width="426"/>
  <unicode hex="0190"/>
  <outline>
    <contour>
      <point x="127" y="692"/>
      <point x="65" y="625"/>
      <point x="65" y="525" type="curve" smooth="yes"/>
      <point x="65" y="435"/>
      <point x="110" y="386"/>
      <point x="172" y="370" type="curve"/>
      <point x="107" y="361"/>
      <point x="48" y="306"/>
      <point x="48" y="195" type="curve" smooth="yes"/>
      <point x="48" y="61"/>
      <point x="125" y="-10"/>
      <point x="231" y="-10" type="curve" smooth="yes"/>
      <point x="297" y="-10"/>
      <point x="354" y="21"/>
      <point x="403" y="82" type="curve"/>
      <point x="380" y="99" type="line"/>
      <point x="339" y="49"/>
      <point x="294" y="19"/>
      <point x="231" y="19" type="curve" smooth="yes"/>
      <point x="143" y="19"/>
      <point x="80" y="78"/>
      <point x="80" y="194" type="curve" smooth="yes"/>
      <point x="80" y="297"/>
      <point x="133" y="357"/>
      <point x="230" y="355" type="curve" smooth="yes"/>
      <point x="276" y="354" type="line"/>
      <point x="280" y="383" type="line"/>
      <point x="233" y="383" type="line" smooth="yes"/>
      <point x="153" y="383"/>
      <point x="97" y="432"/>
      <point x="97" y="527" type="curve" smooth="yes"/>
      <point x="97" y="610"/>
      <point x="147" y="663"/>
      <point x="224" y="663" type="curve" smooth="yes"/>
      <point x="282" y="663"/>
      <point x="326" y="635"/>
      <point x="366" y="591" type="curve"/>
      <point x="386" y="609" type="line"/>
      <point x="339" y="662"/>
      <point x="289" y="692"/>
      <point x="223" y="692" type="curve" smooth="yes"/>
    </contour>
    <contour>
      <point x="213" y="682" type="move" name="top"/>
    </contour>
    <contour>
      <point x="213" y="0" type="move" name="bottom"/>
    </contour>
  </outline>
</glyph>
<glyph name="florin" format="1">
  <advance width="256"/>
  <unicode hex="0192"/>
  <outline>
    <contour>
      <point x="140" y="738"/>
      <point x="96" y="698"/>
      <point x="96" y="627" type="curve" smooth="yes"/>
      <point x="96" y="0" type="line" smooth="yes"/>
      <point x="126" y="44" type="line"/>
      <point x="126" y="623" type="line" smooth="yes"/>
      <point x="126" y="687"/>
      <point x="158" y="710"/>
      <point x="207" y="710" type="curve" smooth="yes"/>
      <point x="237" y="710"/>
      <point x="261" y="702"/>
      <point x="289" y="686" type="curve"/>
      <point x="302" y="709" type="line"/>
      <point x="273" y="727"/>
      <point x="240" y="738"/>
      <point x="205" y="738" type="curve" smooth="yes"/>
    </contour>
    <contour>
      <point x="23" y="520" type="line"/>
      <point x="23" y="493" type="line"/>
      <point x="239" y="493" type="line"/>
      <point x="244" y="520" type="line"/>
    </contour>
    <contour>
      <point x="96" y="320" type="line"/>
      <point x="96" y="9" type="line"/>
      <point x="96" y="-108"/>
      <point x="73" y="-138"/>
      <point x="16" y="-174" type="curve"/>
      <point x="25" y="-196" type="line"/>
      <point x="93" y="-156"/>
      <point x="126" y="-124"/>
      <point x="126" y="8" type="curve" smooth="yes"/>
      <point x="126" y="320" type="line"/>
    </contour>
  </outline>
</glyph>
<glyph name="uni0193" format="1">
  <advance width="458"/>
  <unicode hex="0193"/>
  <outline>
    <contour>
      <point x="175" y="692"/>
      <point x="60" y="598"/>
      <point x="60" y="345" type="curve" smooth="yes"/>
      <point x="60" y="94"/>
      <point x="153" y="-10"/>
      <point x="291" y="-10" type="curve" smooth="yes"/>
      <point x="343" y="-10"/>
      <point x="397" y="8"/>
      <point x="444" y="42" type="curve"/>
      <point x="444" y="359" type="line"/>
      <point x="294" y="359" type="line"/>
      <point x="298" y="330" type="line"/>
      <point x="414" y="330" type="line"/>
      <point x="414" y="58" type="line"/>
      <point x="377" y="33"/>
      <point x="341" y="19"/>
      <point x="289" y="19" type="curve" smooth="yes"/>
      <point x="171" y="19"/>
      <point x="92" y="110"/>
      <point x="92" y="345" type="curve" smooth="yes"/>
      <point x="92" y="589"/>
      <point x="193" y="663"/>
      <point x="289" y="663" type="curve" smooth="yes"/>
      <point x="338" y="663"/>
      <point x="373" y="647"/>
      <point x="414" y="612" type="curve"/>
      <point x="432" y="631" type="line"/>
      <point x="424" y="638"/>
      <point x="416" y="645"/>
      <point x="409" y="649" type="curve"/>
      <point x="374" y="678"/>
      <point x="337" y="692"/>
      <point x="289" y="692" type="curve" smooth="yes"/>
    </contour>
    <contour>
      <point x="438" y="818"/>
      <point x="402" y="782"/>
      <point x="402" y="711" type="curve" smooth="yes"/>
      <point x="402" y="638" type="line"/>
      <point x="432" y="631" type="line"/>
      <point x="432" y="710" type="line" smooth="yes"/>
      <point x="432" y="772"/>
      <point x="458" y="791"/>
      <point x="491" y="791" type="curve" smooth="yes"/>
      <point x="516" y="791"/>
      <point x="534" y="781"/>
      <point x="552" y="767" type="curve"/>
      <point x="568" y="787" type="line"/>
      <point x="551" y="802"/>
      <point x="526" y="818"/>
      <point x="491" y="818" type="curve" smooth="yes"/>
    </contour>
    <contour>
      <point x="230" y="682" type="move" name="top"/>
    </contour>
    <contour>
      <point x="230" y="0" type="move" name="bottom"/>
    </contour>
  </outline>
</glyph>
<glyph name="uni0194" format="1">
  <advance width="455"/>
  <unicode hex="0194"/>
  <outline>
    <contour>
      <point x="270" y="-199"/>
      <point x="293" y="-169"/>
      <point x="293" y="-123" type="curve" smooth="yes"/>
      <point x="293" y="-73"/>
      <point x="276" y="-28"/>
      <point x="246" y="52" type="curve"/>
      <point x="228" y="76" type="line"/>
      <point x="56" y="682" type="line"/>
      <point x="25" y="682" type="line"/>
      <point x="209" y="52" type="line"/>
      <point x="228" y="29" type="line"/>
      <point x="250" y="-39"/>
      <point x="263" y="-78"/>
      <point x="263" y="-122" type="curve" smooth="yes"/>
      <point x="263" y="-156"/>
      <point x="251" y="-171"/>
      <point x="228" y="-171" type="curve" smooth="yes"/>
      <point x="204" y="-171"/>
      <point x="192" y="-156"/>
      <point x="192" y="-122" type="curve" smooth="yes"/>
      <point x="192" y="-77"/>
      <point x="205" y="-39"/>
      <point x="228" y="29" type="curve"/>
      <point x="246" y="52" type="line"/>
      <point x="430" y="682" type="line"/>
      <point x="399" y="682" type="line"/>
      <point x="228" y="76" type="line"/>
      <point x="209" y="52" type="line"/>
      <point x="180" y="-29"/>
      <point x="162" y="-75"/>
      <point x="162" y="-123" type="curve" smooth="yes"/>
      <point x="162" y="-171"/>
      <point x="188" y="-199"/>
      <point x="228" y="-199" type="curve" smooth="yes"/>
    </contour>
    <contour>
      <point x="227" y="682" type="move" name="top"/>
    </contour>
    <contour>
      <point x="227" y="-193" type="move" name="bottom"/>
    </contour>
  </outline>
</glyph>
<glyph name="uni0195" format="1">
  <advance width="733"/>
  <unicode hex="0195"/>
  <outline>
    <contour>
      <point x="583" y="-10"/>
      <point x="658" y="71"/>
      <point x="658" y="255" type="curve" smooth="yes"/>
      <point x="658" y="357"/>
      <point x="648" y="444"/>
      <point x="636" y="520" type="curve"/>
      <point x="606" y="520" type="line"/>
      <point x="617" y="444"/>
      <point x="627" y="356"/>
      <point x="627" y="255" type="curve" smooth="yes"/>
      <point x="627" y="76"/>
      <point x="561" y="18"/>
      <point x="489" y="18" type="curve" smooth="yes"/>
      <point x="433" y="18"/>
      <point x="390" y="54"/>
      <point x="390" y="137" type="curve" smooth="yes"/>
      <point x="390" y="320" type="line"/>
      <point x="360" y="320" type="line"/>
      <point x="360" y="136" type="line" smooth="yes"/>
      <point x="360" y="40"/>
      <point x="416" y="-10"/>
      <point x="489" y="-10" type="curve" smooth="yes"/>
    </contour>
    <contour>
      <point x="123" y="0" type="line"/>
      <point x="123" y="739" type="line"/>
      <point x="93" y="734" type="line"/>
      <point x="93" y="0" type="line"/>
    </contour>
    <contour>
      <point x="390" y="300" type="line"/>
      <point x="390" y="380" type="line" smooth="yes"/>
      <point x="390" y="472"/>
      <point x="351" y="530"/>
      <point x="274" y="530" type="curve" smooth="yes"/>
      <point x="200" y="530"/>
      <point x="153" y="475"/>
      <point x="115" y="407" type="curve"/>
      <point x="123" y="379" type="line"/>
      <point x="162" y="453"/>
      <point x="209" y="503"/>
      <point x="271" y="503" type="curve" smooth="yes"/>
      <point x="330" y="503"/>
      <point x="360" y="459"/>
      <point x="360" y="376" type="curve" smooth="yes"/>
      <point x="360" y="300" type="line"/>
    </contour>
    <contour>
      <point x="365" y="734" type="move" name="top"/>
    </contour>
    <contour>
      <point x="365" y="0" type="move" name="bottom"/>
    </contour>
  </outline>
</glyph>
<glyph name="uni0196" format="1">
  <advance width="268"/>
  <unicode hex="0196"/>
  <outline>
    <contour>
      <point x="87" y="682" type="line"/>
      <point x="87" y="189" type="line"/>
      <point x="118" y="189" type="line"/>
      <point x="118" y="682" type="line"/>
    </contour>
    <component base="hookHELPER.case" xOffset="284" yOffset="189" xScale="-1"/>
    <contour>
      <point x="103" y="682" type="move" name="top"/>
    </contour>
    <contour>
      <point x="158" y="0" type="move" name="bottom"/>
    </contour>
  </outline>
</glyph>
<glyph name="uni0198" format="1">
  <advance width="462"/>
  <unicode hex="0198"/>
  <outline>
    <contour>
      <point x="97" y="682" type="line"/>
      <point x="97" y="0" type="line"/>
      <point x="128" y="0" type="line"/>
      <point x="128" y="682" type="line"/>
    </contour>
    <contour>
      <point x="428" y="0" type="line"/>
      <point x="167" y="367" type="line"/>
      <point x="315" y="617" type="line" smooth="yes"/>
      <point x="337" y="654"/>
      <point x="355" y="666"/>
      <point x="381" y="666" type="curve" smooth="yes"/>
      <point x="406" y="666"/>
      <point x="418" y="656"/>
      <point x="436" y="640" type="curve"/>
      <point x="452" y="658" type="line"/>
      <point x="434" y="677"/>
      <point x="412" y="692"/>
      <point x="380" y="692" type="curve" smooth="yes"/>
      <point x="341" y="692"/>
      <point x="314" y="669"/>
      <point x="291" y="631" type="curve" smooth="yes"/>
      <point x="131" y="367" type="line"/>
      <point x="393" y="0" type="line"/>
    </contour>
    <contour>
      <point x="227" y="682" type="move" name="top"/>
    </contour>
    <contour>
      <point x="227" y="0" type="move" name="bottom"/>
    </contour>
  </outline>
</glyph>
<glyph name="uni0199" format="1">
  <advance width="388"/>
  <unicode hex="0199"/>
  <outline>
    <contour>
      <point x="323" y="520" type="line"/>
      <point x="128" y="284" type="line"/>
      <point x="343" y="0" type="line"/>
      <point x="378" y="0" type="line"/>
      <point x="163" y="285" type="line"/>
      <point x="358" y="520" type="line"/>
    </contour>
    <contour>
      <point x="93" y="520" type="line"/>
      <point x="93" y="0" type="line"/>
      <point x="123" y="0" type="line"/>
      <point x="123" y="520" type="line"/>
    </contour>
    <component base="hookaboveHELPER" xOffset="62"/>
  </outline>
</glyph>
<glyph name="uni019B" format="1">
  <advance width="374"/>
  <unicode hex="019B"/>
  <outline>
    <contour>
      <point x="197" y="490" type="line"/>
      <point x="249" y="165"/>
      <point x="300" y="82"/>
      <point x="352" y="-6" type="curve"/>
      <point x="379" y="5" type="line"/>
      <point x="328" y="93"/>
      <point x="277" y="171"/>
      <point x="222" y="510" type="curve" smooth="yes"/>
      <point x="199" y="649"/>
      <point x="169" y="712"/>
      <point x="70" y="738" type="curve"/>
      <point x="66" y="715" type="line"/>
      <point x="147" y="691"/>
      <point x="172" y="635"/>
      <point x="192" y="520" type="curve"/>
      <point x="179" y="520" type="line"/>
      <point x="30" y="1" type="line"/>
      <point x="58" y="-6" type="line"/>
    </contour>
    <contour>
      <point x="169" y="645" type="line"/>
      <point x="178" y="655" type="line"/>
      <point x="243" y="736" type="line"/>
      <point x="223" y="750" type="line"/>
      <point x="160" y="670" type="line"/>
      <point x="150" y="660" type="line"/>
      <point x="79" y="571" type="line"/>
      <point x="100" y="560" type="line"/>
    </contour>
    <contour>
      <point x="188" y="734" type="move" name="top"/>
    </contour>
    <contour>
      <point x="188" y="0" type="move" name="bottom"/>
    </contour>
  </outline>
</glyph>
<glyph name="uni019C" format="1">
  <advance width="758"/>
  <unicode hex="019C"/>
  <outline>
    <contour>
      <point x="555" y="-10"/>
      <point x="610" y="50"/>
      <point x="641" y="121" type="curve"/>
      <point x="630" y="149" type="line"/>
      <point x="599" y="79"/>
      <point x="553" y="19"/>
      <point x="488" y="19" type="curve" smooth="yes"/>
      <point x="425" y="19"/>
      <point x="390" y="73"/>
      <point x="390" y="155" type="curve" smooth="yes"/>
      <point x="390" y="682" type="line"/>
      <point x="359" y="682" type="line"/>
      <point x="359" y="160" type="line" smooth="yes"/>
      <point x="359" y="58"/>
      <point x="405" y="-10"/>
      <point x="487" y="-10" type="curve" smooth="yes"/>
    </contour>
    <contour>
      <point x="661" y="0" type="line"/>
      <point x="661" y="682" type="line"/>
      <point x="630" y="682" type="line"/>
      <point x="630" y="141" type="line"/>
      <point x="634" y="0" type="line"/>
    </contour>
    <contour>
      <point x="284" y="-10"/>
      <point x="339" y="50"/>
      <point x="374" y="122" type="curve"/>
      <point x="362" y="153" type="line"/>
      <point x="328" y="79"/>
      <point x="282" y="19"/>
      <point x="216" y="19" type="curve" smooth="yes"/>
      <point x="153" y="19"/>
      <point x="118" y="73"/>
      <point x="118" y="155" type="curve" smooth="yes"/>
      <point x="118" y="682" type="line"/>
      <point x="87" y="682" type="line"/>
      <point x="87" y="157" type="line" smooth="yes"/>
      <point x="87" y="58"/>
      <point x="133" y="-10"/>
      <point x="216" y="-10" type="curve" smooth="yes"/>
    </contour>
    <contour>
      <point x="375" y="682" type="move" name="top"/>
    </contour>
    <contour>
      <point x="378" y="0" type="move" name="bottom"/>
    </contour>
  </outline>
</glyph>
<glyph name="uni019D" format="1">
  <advance width="547"/>
  <unicode hex="019D"/>
  <outline>
    <contour>
      <point x="89" y="-199"/>
      <point x="127" y="-166"/>
      <point x="127" y="-98" type="curve" smooth="yes"/>
      <point x="127" y="1" type="line"/>
      <point x="97" y="1" type="line"/>
      <point x="97" y="-98" type="line" smooth="yes"/>
      <point x="97" y="-155"/>
      <point x="70" y="-172"/>
      <point x="39" y="-172" type="curve" smooth="yes"/>
      <point x="10" y="-172"/>
      <point x="-9" y="-159"/>
      <point x="-23" y="-148" type="curve"/>
      <point x="-39" y="-168" type="line"/>
      <point x="-22" y="-183"/>
      <point x="3" y="-199"/>
      <point x="40" y="-199" type="curve" smooth="yes"/>
    </contour>
    <component base="N"/>
  </outline>
</glyph>
<glyph name="uni01A2" format="1">
  <advance width="729"/>
  <unicode hex="01A2"/>
  <outline>
    <contour>
      <point x="476" y="692"/>
      <point x="436" y="666"/>
      <point x="402" y="641" type="curve"/>
      <point x="417" y="621" type="line"/>
      <point x="449" y="644"/>
      <point x="482" y="665"/>
      <point x="529" y="665" type="curve" smooth="yes"/>
      <point x="572" y="665"/>
      <point x="601" y="640"/>
      <point x="601" y="570" type="curve" smooth="yes"/>
      <point x="601" y="-193" type="line"/>
      <point x="632" y="-193" type="line"/>
      <point x="632" y="571" type="line" smooth="yes"/>
      <point x="632" y="654"/>
      <point x="592" y="692"/>
      <point x="529" y="692" type="curve" smooth="yes"/>
    </contour>
    <contour>
      <point x="152" y="692"/>
      <point x="60" y="576"/>
      <point x="60" y="339" type="curve" smooth="yes"/>
      <point x="60" y="106"/>
      <point x="151" y="-10"/>
      <point x="283" y="-10" type="curve"/>
      <point x="420" y="-10"/>
      <point x="506" y="108"/>
      <point x="506" y="340" type="curve" smooth="yes"/>
      <point x="506" y="582"/>
      <point x="416" y="692"/>
      <point x="283" y="692" type="curve" smooth="yes"/>
    </contour>
    <contour>
      <point x="398" y="663"/>
      <point x="474" y="566"/>
      <point x="474" y="340" type="curve" smooth="yes"/>
      <point x="474" y="119"/>
      <point x="402" y="19"/>
      <point x="283" y="19" type="curve" smooth="yes"/>
      <point x="171" y="19"/>
      <point x="92" y="119"/>
      <point x="92" y="339" type="curve" smooth="yes"/>
      <point x="92" y="564"/>
      <point x="170" y="663"/>
      <point x="283" y="663" type="curve"/>
    </contour>
    <contour>
      <point x="365" y="682" type="move" name="top"/>
    </contour>
    <contour>
      <point x="365" y="-193" type="move" name="bottom"/>
    </contour>
  </outline>
</glyph>
<glyph name="uni01A3" format="1">
  <advance width="615"/>
  <unicode hex="01A3"/>
  <outline>
    <contour>
      <point x="522" y="-199" type="line"/>
      <point x="522" y="407" type="line" smooth="yes"/>
      <point x="522" y="487"/>
      <point x="482" y="530"/>
      <point x="416" y="530" type="curve" smooth="yes"/>
      <point x="374" y="530"/>
      <point x="341" y="516"/>
      <point x="312" y="498" type="curve"/>
      <point x="334" y="482" type="line"/>
      <point x="357" y="494"/>
      <point x="382" y="503"/>
      <point x="416" y="503" type="curve" smooth="yes"/>
      <point x="462" y="503"/>
      <point x="492" y="476"/>
      <point x="492" y="406" type="curve" smooth="yes"/>
      <point x="492" y="-193" type="line"/>
    </contour>
    <contour>
      <point x="125" y="530"/>
      <point x="56" y="440"/>
      <point x="56" y="259" type="curve" smooth="yes"/>
      <point x="56" y="82"/>
      <point x="122" y="-10"/>
      <point x="230" y="-10" type="curve" smooth="yes"/>
      <point x="337" y="-10"/>
      <point x="405" y="80"/>
      <point x="405" y="262" type="curve" smooth="yes"/>
      <point x="405" y="445"/>
      <point x="339" y="530"/>
      <point x="231" y="530" type="curve" smooth="yes"/>
    </contour>
    <contour>
      <point x="321" y="502"/>
      <point x="374" y="428"/>
      <point x="374" y="262" type="curve" smooth="yes"/>
      <point x="374" y="93"/>
      <point x="319" y="18"/>
      <point x="230" y="18" type="curve" smooth="yes"/>
      <point x="141" y="18"/>
      <point x="87" y="95"/>
      <point x="87" y="259" type="curve" smooth="yes"/>
      <point x="87" y="429"/>
      <point x="144" y="502"/>
      <point x="231" y="502" type="curve" smooth="yes"/>
    </contour>
    <contour>
      <point x="307" y="520" type="move" name="top"/>
    </contour>
    <contour>
      <point x="307" y="-193" type="move" name="bottom"/>
    </contour>
  </outline>
</glyph>
<glyph name="uni01A6" format="1">
  <advance width="475"/>
  <unicode hex="01A6"/>
  <outline>
    <contour>
      <point x="444" y="-129" type="line"/>
      <point x="286" y="203" type="line"/>
      <point x="255" y="198" type="line"/>
      <point x="411" y="-129" type="line"/>
    </contour>
    <contour>
      <point x="128" y="0" type="line"/>
      <point x="128" y="682" type="line"/>
      <point x="97" y="682" type="line"/>
      <point x="97" y="0" type="line"/>
    </contour>
    <contour>
      <point x="216" y="191" type="line" smooth="yes"/>
      <point x="341" y="191"/>
      <point x="416" y="256"/>
      <point x="416" y="374" type="curve" smooth="yes"/>
      <point x="416" y="486"/>
      <point x="357" y="553"/>
      <point x="206" y="553" type="curve" smooth="yes"/>
      <point x="119" y="553" type="line"/>
      <point x="119" y="523" type="line"/>
      <point x="203" y="524" type="line" smooth="yes"/>
      <point x="340" y="526"/>
      <point x="383" y="470"/>
      <point x="383" y="374" type="curve" smooth="yes"/>
      <point x="383" y="268"/>
      <point x="327" y="220"/>
      <point x="211" y="220" type="curve" smooth="yes"/>
      <point x="121" y="220" type="line"/>
      <point x="121" y="191" type="line"/>
    </contour>
    <contour>
      <point x="238" y="682" type="move" name="top"/>
    </contour>
    <contour>
      <point x="238" y="-193" type="move" name="bottom"/>
    </contour>
  </outline>
</glyph>
<glyph name="uni01A7" format="1">
  <advance width="432"/>
  <unicode hex="01A7"/>
  <outline>
    <contour>
      <point x="158" y="692"/>
      <point x="115" y="664"/>
      <point x="68" y="620" type="curve"/>
      <point x="87" y="599" type="line"/>
      <point x="133" y="644"/>
      <point x="172" y="663"/>
      <point x="230" y="663" type="curve" smooth="yes"/>
      <point x="305" y="663"/>
      <point x="346" y="612"/>
      <point x="346" y="538" type="curve" smooth="yes"/>
      <point x="346" y="453"/>
      <point x="311" y="421"/>
      <point x="211" y="381" type="curve" smooth="yes"/>
      <point x="102" y="337"/>
      <point x="51" y="285"/>
      <point x="51" y="177" type="curve" smooth="yes"/>
      <point x="51" y="63"/>
      <point x="124" y="-10"/>
      <point x="219" y="-10" type="curve" smooth="yes"/>
      <point x="294" y="-10"/>
      <point x="347" y="23"/>
      <point x="393" y="73" type="curve"/>
      <point x="373" y="93" type="line"/>
      <point x="332" y="49"/>
      <point x="289" y="19"/>
      <point x="220" y="19" type="curve" smooth="yes"/>
      <point x="141" y="19"/>
      <point x="83" y="77"/>
      <point x="83" y="176" type="curve" smooth="yes"/>
      <point x="83" y="272"/>
      <point x="118" y="312"/>
      <point x="222" y="355" type="curve" smooth="yes"/>
      <point x="335" y="402"/>
      <point x="378" y="444"/>
      <point x="378" y="538" type="curve" smooth="yes"/>
      <point x="378" y="626"/>
      <point x="323" y="692"/>
      <point x="230" y="692" type="curve" smooth="yes"/>
    </contour>
    <contour>
      <point x="216" y="682" type="move" name="top"/>
    </contour>
    <contour>
      <point x="216" y="0" type="move" name="bottom"/>
    </contour>
  </outline>
</glyph>
<glyph name="uni01A8" format="1">
  <advance width="370"/>
  <unicode hex="01A8"/>
  <outline>
    <contour>
      <point x="142" y="530"/>
      <point x="99" y="512"/>
      <point x="58" y="473" type="curve"/>
      <point x="76" y="455" type="line"/>
      <point x="113" y="487"/>
      <point x="147" y="502"/>
      <point x="189" y="502" type="curve" smooth="yes"/>
      <point x="252" y="502"/>
      <point x="293" y="466"/>
      <point x="293" y="406" type="curve" smooth="yes"/>
      <point x="293" y="344"/>
      <point x="263" y="317"/>
      <point x="182" y="287" type="curve" smooth="yes"/>
      <point x="86" y="252"/>
      <point x="47" y="214"/>
      <point x="47" y="129" type="curve" smooth="yes"/>
      <point x="47" y="45"/>
      <point x="106" y="-10"/>
      <point x="187" y="-10" type="curve" smooth="yes"/>
      <point x="250" y="-10"/>
      <point x="295" y="19"/>
      <point x="331" y="56" type="curve"/>
      <point x="312" y="75" type="line"/>
      <point x="277" y="40"/>
      <point x="239" y="18"/>
      <point x="187" y="18" type="curve" smooth="yes"/>
      <point x="125" y="18"/>
      <point x="78" y="55"/>
      <point x="78" y="129" type="curve" smooth="yes"/>
      <point x="78" y="201"/>
      <point x="101" y="231"/>
      <point x="196" y="265" type="curve" smooth="yes"/>
      <point x="286" y="297"/>
      <point x="324" y="334"/>
      <point x="324" y="406" type="curve" smooth="yes"/>
      <point x="324" y="480"/>
      <point x="269" y="530"/>
      <point x="190" y="530" type="curve" smooth="yes"/>
    </contour>
    <contour>
      <point x="185" y="520" type="move" name="top"/>
    </contour>
    <contour>
      <point x="185" y="0" type="move" name="bottom"/>
    </contour>
  </outline>
</glyph>
<glyph name="uni01AA" format="1">
  <advance width="221"/>
  <unicode hex="01AA"/>
  <outline>
    <contour>
      <point x="-4" y="738"/>
      <point x="-39" y="700"/>
      <point x="-39" y="626" type="curve" smooth="yes"/>
      <point x="-39" y="551"/>
      <point x="-3" y="519"/>
      <point x="47" y="519" type="curve" smooth="yes"/>
      <point x="76" y="519"/>
      <point x="100" y="531"/>
      <point x="117" y="550" type="curve"/>
      <point x="111" y="570" type="line"/>
      <point x="94" y="557"/>
      <point x="76" y="546"/>
      <point x="48" y="546" type="curve" smooth="yes"/>
      <point x="15" y="546"/>
      <point x="-9" y="562"/>
      <point x="-9" y="627" type="curve" smooth="yes"/>
      <point x="-9" y="687"/>
      <point x="12" y="711"/>
      <point x="46" y="711" type="curve" smooth="yes"/>
      <point x="80" y="711"/>
      <point x="98" y="688"/>
      <point x="98" y="641" type="curve" smooth="yes"/>
      <point x="98" y="0" type="line"/>
      <point x="128" y="0" type="line"/>
      <point x="128" y="642" type="line" smooth="yes"/>
      <point x="128" y="699"/>
      <point x="99" y="738"/>
      <point x="46" y="738" type="curve" smooth="yes"/>
    </contour>
    <component base="hookHELPER" xOffset="295" xScale="-1"/>
    <contour>
      <point x="112" y="734" type="move" name="top"/>
    </contour>
    <contour>
      <point x="112" y="-193" type="move" name="bottom"/>
    </contour>
  </outline>
</glyph>
<glyph name="uni01AB" format="1">
  <advance width="269"/>
  <unicode hex="01AB"/>
  <outline>
    <contour>
      <point x="235" y="-199"/>
      <point x="273" y="-166"/>
      <point x="273" y="-98" type="curve" smooth="yes"/>
      <point x="273" y="20" type="line"/>
      <point x="243" y="8" type="line"/>
      <point x="243" y="-99" type="line" smooth="yes"/>
      <point x="243" y="-155"/>
      <point x="216" y="-172"/>
      <point x="185" y="-172" type="curve" smooth="yes"/>
      <point x="156" y="-172"/>
      <point x="137" y="-160"/>
      <point x="123" y="-148" type="curve"/>
      <point x="107" y="-168" type="line"/>
      <point x="124" y="-184"/>
      <point x="149" y="-199"/>
      <point x="186" y="-199" type="curve" smooth="yes"/>
    </contour>
    <contour>
      <point x="89" y="650" type="line"/>
      <point x="89" y="98" type="line" smooth="yes"/>
      <point x="89" y="31"/>
      <point x="127" y="-10"/>
      <point x="187" y="-10" type="curve" smooth="yes"/>
      <point x="212" y="-10"/>
      <point x="233" y="-4"/>
      <point x="252" y="8" type="curve"/>
      <point x="260" y="11"/>
      <point x="266" y="15"/>
      <point x="273" y="20" type="curve"/>
      <point x="262" y="37" type="line"/>
      <point x="242" y="27"/>
      <point x="216" y="18"/>
      <point x="189" y="18" type="curve" smooth="yes"/>
      <point x="142" y="18"/>
      <point x="119" y="50"/>
      <point x="119" y="100" type="curve" smooth="yes"/>
      <point x="119" y="653" type="line"/>
    </contour>
    <contour>
      <point x="19" y="520" type="line"/>
      <point x="19" y="493" type="line"/>
      <point x="230" y="493" type="line"/>
      <point x="235" y="520" type="line"/>
    </contour>
    <contour>
      <point x="104" y="650" type="move" name="top"/>
    </contour>
    <contour>
      <point x="135" y="-193" type="move" name="bottom"/>
    </contour>
  </outline>
</glyph>
<glyph name="uni01AC" format="1">
  <advance width="413"/>
  <unicode hex="01AC"/>
  <outline>
    <contour>
      <point x="134" y="682" type="line"/>
      <point x="134" y="652" type="line"/>
      <point x="200" y="652" type="line"/>
      <point x="200" y="0" type="line"/>
      <point x="231" y="0" type="line"/>
      <point x="231" y="652" type="line"/>
      <point x="400" y="652" type="line"/>
      <point x="405" y="682" type="line"/>
    </contour>
    <contour>
      <point x="16" y="538"/>
      <point x="29" y="514"/>
      <point x="45" y="490" type="curve"/>
      <point x="68" y="504" type="line"/>
      <point x="55" y="525"/>
      <point x="46" y="547"/>
      <point x="46" y="581" type="curve" smooth="yes"/>
      <point x="46" y="624"/>
      <point x="65" y="652"/>
      <point x="116" y="652" type="curve" smooth="yes"/>
      <point x="135" y="652" type="line"/>
      <point x="135" y="682" type="line"/>
      <point x="124" y="682" type="line" smooth="yes"/>
      <point x="50" y="682"/>
      <point x="16" y="643"/>
      <point x="16" y="581" type="curve" smooth="yes"/>
    </contour>
    <contour>
      <point x="207" y="682" type="move" name="top"/>
    </contour>
    <contour>
      <point x="216" y="0" type="move" name="bottom"/>
    </contour>
  </outline>
</glyph>
<glyph name="uni01AD" format="1">
  <advance width="269"/>
  <unicode hex="01AD"/>
  <outline>
    <contour>
      <point x="221" y="-10"/>
      <point x="249" y="2"/>
      <point x="273" y="20" type="curve"/>
      <point x="259" y="41" type="line"/>
      <point x="239" y="28"/>
      <point x="216" y="18"/>
      <point x="189" y="18" type="curve" smooth="yes"/>
      <point x="142" y="18"/>
      <point x="119" y="50"/>
      <point x="119" y="100" type="curve" smooth="yes"/>
      <point x="119" y="562" type="line"/>
      <point x="89" y="559" type="line"/>
      <point x="89" y="98" type="line" smooth="yes"/>
      <point x="89" y="31"/>
      <point x="127" y="-10"/>
      <point x="187" y="-10" type="curve" smooth="yes"/>
    </contour>
    <contour>
      <point x="230" y="493" type="line"/>
      <point x="235" y="520" type="line"/>
      <point x="19" y="520" type="line"/>
      <point x="19" y="493" type="line"/>
    </contour>
    <contour>
      <point x="119" y="529" type="line"/>
      <point x="119" y="629" type="line" smooth="yes"/>
      <point x="119" y="679"/>
      <point x="143" y="711"/>
      <point x="189" y="711" type="curve" smooth="yes"/>
      <point x="217" y="711"/>
      <point x="238" y="701"/>
      <point x="258" y="687" type="curve"/>
      <point x="273" y="708" type="line"/>
      <point x="250" y="726"/>
      <point x="222" y="738"/>
      <point x="189" y="738" type="curve" smooth="yes"/>
      <point x="129" y="738"/>
      <point x="89" y="696"/>
      <point x="89" y="630" type="curve" smooth="yes"/>
      <point x="89" y="529" type="line"/>
    </contour>
    <contour>
      <point x="135" y="734" type="move" name="top"/>
    </contour>
    <contour>
      <point x="135" y="0" type="move" name="bottom"/>
    </contour>
  </outline>
</glyph>
<glyph name="uni01B1" format="1">
  <advance width="566"/>
  <unicode hex="01B1"/>
  <outline>
    <contour>
      <point x="416" y="-10"/>
      <point x="506" y="95"/>
      <point x="506" y="312" type="curve" smooth="yes"/>
      <point x="506" y="504"/>
      <point x="453" y="594"/>
      <point x="391" y="653" type="curve"/>
      <point x="489" y="653" type="line"/>
      <point x="489" y="682" type="line"/>
      <point x="346" y="682" type="line"/>
      <point x="346" y="654" type="line"/>
      <point x="417" y="599"/>
      <point x="474" y="501"/>
      <point x="474" y="312" type="curve" smooth="yes"/>
      <point x="474" y="107"/>
      <point x="397" y="19"/>
      <point x="283" y="19" type="curve" smooth="yes"/>
      <point x="169" y="19"/>
      <point x="92" y="107"/>
      <point x="92" y="312" type="curve" smooth="yes"/>
      <point x="92" y="502"/>
      <point x="151" y="600"/>
      <point x="220" y="654" type="curve"/>
      <point x="220" y="682" type="line"/>
      <point x="78" y="682" type="line"/>
      <point x="78" y="653" type="line"/>
      <point x="176" y="653" type="line"/>
      <point x="120" y="597"/>
      <point x="60" y="504"/>
      <point x="60" y="312" type="curve" smooth="yes"/>
      <point x="60" y="95"/>
      <point x="149" y="-10"/>
      <point x="283" y="-10" type="curve" smooth="yes"/>
    </contour>
    <contour>
      <point x="283" y="682" type="move" name="top"/>
    </contour>
    <contour>
      <point x="283" y="0" type="move" name="bottom"/>
    </contour>
  </outline>
</glyph>
<glyph name="uni01B2" format="1">
  <advance width="526"/>
  <unicode hex="01B2"/>
  <outline>
    <contour>
      <point x="408" y="609" type="line"/>
      <point x="408" y="261" type="line" smooth="yes"/>
      <point x="408" y="99"/>
      <point x="338" y="19"/>
      <point x="242" y="19" type="curve" smooth="yes"/>
      <point x="165" y="19"/>
      <point x="118" y="71"/>
      <point x="118" y="155" type="curve" smooth="yes"/>
      <point x="118" y="682" type="line"/>
      <point x="87" y="682" type="line"/>
      <point x="87" y="152" type="line" smooth="yes"/>
      <point x="87" y="55"/>
      <point x="148" y="-10"/>
      <point x="242" y="-10" type="curve" smooth="yes"/>
      <point x="355" y="-10"/>
      <point x="439" y="82"/>
      <point x="439" y="258" type="curve" smooth="yes"/>
      <point x="439" y="609" type="line"/>
    </contour>
    <contour>
      <point x="439" y="609" type="line"/>
      <point x="439" y="665"/>
      <point x="412" y="692"/>
      <point x="369" y="692" type="curve" smooth="yes"/>
      <point x="350" y="692"/>
      <point x="335" y="687"/>
      <point x="321" y="678" type="curve"/>
      <point x="332" y="656" type="line"/>
      <point x="342" y="662"/>
      <point x="353" y="665"/>
      <point x="367" y="665" type="curve" smooth="yes"/>
      <point x="396" y="665"/>
      <point x="408" y="646"/>
      <point x="408" y="609" type="curve"/>
    </contour>
    <contour>
      <point x="252" y="682" type="move" name="top"/>
    </contour>
    <contour>
      <point x="252" y="0" type="move" name="bottom"/>
    </contour>
  </outline>
</glyph>
<glyph name="uni01B3" format="1">
  <advance width="429"/>
  <unicode hex="01B3"/>
  <outline>
    <contour>
      <point x="224" y="0" type="line"/>
      <point x="224" y="270" type="line"/>
      <point x="354" y="610" type="line" smooth="yes"/>
      <point x="370" y="652"/>
      <point x="382" y="666"/>
      <point x="410" y="666" type="curve" smooth="yes"/>
      <point x="433" y="666"/>
      <point x="445" y="656"/>
      <point x="463" y="640" type="curve"/>
      <point x="479" y="658" type="line"/>
      <point x="461" y="677"/>
      <point x="439" y="692"/>
      <point x="409" y="692" type="curve" smooth="yes"/>
      <point x="368" y="692"/>
      <point x="346" y="667"/>
      <point x="330" y="623" type="curve" smooth="yes"/>
      <point x="209" y="298" type="line"/>
      <point x="48" y="682" type="line"/>
      <point x="15" y="682" type="line"/>
      <point x="193" y="270" type="line"/>
      <point x="193" y="0" type="line"/>
    </contour>
    <contour>
      <point x="215" y="682" type="move" name="top"/>
    </contour>
    <contour>
      <point x="209" y="0" type="move" name="bottom"/>
    </contour>
    <contour>
      <point x="11" y="682" type="move" name="topleft"/>
    </contour>
  </outline>
</glyph>
<glyph name="uni01B4" format="1">
  <advance width="376"/>
  <unicode hex="01B4"/>
  <outline>
    <contour>
      <point x="147" y="-165"/>
      <point x="179" y="-117"/>
      <point x="210" y="-2" type="curve" smooth="yes"/>
      <point x="348" y="503" type="line" smooth="yes"/>
      <point x="355" y="528"/>
      <point x="364" y="542"/>
      <point x="386" y="542" type="curve" smooth="yes"/>
      <point x="397" y="542"/>
      <point x="407" y="539"/>
      <point x="417" y="535" type="curve"/>
      <point x="426" y="557" type="line"/>
      <point x="414" y="563"/>
      <point x="400" y="568"/>
      <point x="385" y="568" type="curve" smooth="yes"/>
      <point x="348" y="568"/>
      <point x="328" y="546"/>
      <point x="318" y="506" type="curve" smooth="yes"/>
      <point x="192" y="23" type="line"/>
      <point x="51" y="520" type="line"/>
      <point x="20" y="520" type="line"/>
      <point x="171" y="0" type="line"/>
      <point x="183" y="0" type="line"/>
      <point x="153" y="-100"/>
      <point x="134" y="-142"/>
      <point x="48" y="-173" type="curve"/>
      <point x="52" y="-197" type="line"/>
    </contour>
    <contour>
      <point x="194" y="520" type="move" name="top"/>
    </contour>
    <contour>
      <point x="194" y="-193" type="move" name="bottom"/>
    </contour>
  </outline>
</glyph>
<glyph name="uni01B5" format="1">
  <advance width="420"/>
  <unicode hex="01B5"/>
  <outline>
    <contour>
      <point x="63" y="682" type="line"/>
      <point x="63" y="653" type="line"/>
      <point x="347" y="653" type="line"/>
      <point x="32" y="28" type="line"/>
      <point x="32" y="0" type="line"/>
      <point x="367" y="0" type="line"/>
      <point x="371" y="30" type="line"/>
      <point x="64" y="30" type="line"/>
      <point x="379" y="655" type="line"/>
      <point x="379" y="682" type="line"/>
    </contour>
    <component base="hyphen" xOffset="28" yOffset="30" xScale="1.1"/>
    <contour>
      <point x="210" y="682" type="move" name="top"/>
    </contour>
    <contour>
      <point x="210" y="0" type="move" name="bottom"/>
    </contour>
  </outline>
</glyph>
<glyph name="uni01B6" format="1">
  <advance width="339"/>
  <unicode hex="01B6"/>
  <outline>
    <contour>
      <point x="44" y="520" type="line"/>
      <point x="44" y="492" type="line"/>
      <point x="277" y="492" type="line"/>
      <point x="24" y="25" type="line"/>
      <point x="24" y="0" type="line"/>
      <point x="303" y="0" type="line"/>
      <point x="306" y="28" type="line"/>
      <point x="57" y="28" type="line"/>
      <point x="310" y="495" type="line"/>
      <point x="310" y="520" type="line"/>
    </contour>
    <component base="hyphen" xOffset="6" yOffset="-43"/>
    <contour>
      <point x="169" y="520" type="move" name="top"/>
    </contour>
    <contour>
      <point x="169" y="0" type="move" name="bottom"/>
    </contour>
  </outline>
</glyph>
<glyph name="uni01B7" format="1">
  <advance width="393"/>
  <unicode hex="01B7"/>
  <outline>
    <contour>
      <point x="289" y="-10"/>
      <point x="352" y="72"/>
      <point x="352" y="183" type="curve" smooth="yes"/>
      <point x="352" y="311"/>
      <point x="289" y="376"/>
      <point x="167" y="376" type="curve" smooth="yes"/>
      <point x="135" y="376" type="line"/>
      <point x="104" y="348" type="line"/>
      <point x="166" y="348" type="line" smooth="yes"/>
      <point x="263" y="348"/>
      <point x="320" y="302"/>
      <point x="320" y="182" type="curve" smooth="yes"/>
      <point x="320" y="89"/>
      <point x="274" y="19"/>
      <point x="180" y="19" type="curve" smooth="yes"/>
      <point x="119" y="19"/>
      <point x="79" y="38"/>
      <point x="36" y="90" type="curve"/>
      <point x="15" y="73" type="line"/>
      <point x="56" y="20"/>
      <point x="107" y="-10"/>
      <point x="181" y="-10" type="curve" smooth="yes"/>
    </contour>
    <contour>
      <point x="104" y="348" type="line"/>
      <point x="137" y="376" type="line"/>
      <point x="332" y="656" type="line"/>
      <point x="332" y="682" type="line"/>
      <point x="30" y="682" type="line"/>
      <point x="30" y="654" type="line"/>
      <point x="296" y="654" type="line"/>
      <point x="104" y="376" type="line"/>
    </contour>
    <contour>
      <point x="181" y="682" type="move" name="top"/>
    </contour>
    <contour>
      <point x="196" y="0" type="move" name="bottom"/>
    </contour>
  </outline>
</glyph>
<glyph name="uni01B8" format="1">
  <advance width="393"/>
  <unicode hex="01B8"/>
  <outline>
    <contour>
      <point x="283" y="-10"/>
      <point x="334" y="20"/>
      <point x="378" y="73" type="curve"/>
      <point x="356" y="90" type="line"/>
      <point x="310" y="38"/>
      <point x="271" y="19"/>
      <point x="212" y="19" type="curve" smooth="yes"/>
      <point x="119" y="19"/>
      <point x="73" y="82"/>
      <point x="73" y="179" type="curve" smooth="yes"/>
      <point x="73" y="298"/>
      <point x="130" y="348"/>
      <point x="227" y="348" type="curve" smooth="yes"/>
      <point x="289" y="348" type="line"/>
      <point x="258" y="376" type="line"/>
      <point x="226" y="376" type="line" smooth="yes"/>
      <point x="104" y="376"/>
      <point x="41" y="308"/>
      <point x="41" y="180" type="curve" smooth="yes"/>
      <point x="41" y="66"/>
      <point x="104" y="-10"/>
      <point x="211" y="-10" type="curve" smooth="yes"/>
    </contour>
    <contour>
      <point x="97" y="654" type="line"/>
      <point x="363" y="654" type="line"/>
      <point x="363" y="682" type="line"/>
      <point x="61" y="682" type="line"/>
      <point x="61" y="656" type="line"/>
      <point x="256" y="376" type="line"/>
      <point x="289" y="348" type="line"/>
      <point x="289" y="376" type="line"/>
    </contour>
    <contour>
      <point x="197" y="682" type="move" name="top"/>
    </contour>
    <contour>
      <point x="197" y="0" type="move" name="bottom"/>
    </contour>
  </outline>
</glyph>
<glyph name="uni01B9" format="1">
  <advance width="369"/>
  <unicode hex="01B9"/>
  <outline>
    <contour>
      <point x="267" y="-199"/>
      <point x="313" y="-169"/>
      <point x="354" y="-116" type="curve"/>
      <point x="334" y="-100" type="line"/>
      <point x="293" y="-150"/>
      <point x="254" y="-171"/>
      <point x="197" y="-171" type="curve" smooth="yes"/>
      <point x="107" y="-171"/>
      <point x="60" y="-111"/>
      <point x="60" y="-8" type="curve" smooth="yes"/>
      <point x="60" y="109"/>
      <point x="111" y="167"/>
      <point x="220" y="167" type="curve" smooth="yes"/>
      <point x="265" y="167" type="line"/>
      <point x="236" y="195" type="line"/>
      <point x="222" y="195" type="line" smooth="yes"/>
      <point x="87" y="195"/>
      <point x="29" y="115"/>
      <point x="29" y="-8" type="curve" smooth="yes"/>
      <point x="29" y="-125"/>
      <point x="92" y="-199"/>
      <point x="197" y="-199" type="curve" smooth="yes"/>
    </contour>
    <contour>
      <point x="83" y="492" type="line"/>
      <point x="339" y="492" type="line"/>
      <point x="339" y="520" type="line"/>
      <point x="49" y="520" type="line"/>
      <point x="49" y="495" type="line"/>
      <point x="234" y="195" type="line"/>
      <point x="265" y="167" type="line"/>
      <point x="265" y="195" type="line"/>
    </contour>
    <contour>
      <point x="185" y="520" type="move" name="top"/>
    </contour>
    <contour>
      <point x="185" y="-193" type="move" name="bottom"/>
    </contour>
  </outline>
</glyph>
<glyph name="uni01BA" format="1">
  <advance width="366"/>
  <unicode hex="01BA"/>
  <outline>
    <contour>
      <point x="125" y="-176" type="line"/>
      <point x="80" y="-146"/>
      <point x="60" y="-125"/>
      <point x="60" y="-86" type="curve" smooth="yes"/>
      <point x="60" y="-34"/>
      <point x="99" y="-22"/>
      <point x="180" y="-5" type="curve" smooth="yes"/>
      <point x="283" y="17"/>
      <point x="338" y="48"/>
      <point x="338" y="146" type="curve" smooth="yes"/>
      <point x="338" y="224"/>
      <point x="293" y="269"/>
      <point x="194" y="269" type="curve" smooth="yes"/>
      <point x="128" y="269" type="line"/>
      <point x="313" y="495" type="line"/>
      <point x="313" y="520" type="line"/>
      <point x="28" y="520" type="line"/>
      <point x="28" y="492" type="line"/>
      <point x="274" y="492" type="line"/>
      <point x="95" y="269" type="line"/>
      <point x="95" y="241" type="line"/>
      <point x="194" y="241" type="line" smooth="yes"/>
      <point x="272" y="241"/>
      <point x="307" y="213"/>
      <point x="307" y="146" type="curve" smooth="yes"/>
      <point x="307" y="64"/>
      <point x="266" y="40"/>
      <point x="171" y="21" type="curve" smooth="yes"/>
      <point x="76" y="2"/>
      <point x="28" y="-23"/>
      <point x="28" y="-86" type="curve" smooth="yes"/>
      <point x="28" y="-138"/>
      <point x="61" y="-169"/>
      <point x="115" y="-199" type="curve"/>
    </contour>
    <contour>
      <point x="171" y="520" type="move" name="top"/>
    </contour>
    <contour>
      <point x="183" y="-193" type="move" name="bottom"/>
    </contour>
  </outline>
</glyph>
<glyph name="uni01BD" format="1">
  <advance width="348"/>
  <unicode hex="01BD"/>
  <outline>
    <contour>
      <point x="67" y="520" type="line"/>
      <point x="67" y="272" type="line"/>
      <point x="90" y="272" type="line"/>
      <point x="119" y="289"/>
      <point x="144" y="300"/>
      <point x="179" y="300" type="curve" smooth="yes"/>
      <point x="233" y="300"/>
      <point x="271" y="267"/>
      <point x="271" y="167" type="curve" smooth="yes"/>
      <point x="271" y="66"/>
      <point x="229" y="18"/>
      <point x="159" y="18" type="curve" smooth="yes"/>
      <point x="114" y="18"/>
      <point x="88" y="36"/>
      <point x="55" y="69" type="curve"/>
      <point x="35" y="51" type="line"/>
      <point x="68" y="14"/>
      <point x="106" y="-10"/>
      <point x="159" y="-10" type="curve" smooth="yes"/>
      <point x="249" y="-10"/>
      <point x="303" y="54"/>
      <point x="303" y="167" type="curve" smooth="yes"/>
      <point x="303" y="277"/>
      <point x="252" y="328"/>
      <point x="182" y="328" type="curve" smooth="yes"/>
      <point x="145" y="328"/>
      <point x="116" y="315"/>
      <point x="97" y="301" type="curve"/>
      <point x="97" y="492" type="line"/>
      <point x="283" y="492" type="line"/>
      <point x="288" y="520" type="line"/>
    </contour>
    <contour>
      <point x="173" y="520" type="move" name="top"/>
    </contour>
    <contour>
      <point x="173" y="0" type="move" name="bottom"/>
    </contour>
  </outline>
</glyph>
<glyph name="uni01BF" format="1">
  <advance width="466"/>
  <unicode hex="01BF"/>
  <outline>
    <contour>
      <point x="93" y="520" type="line"/>
      <point x="93" y="-199" type="line"/>
      <point x="123" y="-193" type="line"/>
      <point x="123" y="412" type="line"/>
      <point x="122" y="421" type="line"/>
      <point x="119" y="520" type="line"/>
    </contour>
    <contour>
      <point x="119" y="401" type="line"/>
      <point x="159" y="460"/>
      <point x="207" y="502"/>
      <point x="271" y="502" type="curve" smooth="yes"/>
      <point x="336" y="502"/>
      <point x="378" y="453"/>
      <point x="378" y="360" type="curve" smooth="yes"/>
      <point x="378" y="225"/>
      <point x="311" y="140"/>
      <point x="166" y="46" type="curve" smooth="yes"/>
      <point x="121" y="17" type="line"/>
      <point x="121" y="-12" type="line"/>
      <point x="175" y="21" type="line" smooth="yes"/>
      <point x="328" y="116"/>
      <point x="410" y="210"/>
      <point x="410" y="361" type="curve" smooth="yes"/>
      <point x="410" y="467"/>
      <point x="355" y="530"/>
      <point x="272" y="530" type="curve" smooth="yes"/>
      <point x="201" y="530"/>
      <point x="155" y="489"/>
      <point x="113" y="430" type="curve"/>
    </contour>
    <contour>
      <point x="233" y="520" type="move" name="top"/>
    </contour>
    <contour>
      <point x="233" y="-193" type="move" name="bottom"/>
    </contour>
  </outline>
</glyph>
<glyph name="uni01C3" format="1">
  <advance width="252"/>
  <unicode hex="01C3"/>
  <outline>
    <contour>
      <point x="112" y="734" type="line"/>
      <point x="112" y="193" type="line"/>
      <point x="140" y="193" type="line"/>
      <point x="140" y="738" type="line"/>
    </contour>
    <contour>
      <point x="108" y="48"/>
      <point x="97" y="34"/>
      <point x="97" y="19" type="curve" smooth="yes"/>
      <point x="97" y="4"/>
      <point x="108" y="-10"/>
      <point x="126" y="-10" type="curve" smooth="yes"/>
      <point x="144" y="-10"/>
      <point x="155" y="4"/>
      <point x="155" y="19" type="curve" smooth="yes"/>
      <point x="155" y="34"/>
      <point x="144" y="48"/>
      <point x="126" y="48" type="curve" smooth="yes"/>
    </contour>
  </outline>
</glyph>
<glyph name="uni01E4" format="1">
  <advance width="513"/>
  <unicode hex="01E4"/>
  <outline>
    <contour>
      <point x="175" y="692"/>
      <point x="60" y="598"/>
      <point x="60" y="345" type="curve" smooth="yes"/>
      <point x="60" y="94"/>
      <point x="153" y="-10"/>
      <point x="291" y="-10" type="curve" smooth="yes"/>
      <point x="343" y="-10"/>
      <point x="397" y="8"/>
      <point x="444" y="42" type="curve"/>
      <point x="444" y="359" type="line"/>
      <point x="294" y="359" type="line"/>
      <point x="298" y="330" type="line"/>
      <point x="414" y="330" type="line"/>
      <point x="414" y="58" type="line"/>
      <point x="377" y="33"/>
      <point x="341" y="19"/>
      <point x="289" y="19" type="curve" smooth="yes"/>
      <point x="171" y="19"/>
      <point x="92" y="110"/>
      <point x="92" y="345" type="curve" smooth="yes"/>
      <point x="92" y="589"/>
      <point x="193" y="663"/>
      <point x="289" y="663" type="curve" smooth="yes"/>
      <point x="338" y="663"/>
      <point x="373" y="647"/>
      <point x="413" y="610" type="curve"/>
      <point x="432" y="631" type="line"/>
      <point x="388" y="672"/>
      <point x="348" y="692"/>
      <point x="289" y="692" type="curve" smooth="yes"/>
    </contour>
    <contour>
      <point x="505" y="209" type="line"/>
      <point x="505" y="237" type="line"/>
      <point x="298" y="237" type="line"/>
      <point x="298" y="209" type="line"/>
    </contour>
    <contour>
      <point x="256" y="682" type="move" name="top"/>
    </contour>
    <contour>
      <point x="256" y="0" type="move" name="bottom"/>
    </contour>
  </outline>
</glyph>
<glyph name="uni01E5" format="1">
  <advance width="403"/>
  <unicode hex="01E5"/>
  <outline>
    <contour>
      <point x="346" y="538"/>
      <point x="320" y="530"/>
      <point x="202" y="530" type="curve" smooth="yes"/>
      <point x="107" y="530"/>
      <point x="49" y="466"/>
      <point x="49" y="359" type="curve" smooth="yes"/>
      <point x="49" y="288"/>
      <point x="73" y="240"/>
      <point x="121" y="210" type="curve"/>
      <point x="92" y="189"/>
      <point x="74" y="161"/>
      <point x="74" y="125" type="curve" smooth="yes"/>
      <point x="74" y="76"/>
      <point x="109" y="39"/>
      <point x="187" y="39" type="curve" smooth="yes"/>
      <point x="237" y="39" type="line" smooth="yes"/>
      <point x="312" y="39"/>
      <point x="351" y="3"/>
      <point x="351" y="-58" type="curve" smooth="yes"/>
      <point x="351" y="-124"/>
      <point x="309" y="-171"/>
      <point x="205" y="-171" type="curve" smooth="yes"/>
      <point x="98" y="-171"/>
      <point x="61" y="-137"/>
      <point x="59" y="-57" type="curve"/>
      <point x="31" y="-57" type="line"/>
      <point x="31" y="-155"/>
      <point x="83" y="-199"/>
      <point x="205" y="-199" type="curve" smooth="yes"/>
      <point x="325" y="-199"/>
      <point x="381" y="-140"/>
      <point x="381" y="-56" type="curve" smooth="yes"/>
      <point x="381" y="17"/>
      <point x="331" y="66"/>
      <point x="240" y="66" type="curve" smooth="yes"/>
      <point x="190" y="66" type="line" smooth="yes"/>
      <point x="124" y="66"/>
      <point x="103" y="93"/>
      <point x="103" y="130" type="curve" smooth="yes"/>
      <point x="103" y="159"/>
      <point x="119" y="183"/>
      <point x="144" y="200" type="curve"/>
      <point x="160" y="193"/>
      <point x="179" y="189"/>
      <point x="200" y="189" type="curve" smooth="yes"/>
      <point x="293" y="189"/>
      <point x="350" y="250"/>
      <point x="350" y="356" type="curve" smooth="yes"/>
      <point x="350" y="437"/>
      <point x="320" y="482"/>
      <point x="278" y="506" type="curve"/>
      <point x="332" y="507"/>
      <point x="367" y="512"/>
      <point x="392" y="520" type="curve"/>
      <point x="383" y="552" type="line"/>
    </contour>
    <contour>
      <point x="281" y="503"/>
      <point x="319" y="442"/>
      <point x="319" y="356" type="curve" smooth="yes"/>
      <point x="319" y="262"/>
      <point x="276" y="216"/>
      <point x="200" y="216" type="curve" smooth="yes"/>
      <point x="130" y="216"/>
      <point x="80" y="264"/>
      <point x="80" y="359" type="curve" smooth="yes"/>
      <point x="80" y="448"/>
      <point x="119" y="503"/>
      <point x="201" y="503" type="curve" smooth="yes"/>
    </contour>
    <component base="hyphen" xOffset="160" yOffset="-371"/>
    <contour>
      <point x="201" y="520" type="move" name="top"/>
    </contour>
    <contour>
      <point x="201" y="-193" type="move" name="bottom"/>
    </contour>
  </outline>
</glyph>
<glyph name="uni01F6" format="1">
  <advance width="791"/>
  <unicode hex="01F6"/>
  <outline>
    <contour>
      <point x="128" y="0" type="line"/>
      <point x="128" y="345" type="line"/>
      <point x="417" y="345" type="line"/>
      <point x="417" y="233" type="line"/>
      <point x="448" y="233" type="line"/>
      <point x="448" y="682" type="line"/>
      <point x="417" y="682" type="line"/>
      <point x="417" y="374" type="line"/>
      <point x="128" y="374" type="line"/>
      <point x="128" y="682" type="line"/>
      <point x="97" y="682" type="line"/>
      <point x="97" y="0" type="line"/>
    </contour>
    <contour>
      <point x="641" y="-10"/>
      <point x="716" y="71"/>
      <point x="716" y="255" type="curve" smooth="yes"/>
      <point x="716" y="357"/>
      <point x="706" y="444"/>
      <point x="694" y="520" type="curve"/>
      <point x="664" y="520" type="line"/>
      <point x="675" y="444"/>
      <point x="685" y="356"/>
      <point x="685" y="255" type="curve" smooth="yes"/>
      <point x="685" y="76"/>
      <point x="619" y="18"/>
      <point x="547" y="18" type="curve" smooth="yes"/>
      <point x="491" y="18"/>
      <point x="448" y="54"/>
      <point x="448" y="137" type="curve" smooth="yes"/>
      <point x="448" y="520" type="line"/>
      <point x="417" y="520" type="line"/>
      <point x="417" y="136" type="line" smooth="yes"/>
      <point x="417" y="40"/>
      <point x="474" y="-10"/>
      <point x="547" y="-10" type="curve" smooth="yes"/>
    </contour>
    <contour>
      <point x="394" y="682" type="move" name="top"/>
    </contour>
    <contour>
      <point x="394" y="0" type="move" name="bottom"/>
    </contour>
  </outline>
</glyph>
<glyph name="uni01F7" format="1">
  <advance width="457"/>
  <unicode hex="01F7"/>
  <outline>
    <contour>
      <point x="119" y="583" type="line"/>
      <point x="154" y="623"/>
      <point x="200" y="663"/>
      <point x="270" y="663" type="curve" smooth="yes"/>
      <point x="341" y="663"/>
      <point x="387" y="612"/>
      <point x="387" y="516" type="curve" smooth="yes"/>
      <point x="387" y="384"/>
      <point x="310" y="329"/>
      <point x="216" y="288" type="curve" smooth="yes"/>
      <point x="121" y="247" type="line"/>
      <point x="121" y="218" type="line"/>
      <point x="214" y="258" type="line" smooth="yes"/>
      <point x="327" y="306"/>
      <point x="419" y="369"/>
      <point x="419" y="517" type="curve" smooth="yes"/>
      <point x="419" y="626"/>
      <point x="359" y="692"/>
      <point x="271" y="692" type="curve" smooth="yes"/>
      <point x="200" y="692"/>
      <point x="153" y="652"/>
      <point x="115" y="612" type="curve"/>
    </contour>
    <contour>
      <point x="97" y="682" type="line"/>
      <point x="97" y="0" type="line"/>
      <point x="128" y="0" type="line"/>
      <point x="128" y="682" type="line"/>
    </contour>
    <contour>
      <point x="231" y="682" type="move" name="top"/>
    </contour>
    <contour>
      <point x="231" y="0" type="move" name="bottom"/>
    </contour>
  </outline>
</glyph>
<glyph name="uni021C" format="1">
  <advance width="409"/>
  <unicode hex="021C"/>
  <outline>
    <contour>
      <point x="119" y="692"/>
      <point x="72" y="662"/>
      <point x="23" y="609" type="curve"/>
      <point x="43" y="590" type="line"/>
      <point x="85" y="634"/>
      <point x="126" y="663"/>
      <point x="186" y="663" type="curve" smooth="yes"/>
      <point x="266" y="663"/>
      <point x="312" y="607"/>
      <point x="312" y="519" type="curve" smooth="yes"/>
      <point x="312" y="422"/>
      <point x="257" y="373"/>
      <point x="172" y="373" type="curve" smooth="yes"/>
      <point x="134" y="373" type="line"/>
      <point x="129" y="344" type="line"/>
      <point x="175" y="345" type="line" smooth="yes"/>
      <point x="277" y="347"/>
      <point x="329" y="291"/>
      <point x="329" y="203" type="curve" smooth="yes"/>
      <point x="329" y="81"/>
      <point x="260" y="3"/>
      <point x="52" y="-51" type="curve"/>
      <point x="55" y="-80" type="line"/>
      <point x="283" y="-20"/>
      <point x="361" y="68"/>
      <point x="361" y="204" type="curve" smooth="yes"/>
      <point x="361" y="300"/>
      <point x="306" y="351"/>
      <point x="231" y="361" type="curve"/>
      <point x="299" y="378"/>
      <point x="344" y="425"/>
      <point x="344" y="518" type="curve" smooth="yes"/>
      <point x="344" y="622"/>
      <point x="284" y="692"/>
      <point x="187" y="692" type="curve" smooth="yes"/>
    </contour>
    <contour>
      <point x="205" y="682" type="move" name="top"/>
    </contour>
    <contour>
      <point x="205" y="-193" type="move" name="bottom"/>
    </contour>
  </outline>
</glyph>
<glyph name="uni021D" format="1">
  <advance width="373"/>
  <unicode hex="021D"/>
  <outline>
    <contour>
      <point x="107" y="530"/>
      <point x="64" y="511"/>
      <point x="23" y="477" type="curve"/>
      <point x="41" y="458" type="line"/>
      <point x="80" y="486"/>
      <point x="108" y="502"/>
      <point x="162" y="502" type="curve" smooth="yes"/>
      <point x="227" y="502"/>
      <point x="264" y="460"/>
      <point x="264" y="391" type="curve" smooth="yes"/>
      <point x="264" y="315"/>
      <point x="223" y="277"/>
      <point x="155" y="277" type="curve" smooth="yes"/>
      <point x="112" y="277" type="line"/>
      <point x="109" y="251" type="line"/>
      <point x="167" y="251" type="line" smooth="yes"/>
      <point x="248" y="251"/>
      <point x="285" y="221"/>
      <point x="285" y="148" type="curve" smooth="yes"/>
      <point x="285" y="54"/>
      <point x="216" y="-10"/>
      <point x="53" y="-64" type="curve"/>
      <point x="58" y="-90" type="line"/>
      <point x="236" y="-37"/>
      <point x="317" y="44"/>
      <point x="317" y="148" type="curve" smooth="yes"/>
      <point x="317" y="227"/>
      <point x="270" y="264"/>
      <point x="210" y="266" type="curve"/>
      <point x="259" y="281"/>
      <point x="295" y="315"/>
      <point x="295" y="391" type="curve" smooth="yes"/>
      <point x="295" y="479"/>
      <point x="240" y="530"/>
      <point x="163" y="530" type="curve" smooth="yes"/>
    </contour>
    <contour>
      <point x="186" y="520" type="move" name="top"/>
    </contour>
    <contour>
      <point x="186" y="-193" type="move" name="bottom"/>
    </contour>
  </outline>
</glyph>
<glyph name="uni0221" format="1">
  <advance width="541"/>
  <unicode hex="0221"/>
  <outline>
    <contour>
      <point x="287" y="-10"/>
      <point x="327" y="37"/>
      <point x="351" y="91" type="curve"/>
      <point x="351" y="141" type="line"/>
      <point x="321" y="63"/>
      <point x="282" y="18"/>
      <point x="217" y="18" type="curve" smooth="yes"/>
      <point x="138" y="18"/>
      <point x="89" y="99"/>
      <point x="88" y="258" type="curve" smooth="yes"/>
      <point x="87" y="420"/>
      <point x="144" y="502"/>
      <point x="225" y="502" type="curve" smooth="yes"/>
      <point x="289" y="502"/>
      <point x="327" y="454"/>
      <point x="352" y="403" type="curve"/>
      <point x="353" y="446" type="line"/>
      <point x="330" y="486"/>
      <point x="292" y="530"/>
      <point x="225" y="530" type="curve" smooth="yes"/>
      <point x="121" y="530"/>
      <point x="56" y="426"/>
      <point x="56" y="258" type="curve" smooth="yes"/>
      <point x="56" y="84"/>
      <point x="119" y="-10"/>
      <point x="217" y="-10" type="curve" smooth="yes"/>
    </contour>
    <contour>
      <point x="386" y="39" type="line"/>
      <point x="389" y="46" type="line"/>
      <point x="424" y="121"/>
      <point x="443" y="157"/>
      <point x="487" y="157" type="curve" smooth="yes"/>
      <point x="518" y="157"/>
      <point x="537" y="134"/>
      <point x="537" y="99" type="curve" smooth="yes"/>
      <point x="537" y="47"/>
      <point x="503" y="18"/>
      <point x="456" y="18" type="curve" smooth="yes"/>
      <point x="402" y="18"/>
      <point x="377" y="55"/>
      <point x="377" y="107" type="curve"/>
      <point x="347" y="107" type="line"/>
      <point x="347" y="38"/>
      <point x="393" y="-10"/>
      <point x="456" y="-10" type="curve" smooth="yes"/>
      <point x="519" y="-10"/>
      <point x="566" y="34"/>
      <point x="566" y="99" type="curve" smooth="yes"/>
      <point x="566" y="146"/>
      <point x="536" y="184"/>
      <point x="488" y="184" type="curve" smooth="yes"/>
      <point x="433" y="184"/>
      <point x="403" y="139"/>
      <point x="376" y="74" type="curve"/>
      <point x="368" y="60" type="line"/>
      <point x="321" y="-45" type="line"/>
      <point x="344" y="-57" type="line"/>
    </contour>
    <contour>
      <point x="347" y="738" type="line"/>
      <point x="347" y="96" type="line"/>
      <point x="377" y="107" type="line"/>
      <point x="377" y="734" type="line"/>
    </contour>
    <contour>
      <point x="269" y="734" type="move" name="top"/>
    </contour>
    <contour>
      <point x="269" y="-193" type="move" name="bottom"/>
    </contour>
  </outline>
</glyph>
<glyph name="uni0222" format="1">
  <advance width="519"/>
  <unicode hex="0222"/>
  <outline>
    <contour>
      <point x="133" y="395"/>
      <point x="60" y="313"/>
      <point x="60" y="191" type="curve" smooth="yes"/>
      <point x="60" y="74"/>
      <point x="127" y="-10"/>
      <point x="260" y="-10" type="curve" smooth="yes"/>
      <point x="396" y="-10"/>
      <point x="459" y="78"/>
      <point x="459" y="192" type="curve" smooth="yes"/>
      <point x="459" y="319"/>
      <point x="387" y="395"/>
      <point x="260" y="395" type="curve"/>
    </contour>
    <contour>
      <point x="376" y="367"/>
      <point x="427" y="300"/>
      <point x="427" y="192" type="curve" smooth="yes"/>
      <point x="427" y="89"/>
      <point x="378" y="19"/>
      <point x="260" y="19" type="curve" smooth="yes"/>
      <point x="145" y="19"/>
      <point x="92" y="89"/>
      <point x="92" y="191" type="curve" smooth="yes"/>
      <point x="92" y="298"/>
      <point x="146" y="367"/>
      <point x="260" y="367" type="curve"/>
    </contour>
    <contour>
      <point x="392" y="682" type="line"/>
      <point x="392" y="528" type="line" smooth="yes"/>
      <point x="392" y="457"/>
      <point x="363" y="396"/>
      <point x="260" y="396" type="curve" smooth="yes"/>
      <point x="157" y="396"/>
      <point x="130" y="459"/>
      <point x="130" y="528" type="curve" smooth="yes"/>
      <point x="130" y="682" type="line"/>
      <point x="99" y="682" type="line"/>
      <point x="99" y="528" type="line" smooth="yes"/>
      <point x="99" y="443"/>
      <point x="137" y="370"/>
      <point x="260" y="370" type="curve" smooth="yes"/>
      <point x="378" y="370"/>
      <point x="423" y="445"/>
      <point x="423" y="528" type="curve" smooth="yes"/>
      <point x="423" y="682" type="line"/>
    </contour>
    <contour>
      <point x="260" y="682" type="move" name="top"/>
    </contour>
    <contour>
      <point x="260" y="0" type="move" name="bottom"/>
    </contour>
  </outline>
</glyph>
